<?xml version="1.0" standalone="no"?>
<!DOCTYPE svg PUBLIC "-//W3C//DTD SVG 20010904//EN"
 "http://www.w3.org/TR/2001/REC-SVG-20010904/DTD/svg10.dtd">
<svg version="1.0" xmlns="http://www.w3.org/2000/svg"
 width="1024.000000pt" height="1024.000000pt" viewBox="0 0 1024.000000 1024.000000"
 preserveAspectRatio="xMidYMid meet">

<g transform="translate(0.000000,1024.000000) scale(0.100000,-0.100000)"
fill="#000000" stroke="none">
<path d="M3561 9765 c-123 -27 -278 -120 -334 -202 -108 -156 -131 -394 -53
-558 82 -174 194 -260 393 -301 63 -13 82 -14 157 -1 182 32 304 124 386 290
70 144 81 295 28 421 -28 66 -111 188 -155 226 -62 54 -172 103 -274 119 -30
5 -61 12 -69 14 -8 3 -44 -1 -79 -8z m-38 -80 c-38 -40 -74 -90 -94 -132 -17
-38 -33 -70 -35 -71 -5 -7 -124 93 -124 104 0 37 218 152 310 163 3 1 -23 -28
-57 -64z m107 -120 c0 -138 -3 -175 -13 -175 -28 0 -121 32 -154 53 -31 20
-34 26 -29 57 9 61 149 240 188 240 4 0 8 -79 8 -175z m227 130 c39 -19 93
-55 119 -78 l47 -43 -48 -52 c-26 -29 -51 -52 -55 -52 -4 0 -20 25 -35 55 -31
65 -123 168 -174 196 l-36 20 55 -5 c34 -4 82 -19 127 -41z m-85 -52 c51 -53
98 -133 98 -168 0 -29 -61 -55 -146 -62 -75 -7 -74 -11 -74 180 l0 137 38 -19
c20 -11 58 -41 84 -68z m-382 -187 c0 0 -7 -36 -15 -79 -8 -43 -15 -96 -15
-118 l0 -39 -42 0 c-24 0 -73 3 -110 6 l-67 7 6 51 c6 57 31 138 68 221 l24
55 76 -51 c41 -28 75 -52 75 -53z m725 -43 c13 -32 26 -76 30 -98 3 -22 8 -50
11 -62 4 -23 3 -23 -103 -23 l-108 0 -2 51 c-2 28 -9 77 -17 109 l-13 59 37
26 c21 14 48 37 60 50 l23 25 29 -40 c16 -21 40 -65 53 -97z m-631 -3 c39 -20
74 -30 102 -30 l44 0 0 -80 0 -80 -126 0 -127 0 7 60 c6 51 32 160 39 160 1 0
29 -14 61 -30z m425 -37 c7 -32 13 -78 14 -103 l2 -45 -126 -2 c-69 -1 -131 2
-137 6 -9 5 -10 29 -6 83 l7 76 34 7 c19 3 38 4 41 1 3 -3 0 -6 -6 -6 -16 0
-65 -20 -61 -25 8 -7 165 41 189 58 13 9 26 14 30 12 4 -2 13 -30 19 -62z
m-546 -238 c4 -41 14 -91 22 -111 20 -47 19 -61 -3 -66 -11 -3 -32 -25 -48
-48 -16 -24 -34 -45 -39 -47 -14 -4 -89 110 -114 173 -22 57 -36 137 -27 159
4 12 25 15 104 15 l99 0 6 -75z m267 -140 c0 -118 3 -229 7 -247 l6 -32 -44
26 c-50 29 -165 187 -156 212 4 9 40 40 82 71 41 31 75 60 75 65 0 11 -71 -29
-131 -75 l-47 -35 -12 47 c-7 27 -15 76 -19 110 l-7 62 81 4 c44 1 99 4 122 5
l42 2 1 -215z m290 182 c0 -32 -35 -185 -45 -195 -2 -2 -21 9 -42 25 -42 33
-149 90 -139 75 3 -6 37 -30 74 -55 95 -62 98 -67 73 -115 -21 -42 -164 -192
-182 -192 -8 0 -10 68 -7 236 3 193 6 237 18 244 8 5 68 10 133 10 l117 0 0
-33z m227 -16 c-3 -27 -18 -77 -32 -112 -26 -64 -104 -189 -117 -189 -4 0 -9
9 -13 19 -3 11 -24 36 -46 56 l-40 36 20 81 c12 45 21 99 21 120 l0 38 106 0
107 0 -6 -49z m-727 -230 c0 -25 80 -130 133 -177 l42 -36 -35 7 c-97 20 -208
76 -234 118 -9 15 -4 25 34 61 51 50 60 54 60 27z m534 -48 l29 -34 -22 -23
c-32 -34 -108 -73 -176 -91 -94 -24 -107 -21 -60 17 65 52 120 114 140 157 17
39 18 39 39 24 11 -9 34 -32 50 -50z"/>
<path d="M0 9701 c0 -4 11 -6 24 -4 21 4 26 0 35 -33 15 -52 14 -66 -5 -92
-18 -26 -7 -30 12 -4 18 24 17 93 -2 120 -15 21 -64 32 -64 13z"/>
<path d="M156 9688 c-24 -40 -28 -66 -12 -97 9 -16 22 -33 28 -37 10 -6 10 -4
0 8 -33 41 -19 122 20 116 32 -4 45 -56 25 -98 -11 -21 -12 -30 -4 -27 7 2 18
22 25 44 11 35 11 46 -2 77 -18 43 -57 50 -80 14z"/>
<path d="M319 9688 c-11 -21 -11 -22 4 -10 27 22 37 5 39 -66 1 -61 2 -63 7
-22 13 94 -19 156 -50 98z"/>
<path d="M457 9681 c-9 -16 -17 -39 -17 -51 0 -28 26 -76 45 -84 11 -4 10 2
-6 23 -25 34 -23 98 4 115 25 16 37 -7 37 -74 0 -39 3 -51 10 -40 13 20 13 96
0 121 -16 29 -53 24 -73 -10z"/>
<path d="M611 9684 c-25 -32 -26 -42 -5 -94 22 -55 35 -51 16 4 -19 51 -9 98
21 104 23 5 40 -42 34 -95 -6 -54 -1 -55 13 -3 8 31 7 47 -4 75 -18 43 -46 46
-75 9z"/>
<path d="M754 9679 c-10 -20 -14 -43 -10 -63 7 -37 32 -76 49 -76 7 0 3 7 -7
15 -25 19 -33 102 -13 130 13 16 17 17 31 6 9 -7 17 -28 17 -45 1 -25 3 -26 6
-7 14 70 -41 101 -73 40z"/>
<path d="M910 9691 c-16 -31 -12 -48 6 -23 17 24 49 29 57 10 4 -8 6 -7 6 3 2
32 -53 39 -69 10z"/>
<path d="M1079 9688 c-11 -22 -11 -22 7 -7 10 9 25 14 32 12 6 -3 12 0 12 6 0
20 -39 11 -51 -11z"/>
<path d="M1260 9706 c0 -2 7 -9 15 -16 13 -11 14 -10 9 4 -5 14 -24 23 -24 12z"/>
<path d="M1390 9685 c-13 -14 -21 -27 -18 -30 2 -3 13 4 23 15 23 26 34 25 45
-2 8 -21 9 -20 9 10 1 40 -25 44 -59 7z"/>
<path d="M1580 9675 c7 -9 15 -13 17 -11 7 7 -7 26 -19 26 -6 0 -6 -6 2 -15z"/>
<path d="M1437 9581 c-4 -17 -3 -21 5 -13 5 5 8 16 6 23 -3 8 -7 3 -11 -10z"/>
<path d="M811 9574 c0 -11 3 -14 6 -6 3 7 2 16 -1 19 -3 4 -6 -2 -5 -13z"/>
<path d="M6435 9576 c-64 -20 -99 -42 -139 -86 -58 -64 -69 -99 -74 -238 -4
-119 -5 -122 -28 -128 -51 -13 -54 -30 -54 -282 0 -258 6 -289 61 -317 43 -23
595 -22 627 1 44 31 46 45 43 304 -3 259 -8 290 -50 290 -18 0 -19 11 -23 133
-3 117 -6 138 -28 181 -62 122 -205 183 -335 142z m171 -128 c76 -51 95 -95
95 -219 0 -56 -2 -104 -5 -107 -3 -2 -89 -1 -192 3 l-186 7 4 108 c3 101 5
112 33 152 36 52 103 88 161 88 30 0 55 -9 90 -32z"/>
<path d="M920 9560 c6 -11 16 -20 22 -20 6 0 3 9 -7 20 -10 11 -20 20 -22 20
-2 0 1 -9 7 -20z"/>
<path d="M1080 9571 c0 -6 4 -13 10 -16 6 -3 7 1 4 9 -7 18 -14 21 -14 7z"/>
<path d="M8 9543 c7 -3 16 -2 19 1 4 3 -2 6 -13 5 -11 0 -14 -3 -6 -6z"/>
<path d="M1445 9355 c-333 -182 -559 -273 -879 -354 -65 -17 -122 -33 -125
-37 -11 -11 -5 -608 8 -734 28 -283 91 -508 202 -727 85 -167 139 -248 243
-365 174 -196 389 -352 611 -443 50 -21 95 -42 102 -47 7 -5 14 -31 16 -56 l3
-47 2 52 c2 44 5 53 25 58 59 17 202 83 287 133 398 234 683 593 815 1027 79
261 108 518 103 910 l-3 240 -145 36 c-346 86 -580 184 -981 410 -48 27 -88
49 -90 48 -2 0 -89 -47 -194 -104z m249 -86 c73 -46 385 -200 524 -258 112
-47 309 -109 451 -141 l54 -13 -6 -236 c-13 -506 -72 -787 -224 -1067 -126
-233 -305 -427 -541 -588 -85 -57 -218 -129 -282 -151 -35 -12 -60 -4 -190 58
-198 95 -463 316 -589 494 -107 149 -218 398 -259 578 -44 193 -54 291 -59
613 -5 274 -4 312 10 312 37 0 379 105 480 147 62 26 216 100 342 164 127 65
232 118 236 118 3 1 27 -13 53 -30z"/>
<path d="M1397 9149 c-291 -146 -433 -204 -646 -260 l-164 -44 6 -300 c8 -405
41 -608 135 -832 111 -264 224 -421 424 -590 163 -138 410 -285 480 -286 42 0
263 115 363 190 211 158 370 345 488 571 143 276 200 544 214 1013 l6 227 -39
11 c-21 6 -70 17 -107 26 -104 24 -212 60 -347 115 -138 57 -458 214 -516 254
-21 14 -43 26 -49 25 -5 0 -117 -54 -248 -120z m338 -255 c110 -28 203 -101
251 -195 32 -63 48 -174 41 -279 -4 -47 -4 -102 0 -123 5 -33 9 -37 34 -37 19
0 42 -11 64 -32 l35 -33 3 -362 2 -361 -30 -43 c-17 -24 -46 -52 -65 -64 -34
-19 -48 -20 -440 -18 -256 2 -414 7 -430 13 -14 6 -41 32 -60 57 l-35 46 -2
369 -1 369 25 29 c17 20 38 32 64 36 l39 7 0 126 c0 70 5 154 11 187 42 229
266 368 494 308z"/>
<path d="M1567 8776 c-90 -25 -175 -119 -196 -216 -6 -28 -11 -107 -11 -175
l0 -125 271 0 271 0 -4 168 c-3 160 -4 169 -30 212 -69 117 -183 169 -301 136z"/>
<path d="M1596 8015 c-43 -23 -55 -45 -56 -97 0 -39 6 -54 30 -82 l30 -34 -20
-88 c-11 -49 -22 -97 -24 -106 -3 -15 7 -16 96 -15 l99 2 -6 35 c-4 19 -16 67
-27 107 l-21 72 27 31 c77 92 -25 231 -128 175z"/>
<path d="M8435 9374 c-306 -175 -646 -323 -805 -350 -19 -3 -87 -19 -151 -36
l-116 -30 4 -276 c6 -416 40 -661 128 -927 77 -235 224 -485 385 -658 129
-138 322 -276 520 -372 52 -25 106 -52 119 -59 21 -12 33 -10 103 15 43 16
106 43 140 60 72 36 237 137 257 157 8 7 26 21 40 30 67 43 258 232 307 304
16 24 32 45 35 48 19 16 132 221 171 310 123 282 183 665 176 1140 l-3 235
-165 41 c-91 22 -203 53 -250 68 -151 50 -371 156 -621 302 -69 41 -130 74
-135 73 -5 0 -67 -34 -139 -75z m220 -130 c114 -66 373 -195 485 -242 102 -43
242 -88 384 -123 l89 -22 -6 -276 c-11 -435 -46 -652 -147 -906 -42 -106 -120
-250 -177 -325 -148 -198 -462 -440 -660 -510 l-62 -22 -68 27 c-101 40 -229
110 -313 173 -103 77 -285 261 -352 357 -64 92 -153 266 -192 375 -86 237
-136 603 -136 987 l0 123 28 6 c120 26 346 94 437 131 61 24 220 100 354 169
134 68 246 124 250 124 3 0 42 -21 86 -46z m-495 -2234 c0 -6 -9 -10 -20 -10
-13 0 -20 7 -20 20 0 18 3 19 20 10 11 -6 20 -15 20 -20z m60 -40 c0 -4 11
-12 25 -18 14 -6 25 -17 24 -24 0 -10 -2 -10 -6 0 -9 23 -23 12 -23 -19 0 -24
-3 -30 -16 -25 -9 3 -22 6 -30 6 -8 0 -14 10 -14 23 0 12 -9 29 -20 37 -24 18
-25 29 -3 45 14 10 21 10 40 -2 13 -9 23 -19 23 -23z"/>
<path d="M8545 9251 c-3 -5 -1 -12 5 -16 6 -4 10 -79 10 -199 l0 -193 40 -7
c106 -17 181 -62 234 -139 51 -76 66 -140 66 -279 l0 -118 35 0 c25 0 44 -8
62 -26 l25 -25 -6 -287 c-4 -158 -11 -301 -17 -318 -5 -17 -24 -45 -42 -62
-53 -51 -95 -63 -253 -69 l-144 -6 0 -329 c0 -180 3 -328 6 -328 15 0 185 76
227 101 197 121 393 303 504 469 84 126 185 357 217 500 49 211 81 561 74 803
l-3 119 -114 29 c-275 69 -482 155 -777 325 -110 63 -137 73 -149 55z"/>
<path d="M8560 8704 c-2 -61 1 -389 3 -390 1 -2 53 -6 115 -10 l112 -7 0 124
c0 107 -3 130 -21 164 -40 77 -92 116 -171 130 -33 6 -38 5 -38 -11z"/>
<path d="M8521 8161 c-63 -17 -85 -122 -38 -173 l24 -25 -19 -89 c-26 -129
-32 -119 72 -120 51 -1 90 2 90 8 0 5 -10 52 -22 104 l-21 94 22 31 c13 17 26
49 28 70 5 34 1 43 -30 74 -35 35 -56 40 -106 26z"/>
<path d="M8 9313 c7 -3 16 -2 19 1 4 3 -2 6 -13 5 -11 0 -14 -3 -6 -6z"/>
<path d="M10198 9313 c7 -3 16 -2 19 1 4 3 -2 6 -13 5 -11 0 -14 -3 -6 -6z"/>
<path d="M9492 9280 c0 -14 2 -19 5 -12 2 6 2 18 0 25 -3 6 -5 1 -5 -13z"/>
<path d="M57 9233 c-10 -19 -18 -67 -9 -58 10 11 25 65 18 65 -3 0 -7 -3 -9
-7z"/>
<path d="M61 8954 c0 -11 3 -14 6 -6 3 7 2 16 -1 19 -3 4 -6 -2 -5 -13z"/>
<path d="M70 8834 c0 -14 4 -23 10 -19 6 3 10 15 10 26 0 10 -4 19 -10 19 -5
0 -10 -12 -10 -26z"/>
<path d="M60 8738 c0 -44 14 -78 26 -65 4 3 2 12 -4 20 -6 7 -9 23 -5 35 6 24
19 29 26 10 2 -7 8 -9 13 -5 13 12 -10 42 -35 45 -19 3 -21 -1 -21 -40z"/>
<path d="M62 8547 c-2 -44 -8 -65 -20 -74 -41 -29 -43 -35 -40 -96 l3 -62 57
0 c71 0 98 21 98 75 0 43 -32 90 -61 90 -17 0 -19 7 -19 65 0 83 -14 85 -18 2z
m36 -130 c4 -21 -31 -23 -47 -3 -10 11 -8 15 6 19 27 7 38 2 41 -16z"/>
<path d="M3682 8495 c-60 -17 -104 -38 -119 -57 -6 -8 -7 -35 -2 -73 4 -33 8
-87 10 -120 l2 -60 7 55 7 55 2 -60 3 -60 9 45 c4 25 11 58 13 73 3 16 2 26
-4 22 -23 -14 3 39 33 68 33 30 39 32 110 32 41 0 73 3 71 7 -2 3 37 5 87 3
104 -4 106 4 12 50 -70 34 -163 42 -241 20z"/>
<path d="M5043 8355 c-11 -8 -24 -26 -27 -40 -7 -27 15 -79 36 -88 10 -3 14
-42 16 -157 1 -84 4 -155 7 -158 3 -3 1 -10 -3 -16 -11 -16 -3 -266 9 -266 6
0 9 111 9 297 -1 286 0 297 18 304 24 9 52 47 52 72 0 25 -45 67 -72 67 -13 0
-33 -7 -45 -15z"/>
<path d="M6471 8264 c-18 -15 -31 -35 -31 -49 0 -25 35 -75 53 -75 9 0 12
-128 10 -525 -1 -317 2 -527 8 -530 5 -4 9 -5 9 -3 0 2 3 239 7 528 4 355 9
526 16 529 6 2 21 14 34 27 32 32 30 77 -3 103 -36 28 -66 26 -103 -5z"/>
<path d="M73 8220 c0 -36 2 -50 4 -32 2 17 2 47 0 65 -2 17 -4 3 -4 -33z"/>
<path d="M4000 8173 c0 -4 -95 -8 -210 -7 -118 0 -210 -3 -210 -8 0 -5 -6 -6
-12 -2 -9 5 -10 4 -3 -4 6 -6 21 -12 35 -14 20 -2 26 -11 33 -47 9 -44 26 -71
46 -71 6 0 11 5 11 10 0 6 7 10 15 10 18 0 20 -16 3 -24 -10 -5 -10 -7 0 -12
6 -3 12 -12 12 -20 0 -9 -5 -12 -12 -8 -6 4 -4 -3 5 -16 12 -17 15 -35 10 -66
-5 -35 -2 -44 15 -53 22 -12 83 -10 75 2 -3 5 -17 8 -31 7 -43 -3 -58 0 -47 8
6 4 16 25 22 46 11 34 10 42 -7 64 -24 30 -25 50 -4 80 20 29 55 28 83 -2 24
-25 23 -35 -10 -71 -16 -18 -17 -26 -7 -65 12 -51 28 -75 28 -43 0 16 5 20 20
16 11 -3 20 0 20 6 0 6 14 11 30 11 17 0 30 5 30 10 0 6 -9 10 -20 10 -11 0
-20 5 -20 10 0 6 9 10 20 10 11 0 20 5 20 10 0 6 9 10 20 10 13 0 20 7 20 20
0 11 5 20 10 20 6 0 10 9 10 20 0 13 7 20 20 20 17 0 20 7 20 40 0 25 5 40 13
40 8 0 7 4 -3 10 -12 8 -11 10 7 10 30 0 36 -26 30 -133 -4 -69 -3 -79 3 -42
4 28 9 78 9 111 1 64 -5 74 -49 74 -10 0 -26 7 -34 16 -9 8 -16 12 -16 7z"/>
<path d="M70 8061 c0 -12 6 -21 15 -21 8 0 15 4 15 9 0 5 -7 14 -15 21 -13 10
-15 9 -15 -9z"/>
<path d="M70 7976 c0 -14 5 -26 10 -26 6 0 10 9 10 19 0 11 -4 23 -10 26 -6 4
-10 -5 -10 -19z"/>
<path d="M70 7856 c0 -9 5 -16 10 -16 6 0 10 4 10 9 0 6 -4 13 -10 16 -5 3
-10 -1 -10 -9z"/>
<path d="M6933 7803 c9 -2 23 -2 30 0 6 3 -1 5 -18 5 -16 0 -22 -2 -12 -5z"/>
<path d="M55 7644 c-9 -9 -13 -20 -8 -25 13 -13 68 5 71 24 5 23 -41 23 -63 1z"/>
<path d="M5137 7634 c-151 -33 -212 -70 -337 -200 -66 -69 -91 -104 -112 -154
-15 -36 -39 -94 -53 -130 -15 -36 -38 -101 -51 -145 -25 -80 -135 -425 -153
-479 -9 -26 -6 -24 26 15 20 24 62 70 93 101 l56 57 -4 64 c-6 92 26 151 105
191 99 50 202 -28 203 -153 l0 -44 48 7 c71 10 149 53 217 120 63 64 97 123
119 209 l13 51 26 -41 c14 -22 51 -63 82 -89 134 -116 223 -156 395 -175 83
-10 105 -9 155 6 89 25 146 58 194 110 67 73 86 124 83 225 -2 102 -13 138
-52 175 -16 15 -32 40 -35 56 -9 42 -32 44 -75 5 -42 -38 -118 -60 -172 -49
-50 9 -85 30 -176 102 -88 71 -196 131 -277 156 -75 23 -236 28 -318 9z"/>
<path d="M6958 7543 c-10 -2 -18 -9 -18 -14 0 -14 16 -11 30 6 7 8 11 14 9 14
-2 -1 -12 -3 -21 -6z"/>
<path d="M9889 7455 c-1 -3 -3 -9 -4 -15 -1 -5 -3 -13 -4 -17 -1 -5 -5 -2 -10
5 -6 10 -10 10 -21 -3 -9 -11 -9 -15 -1 -15 7 0 9 -5 5 -12 -4 -7 4 -3 18 10
13 12 25 29 25 37 0 14 -6 21 -8 10z"/>
<path d="M9938 7334 c-33 -17 -37 -50 -8 -59 15 -5 19 -12 15 -26 -8 -24 23
-121 36 -113 5 3 9 26 9 51 0 29 8 58 21 79 16 26 18 37 9 54 -6 11 -15 20
-20 20 -4 0 -14 2 -22 5 -7 2 -25 -2 -40 -11z"/>
<path d="M7030 7331 c0 -5 5 -13 10 -16 6 -3 10 -2 10 4 0 5 -4 13 -10 16 -5
3 -10 2 -10 -4z"/>
<path d="M330 7300 c6 -11 13 -20 16 -20 2 0 0 9 -6 20 -6 11 -13 20 -16 20
-2 0 0 -9 6 -20z"/>
<path d="M17 7293 c-20 -19 12 -103 38 -103 11 0 10 5 -5 20 -19 19 -24 36
-21 73 2 18 -1 21 -12 10z"/>
<path d="M350 7246 c0 -15 -11 -33 -26 -45 -15 -12 -22 -21 -16 -21 19 0 52
43 52 67 0 13 -2 23 -5 23 -3 0 -5 -11 -5 -24z"/>
<path d="M4717 6873 c-13 -12 -7 -22 21 -35 25 -13 27 -18 27 -77 0 -73 19
-94 29 -34 4 21 12 51 18 67 11 26 9 31 -20 57 -31 28 -61 37 -75 22z"/>
<path d="M5324 6709 c-8 -13 -16 -8 102 -62 94 -44 164 -60 164 -37 0 15 -37
36 -120 68 -89 35 -137 45 -146 31z"/>
<path d="M9372 6620 c0 -19 2 -27 5 -17 2 9 2 25 0 35 -3 9 -5 1 -5 -18z"/>
<path d="M290 6601 c-14 -27 -13 -56 4 -70 21 -17 77 -9 90 12 9 15 5 23 -22
48 -38 34 -57 37 -72 10z"/>
<path d="M5360 6545 c0 -26 31 -65 53 -65 17 0 57 29 57 41 0 5 -10 9 -22 9
-13 0 -38 9 -55 20 l-33 20 0 -25z"/>
<path d="M5694 6559 c-6 -11 19 -39 36 -39 11 0 45 28 40 33 -14 13 -69 17
-76 6z"/>
<path d="M1586 6489 c-35 -28 -36 -80 -1 -114 13 -14 28 -25 32 -25 4 0 10
-89 12 -198 2 -108 7 -205 13 -215 8 -16 40 -17 508 -17 304 1 502 5 505 10 4
6 0 10 -7 10 -118 3 -859 -2 -903 -6 -34 -3 -67 -1 -75 5 -12 8 -16 48 -20
212 l-5 201 26 14 c34 17 55 65 40 92 -13 25 -55 52 -79 52 -11 0 -31 -9 -46
-21z"/>
<path d="M2420 6503 c14 -3 43 -8 65 -13 36 -8 38 -7 21 6 -11 8 -39 13 -65
13 -27 -1 -36 -4 -21 -6z"/>
<path d="M8505 6485 c-42 -41 -30 -117 21 -129 18 -5 24 -12 20 -22 -3 -9 -6
-102 -6 -207 l0 -192 -497 3 c-449 3 -594 -1 -580 -14 6 -7 1090 -5 1096 2 3
3 5 99 3 212 l-2 207 32 20 c44 27 50 79 14 118 -31 34 -69 35 -101 2z"/>
<path d="M327 6494 c-4 -4 -7 -28 -6 -53 l1 -46 9 45 c9 48 8 66 -4 54z"/>
<path d="M2358 6493 c6 -2 18 -2 25 0 6 3 1 5 -13 5 -14 0 -19 -2 -12 -5z"/>
<path d="M2469 6463 c0 -11 -3 -13 -6 -5 -2 6 -12 12 -21 12 -14 0 -14 -2 -3
-9 11 -7 7 -12 -15 -24 -16 -8 -41 -17 -56 -21 -16 -3 -28 -10 -28 -15 0 -13
49 -20 53 -7 3 6 14 1 27 -13 l23 -24 19 23 c10 13 18 38 18 61 0 38 -9 56
-11 22z"/>
<path d="M2316 6461 c-8 -12 3 -41 15 -41 6 0 5 8 -1 19 -8 16 -6 20 8 24 15
4 15 5 0 6 -9 0 -19 -3 -22 -8z"/>
<path d="M9362 6440 c-10 -17 -10 -20 2 -20 19 0 31 19 19 31 -5 5 -14 0 -21
-11z"/>
<path d="M259 6327 c5 -5 21 -7 37 -5 27 3 26 4 -8 9 -22 3 -34 1 -29 -4z"/>
<path d="M355 6330 c-28 -7 -28 -8 -5 -9 14 0 32 4 40 9 17 11 8 11 -35 0z"/>
<path d="M2325 6330 l-20 -9 20 0 c11 0 27 4 35 9 13 9 13 10 0 9 -8 0 -24 -4
-35 -9z"/>
<path d="M2433 6333 c9 -2 25 -2 35 0 9 3 1 5 -18 5 -19 0 -27 -2 -17 -5z"/>
<path d="M4706 6261 c3 -46 14 -118 25 -158 20 -80 107 -257 166 -337 l35 -49
44 84 c24 46 50 89 58 94 11 9 -1 22 -59 65 -92 69 -168 156 -204 234 -15 34
-38 81 -50 106 l-21 45 6 -84z"/>
<path d="M9377 6320 c3 -11 7 -20 9 -20 2 0 4 9 4 20 0 11 -4 20 -9 20 -5 0
-7 -9 -4 -20z"/>
<path d="M857 6106 c-4 -10 -5 -21 -2 -24 9 -9 17 6 13 25 -3 17 -4 17 -11 -1z"/>
<path d="M30 6085 c0 -8 6 -15 14 -15 7 0 19 7 26 15 11 13 8 15 -14 15 -16 0
-26 -5 -26 -15z"/>
<path d="M135 6090 c3 -5 17 -10 31 -10 13 0 24 5 24 10 0 6 -14 10 -31 10
-17 0 -28 -4 -24 -10z"/>
<path d="M9623 6088 c2 -7 12 -13 22 -13 10 0 20 6 23 13 2 7 -6 12 -23 12
-17 0 -25 -5 -22 -12z"/>
<path d="M9755 6090 c-3 -5 3 -10 14 -10 12 0 21 5 21 10 0 6 -6 10 -14 10 -8
0 -18 -4 -21 -10z"/>
<path d="M10135 6090 c-4 -6 7 -10 24 -10 17 0 31 5 31 10 0 6 -11 10 -24 10
-14 0 -28 -4 -31 -10z"/>
<path d="M298 6083 c12 -2 30 -2 40 0 9 3 -1 5 -23 4 -22 0 -30 -2 -17 -4z"/>
<path d="M9500 6080 c0 -5 7 -10 15 -10 8 0 15 5 15 10 0 6 -7 10 -15 10 -8 0
-15 -4 -15 -10z"/>
<path d="M9920 6081 c0 -5 9 -7 20 -4 11 3 20 7 20 9 0 2 -9 4 -20 4 -11 0
-20 -4 -20 -9z"/>
<path d="M10033 6083 c9 -2 25 -2 35 0 9 3 1 5 -18 5 -19 0 -27 -2 -17 -5z"/>
<path d="M9347 5975 c7 -50 23 -70 23 -29 0 17 -7 39 -15 50 -13 17 -14 16 -8
-21z"/>
<path d="M3927 5953 c-12 -19 32 -139 75 -204 53 -80 195 -223 271 -273 32
-21 95 -52 140 -69 76 -29 91 -31 212 -32 l130 0 79 38 c82 39 156 104 155
135 0 14 -3 12 -16 -6 -21 -30 -118 -96 -180 -123 -128 -55 -329 -23 -502 80
-156 93 -284 248 -341 415 -9 27 -20 45 -23 39z"/>
<path d="M9350 5800 c0 -60 4 -100 10 -100 6 0 10 40 10 100 0 60 -4 100 -10
100 -6 0 -10 -40 -10 -100z"/>
<path d="M862 5735 c0 -16 2 -22 5 -12 2 9 2 23 0 30 -3 6 -5 -1 -5 -18z"/>
<path d="M210 5643 c-44 -8 -40 -18 8 -20 83 -5 142 -15 142 -24 0 -5 -6 -9
-12 -9 -9 0 -8 -4 2 -10 11 -7 8 -10 -16 -10 -17 0 -37 -7 -44 -15 -11 -14
-10 -14 14 -5 15 5 79 10 142 10 101 0 138 8 102 23 -7 3 2 6 20 6 21 1 32 6
32 16 0 8 -5 15 -12 15 -23 0 3 13 39 20 21 4 -59 8 -177 7 -118 0 -226 -2
-240 -4z"/>
<path d="M870 5634 c28 -13 57 -14 153 -9 65 4 117 8 115 10 -2 1 -70 5 -153
8 -141 6 -148 5 -115 -9z"/>
<path d="M1328 5643 c6 -2 18 -2 25 0 6 3 1 5 -13 5 -14 0 -19 -2 -12 -5z"/>
<path d="M8780 5640 c-25 -3 80 -5 233 -4 153 0 280 4 284 8 8 8 -458 5 -517
-4z"/>
<path d="M1453 5633 c9 -2 23 -2 30 0 6 3 -1 5 -18 5 -16 0 -22 -2 -12 -5z"/>
<path d="M9970 5630 c30 -4 59 -4 63 0 4 4 -21 7 -55 7 l-63 1 55 -8z"/>
<path d="M1500 5627 c0 -4 9 -16 20 -27 11 -11 20 -16 20 -12 0 5 -9 17 -20
27 -11 10 -20 15 -20 12z"/>
<path d="M9138 5563 c18 -2 45 -2 60 0 15 2 0 4 -33 4 -33 0 -45 -2 -27 -4z"/>
<path d="M6505 5520 c10 -11 20 -20 23 -20 3 0 -3 9 -13 20 -10 11 -20 20 -23
20 -3 0 3 -9 13 -20z"/>
<path d="M101 5508 c-1 -16 4 -28 9 -28 12 0 12 8 0 35 -8 18 -9 17 -9 -7z"/>
<path d="M6320 5509 c-7 -11 -10 -23 -7 -25 2 -2 9 7 15 21 14 30 7 33 -8 4z"/>
<path d="M327 5472 c-9 -10 -17 -28 -17 -39 0 -27 37 -73 59 -73 23 0 71 47
70 69 0 12 -2 11 -9 -4 -6 -16 -9 -12 -11 20 -4 38 -6 40 -40 43 -24 2 -40 -3
-52 -16z"/>
<path d="M8875 5458 c-27 -31 -28 -68 -4 -93 7 -7 8 -4 4 7 -6 15 -4 16 18 5
14 -6 23 -15 21 -19 -9 -14 17 -19 33 -6 9 7 19 13 22 13 3 0 5 4 3 9 -5 15
20 56 30 50 15 -10 8 13 -13 40 -30 38 -79 36 -114 -6z"/>
<path d="M6302 5440 c0 -14 2 -19 5 -12 2 6 2 18 0 25 -3 6 -5 1 -5 -13z"/>
<path d="M3031 5306 c4 -4 50 -18 103 -31 205 -51 345 -182 432 -404 34 -88
44 -86 20 5 -40 153 -178 321 -318 388 -62 30 -92 38 -160 43 -45 3 -80 3 -77
-1z"/>
<path d="M110 5271 c0 -6 4 -13 10 -16 6 -3 7 1 4 9 -7 18 -14 21 -14 7z"/>
<path d="M1035 5238 c-209 -5 -453 -5 -542 -2 -141 5 -165 4 -179 -10 -10 -10
-33 -16 -64 -16 -46 0 -76 -13 -45 -20 25 -5 1168 3 1199 8 5 1 6 5 3 9 -4 3
-2 12 5 20 6 7 9 14 7 16 -2 1 -175 -1 -384 -5z"/>
<path d="M9280 5236 c-193 -6 -313 -14 -295 -19 52 -13 573 -20 738 -9 152 10
178 14 164 28 -12 12 -278 12 -607 0z"/>
<path d="M147 5219 c12 -12 25 -20 28 -17 3 3 -7 13 -22 23 l-28 17 22 -23z"/>
<path d="M9918 5233 c7 -3 16 -2 19 1 4 3 -2 6 -13 5 -11 0 -14 -3 -6 -6z"/>
<path d="M9907 5203 c18 -2 50 -2 70 0 21 2 7 4 -32 4 -38 0 -55 -2 -38 -4z"/>
<path d="M6256 5177 c3 -10 9 -15 12 -12 3 3 0 11 -7 18 -10 9 -11 8 -5 -6z"/>
<path d="M6545 5170 c-13 -6 -15 -9 -5 -9 8 0 22 4 30 9 18 12 2 12 -25 0z"/>
<path d="M180 5100 c0 -5 5 -10 10 -10 6 0 10 5 10 10 0 6 -4 10 -10 10 -5 0
-10 -4 -10 -10z"/>
<path d="M8760 5101 c-19 -4 61 -6 179 -5 117 2 216 6 219 9 8 7 -357 4 -398
-4z"/>
<path d="M134 5085 c-10 -8 -14 -15 -8 -15 5 0 19 7 30 15 10 8 14 15 8 15 -5
0 -19 -7 -30 -15z"/>
<path d="M1028 5093 c12 -2 30 -2 40 0 9 3 -1 5 -23 4 -22 0 -30 -2 -17 -4z"/>
<path d="M938 5073 c7 -3 16 -2 19 1 4 3 -2 6 -13 5 -11 0 -14 -3 -6 -6z"/>
<path d="M1303 5053 c15 -2 39 -2 55 0 15 2 2 4 -28 4 -30 0 -43 -2 -27 -4z"/>
<path d="M9918 5050 c18 -4 39 -16 46 -25 11 -15 14 -16 21 -4 5 8 5 11 1 7
-4 -3 -16 2 -27 13 -10 10 -31 19 -46 18 -27 -1 -26 -1 5 -9z"/>
<path d="M101 5014 c0 -11 3 -14 6 -6 3 7 2 16 -1 19 -3 4 -6 -2 -5 -13z"/>
<path d="M9992 4965 c0 -16 2 -22 5 -12 2 9 2 23 0 30 -3 6 -5 -1 -5 -18z"/>
<path d="M332 4967 c-40 -47 -15 -107 44 -107 60 0 81 45 43 94 -22 28 -69 36
-87 13z"/>
<path d="M8876 4949 c-49 -38 -23 -109 40 -109 29 0 57 34 57 70 0 59 -47 78
-97 39z"/>
<path d="M101 4845 c0 -44 4 -89 8 -100 5 -11 7 19 4 70 -6 117 -11 131 -12
30z"/>
<path d="M8495 4806 l-32 -34 -339 -7 c-186 -4 -343 -10 -348 -15 -7 -7 204
-6 601 3 l93 2 9 -28 c19 -52 78 -49 105 7 19 40 10 78 -23 95 -28 15 -30 15
-66 -23z"/>
<path d="M2101 4804 c-12 -15 -21 -31 -21 -35 0 -5 -80 -9 -177 -9 -97 0 -174
-2 -172 -5 3 -2 83 -5 177 -7 l172 -2 27 -28 c34 -36 57 -35 91 1 24 26 35 29
109 34 78 5 83 4 98 -19 21 -32 43 -30 85 7 19 17 30 28 23 24 -7 -3 -21 3
-33 15 -24 24 -47 26 -69 6 -11 -10 -44 -15 -105 -17 -83 -2 -90 0 -97 19 -17
46 -77 55 -108 16z"/>
<path d="M5441 4768 c-2 -100 -76 -446 -150 -701 -17 -56 -55 -194 -85 -307
-92 -339 -208 -730 -252 -844 -4 -11 12 -10 83 6 48 10 144 22 213 25 117 5
130 4 204 -21 177 -60 293 -152 386 -305 49 -82 58 -91 80 -87 14 3 71 16 128
29 l103 23 -96 74 c-121 92 -150 133 -149 210 2 119 78 215 199 253 l70 21
-40 7 c-22 4 -155 13 -295 19 -140 6 -265 13 -277 16 -22 4 -23 9 -23 102 0
53 -7 223 -15 377 -7 154 -17 357 -20 450 -8 229 -33 554 -50 640 l-13 70 -1
-57z"/>
<path d="M1642 4778 c-17 -17 -15 -24 10 -53 20 -23 23 -24 40 -8 24 21 23 50
-1 63 -25 13 -34 13 -49 -2z"/>
<path d="M7660 4750 c0 -5 18 -10 40 -10 22 0 40 5 40 10 0 6 -18 10 -40 10
-22 0 -40 -4 -40 -10z"/>
<path d="M9939 4740 c-31 -23 -178 -34 -632 -46 -246 -6 -325 -15 -179 -19 37
-1 83 -7 102 -13 36 -12 230 -12 230 -1 0 4 25 7 55 7 31 -1 58 2 62 5 3 4 14
2 24 -4 13 -6 32 -6 59 1 22 6 64 9 95 7 30 -2 52 -1 50 3 -3 5 23 11 58 15
77 9 116 28 117 58 0 12 -13 8 -41 -13z"/>
<path d="M1400 4730 c-13 -8 -12 -10 3 -10 9 0 17 5 17 10 0 12 -1 12 -20 0z"/>
<path d="M650 4703 c-162 -2 -278 -7 -284 -13 -7 -7 -2 -10 12 -10 12 0 22 -5
22 -11 0 -8 5 -8 15 1 8 7 15 8 15 3 0 -6 130 -9 353 -8 337 2 463 9 480 25
10 9 -163 21 -263 18 -41 -2 -199 -4 -350 -5z"/>
<path d="M2605 4669 c-4 -6 -5 -12 -2 -15 2 -3 7 2 10 11 7 17 1 20 -8 4z"/>
<path d="M3706 4499 c-20 -85 -46 -190 -57 -234 -11 -44 -38 -142 -60 -219
-22 -76 -38 -140 -36 -142 15 -15 205 706 195 738 -2 5 -21 -59 -42 -143z"/>
<path d="M6524 4546 c1 -44 5 -60 16 -63 10 -3 11 -2 3 4 -6 5 -14 33 -16 63
l-4 55 1 -59z"/>
<path d="M488 4563 c12 -2 30 -2 40 0 9 3 -1 5 -23 4 -22 0 -30 -2 -17 -4z"/>
<path d="M8712 4533 c-24 -24 -24 -25 -2 -8 42 33 44 35 37 35 -4 0 -19 -12
-35 -27z"/>
<path d="M8983 4553 c15 -2 39 -2 55 0 15 2 2 4 -28 4 -30 0 -43 -2 -27 -4z"/>
<path d="M2615 4540 c-3 -6 1 -7 9 -4 18 7 21 14 7 14 -6 0 -13 -4 -16 -10z"/>
<path d="M2547 4493 c3 -8 0 -13 -8 -11 -8 2 -22 -25 -39 -72 -15 -41 -34 -92
-43 -114 -21 -48 -21 -45 8 -79 19 -21 31 -27 48 -22 15 4 18 3 8 -3 -11 -8
-11 -10 0 -15 12 -4 12 -7 0 -18 -12 -12 -13 -12 -6 0 6 11 3 13 -13 9 -16 -4
-22 -2 -22 9 0 9 -6 13 -15 9 -8 -3 -15 -1 -15 5 0 6 -5 7 -10 4 -7 -4 -6 -13
1 -27 8 -15 13 -17 19 -9 5 10 9 9 13 -3 4 -9 -1 -16 -11 -18 -15 -3 -15 -4 1
-11 14 -5 20 -2 24 14 6 22 6 22 25 -2 11 -13 18 -19 15 -14 -6 12 18 36 27
28 3 -4 6 -1 6 5 0 7 -4 12 -10 12 -5 0 -7 7 -4 15 4 10 -2 18 -17 24 -21 8
-22 10 -6 16 11 5 14 11 9 19 -14 18 -22 45 -14 50 4 3 9 -5 9 -16 2 -24 20
-38 40 -31 7 3 13 0 13 -7 0 -6 5 -8 10 -5 6 3 10 12 10 20 0 16 -40 16 -41 0
0 -5 -4 -1 -9 10 -10 26 5 42 25 25 13 -11 14 -10 9 4 -3 9 -11 16 -17 16 -6
0 -3 6 7 13 15 11 11 12 -29 12 -25 -1 -48 2 -51 7 -3 4 8 8 25 8 16 0 31 3
34 8 2 4 2 0 0 -8 -3 -11 1 -10 14 4 14 14 15 20 5 23 -21 8 -62 49 -56 56 4
4 16 1 28 -5 21 -11 21 -11 1 11 -16 19 -17 24 -5 32 8 5 21 7 28 4 6 -2 12 0
12 6 0 6 7 8 16 5 8 -3 13 -2 10 3 -3 5 -19 11 -35 13 -21 3 -28 1 -24 -9z
m-15 -125 c-6 -6 -16 -7 -22 -3 -9 6 -9 9 1 16 17 10 34 0 21 -13z m-7 -64
c-33 -17 -35 -17 -35 -4 0 12 41 30 53 23 5 -3 -4 -11 -18 -19z m-22 -41 c-6
-2 -8 -13 -5 -25 3 -15 1 -19 -7 -14 -6 4 -9 12 -6 17 4 5 -4 9 -17 9 l-23 0
25 14 c14 7 29 10 35 8 5 -3 4 -7 -2 -9z"/>
<path d="M2585 4460 c-3 -5 1 -10 10 -10 9 0 13 5 10 10 -3 6 -8 10 -10 10 -2
0 -7 -4 -10 -10z"/>
<path d="M342 4434 c-26 -18 -30 -69 -6 -102 19 -27 74 -30 97 -4 30 33 31 69
3 96 -29 30 -62 33 -94 10z"/>
<path d="M8893 4420 c-21 -13 -33 -28 -33 -42 0 -20 1 -21 13 -4 12 16 14 16
37 -2 14 -10 33 -21 43 -25 27 -10 20 -35 -10 -40 -27 -4 -26 -4 4 -6 39 -1
63 28 63 76 0 58 -58 80 -117 43z"/>
<path d="M9981 4414 c0 -11 3 -14 6 -6 3 7 2 16 -1 19 -3 4 -6 -2 -5 -13z"/>
<path d="M2540 4406 c0 -2 7 -7 16 -10 8 -3 12 -2 9 4 -6 10 -25 14 -25 6z"/>
<path d="M6348 4323 c7 -3 16 -2 19 1 4 3 -2 6 -13 5 -11 0 -14 -3 -6 -6z"/>
<path d="M6294 4298 l-19 -23 23 19 c12 11 22 21 22 23 0 8 -8 2 -26 -19z"/>
<path d="M8775 4300 c3 -14 8 -34 11 -46 5 -20 1 -21 -78 -27 -46 -4 -379 -11
-741 -17 -717 -11 -693 -9 -736 -69 -23 -32 -87 -167 -131 -276 -16 -38 -58
-134 -94 -213 -36 -78 -66 -145 -66 -148 0 -5 -97 -212 -246 -525 -46 -97 -84
-180 -84 -184 0 -7 -79 -184 -185 -415 -29 -63 -67 -146 -84 -184 -17 -38 -34
-66 -37 -63 -3 3 23 74 59 159 36 84 68 173 72 197 l7 44 -43 -6 c-24 -3 -144
-18 -267 -33 l-223 -28 3 -35 c4 -45 -5 -44 240 -2 229 39 312 39 128 -1 -147
-32 -372 -71 -415 -72 -29 -1 -30 1 -52 82 -26 102 -54 148 -135 233 -96 99
-164 140 -275 164 -54 11 -37 -2 24 -20 96 -28 155 -64 234 -144 77 -78 130
-166 145 -241 6 -32 5 -34 -11 -20 -18 14 -18 14 -3 -10 26 -42 31 -78 11 -83
-10 -3 52 -4 137 -3 109 2 191 9 278 25 102 18 126 20 139 9 13 -11 -9 -16
-138 -35 -97 -14 -176 -20 -214 -17 -71 7 -355 -12 -405 -26 -43 -12 -437 -80
-465 -80 -44 0 7 18 110 39 208 43 390 71 463 71 41 0 72 4 72 10 0 6 -24 10
-53 10 -29 0 -77 7 -107 15 -30 9 -77 18 -105 20 -40 3 -43 2 -15 -3 33 -7 31
-8 -30 -16 -36 -5 -87 -10 -115 -11 -27 -1 -79 -10 -115 -19 -116 -30 -293
-57 -400 -61 -102 -4 -103 -4 -35 6 337 46 385 55 525 94 52 15 118 30 145 34
l50 7 -35 22 c-19 12 -46 22 -59 22 -14 0 -113 -18 -220 -39 -108 -22 -243
-47 -301 -56 -58 -9 -163 -29 -235 -45 -71 -16 -182 -36 -245 -45 -63 -9 -158
-25 -210 -35 -52 -10 -153 -26 -224 -35 -151 -19 -172 -26 -187 -59 -17 -37 7
-76 66 -106 l50 -25 1167 -3 c1265 -3 1188 -6 1548 53 85 13 243 39 350 55
653 102 1030 169 1057 186 12 8 42 56 67 106 l44 93 628 -3 c346 -1 770 -3
942 -5 l312 -2 -2 205 -3 204 -837 -3 c-683 -2 -838 -1 -838 10 0 14 5 24 176
394 58 127 146 318 194 425 48 107 118 256 154 330 36 74 66 147 66 161 0 26
-2 27 -66 31 -70 4 -74 7 -102 73 -10 24 -11 25 -7 5z m-834 -753 c40 -26 68
-96 69 -169 2 -258 -307 -683 -532 -730 -49 -10 -59 -9 -89 8 -56 33 -74 76
-73 174 5 247 223 603 437 710 76 38 139 40 188 7z m763 -827 c0 -32 10 -49
29 -50 10 0 9 38 -3 60 -8 15 -5 19 15 24 31 8 64 -8 67 -32 5 -59 7 -81 14
-109 9 -44 -6 -42 -31 4 -28 51 -47 56 -34 8 6 -20 8 -39 5 -42 -10 -10 -26 9
-26 32 0 38 -15 37 -33 0 -17 -36 -43 -45 -65 -23 -20 20 -13 36 18 43 17 4
30 11 30 16 0 5 -13 12 -30 16 -26 5 -30 10 -30 37 0 39 17 58 50 54 21 -3 25
-8 24 -38z m254 17 c3 -16 -2 -17 -50 -13 -34 3 -41 3 -18 -2 29 -6 36 -12 38
-35 3 -28 2 -29 -30 -22 -31 6 -32 5 -14 -10 11 -8 26 -15 33 -15 7 0 16 -15
21 -32 8 -33 8 -33 -31 -36 -21 -2 -42 -1 -45 3 -3 3 -8 46 -10 96 l-5 90 54
-3 c42 -2 55 -7 57 -21z m192 -32 c0 -56 8 -75 30 -75 21 0 27 13 36 80 8 60
24 56 24 -5 0 -66 -26 -125 -55 -125 -39 0 -65 44 -65 110 0 31 3 60 6 63 14
14 24 -6 24 -48z m221 34 l24 -20 -37 5 c-26 3 -41 0 -52 -13 -38 -41 -3 -96
53 -85 31 7 32 6 20 -20 -18 -39 -61 -36 -93 7 -31 41 -33 79 -5 118 24 35 57
38 90 8z m-271 -21 c-1 -30 -2 -31 -14 -15 -17 23 -49 22 -70 -2 -29 -32 -17
-56 27 -55 20 1 37 -1 37 -3 0 -8 -31 -63 -35 -63 -3 0 -21 17 -40 38 -30 31
-35 42 -31 70 7 50 22 62 77 62 49 0 49 0 49 -32z m347 12 c7 -25 11 -25 40 2
13 12 26 19 29 15 6 -6 -34 -69 -48 -75 -17 -8 -8 -54 12 -59 28 -7 25 -23 -4
-23 -13 0 -31 -3 -39 -6 -12 -4 -14 3 -10 39 4 29 0 54 -11 75 -21 41 -20 52
5 52 12 0 23 -8 26 -20z m-3080 -306 c-3 -3 -12 -4 -19 -1 -8 3 -5 6 6 6 11 1
17 -2 13 -5z m-357 -165 c-25 -4 -65 -7 -90 -7 l-45 1 50 7 c28 4 68 7 90 7
l40 0 -45 -8z m318 -11 c-8 -22 -154 -36 -318 -31 -116 4 -177 1 -243 -10
-118 -22 -144 -9 -31 15 70 14 130 18 279 17 115 -1 200 3 215 9 36 15 103 15
98 0z m-70 -84 c17 -3 32 -8 32 -12 0 -9 -1573 -13 -1820 -4 -177 7 -146 8
326 16 286 5 538 6 560 3 21 -4 100 -3 174 1 144 7 673 5 728 -4z"/>
<path d="M7694 3255 c-56 -24 -79 -60 -80 -128 -1 -47 -10 -81 -37 -144 -35
-80 -35 -81 -14 -87 12 -3 38 -6 57 -6 l36 0 17 92 c14 76 23 98 47 123 82 85
65 189 -26 150z"/>
<path d="M8756 2711 c-3 -5 1 -12 10 -15 20 -8 29 -1 19 13 -8 13 -22 14 -29
2z"/>
<path d="M263 4214 c-17 -18 -16 -29 1 -15 7 6 21 9 30 5 22 -8 21 3 -1 15
-13 6 -22 5 -30 -5z"/>
<path d="M2435 4220 c3 -5 8 -10 11 -10 2 0 4 5 4 10 0 6 -5 10 -11 10 -5 0
-7 -4 -4 -10z"/>
<path d="M733 4183 c20 -2 54 -2 75 0 20 2 3 4 -38 4 -41 0 -58 -2 -37 -4z"/>
<path d="M9208 4183 c6 -2 18 -2 25 0 6 3 1 5 -13 5 -14 0 -19 -2 -12 -5z"/>
<path d="M2573 4162 c1 -14 5 -18 11 -12 7 7 6 14 -1 21 -9 9 -12 7 -10 -9z"/>
<path d="M2607 4159 c4 -13 8 -18 11 -10 2 7 -1 18 -6 23 -8 8 -9 4 -5 -13z"/>
<path d="M2410 4160 c0 -5 5 -10 10 -10 6 0 10 5 10 10 0 6 -4 10 -10 10 -5 0
-10 -4 -10 -10z"/>
<path d="M238 4153 c7 -3 16 -2 19 1 4 3 -2 6 -13 5 -11 0 -14 -3 -6 -6z"/>
<path d="M9352 4115 c0 -11 4 -33 8 -50 l8 -30 0 30 c0 17 -3 39 -8 50 l-9 20
1 -20z"/>
<path d="M2451 4111 c-7 -5 -23 -6 -35 -4 -18 4 -25 -1 -29 -18 -4 -14 -1 -27
6 -31 8 -5 7 -8 -5 -8 -10 0 -18 -7 -18 -16 0 -8 4 -13 9 -10 5 3 11 0 14 -8
4 -10 -1 -12 -16 -9 -18 5 -20 3 -9 -8 14 -15 16 -33 3 -24 -14 8 -30 -27 -46
-98 -7 -34 -29 -123 -49 -197 -19 -74 -37 -148 -40 -165 -3 -16 -10 -50 -16
-75 -6 -24 -9 -53 -7 -62 3 -10 1 -18 -4 -18 -5 0 -9 -7 -9 -16 0 -8 4 -13 8
-10 4 2 8 -4 8 -14 0 -10 -5 -16 -10 -13 -5 4 -7 -1 -3 -10 4 -10 2 -16 -5
-14 -14 3 -36 -92 -38 -168 -3 -76 -2 -83 10 -65 7 12 9 10 7 -7 0 -12 -6 -21
-12 -20 -5 1 -10 -9 -10 -23 0 -15 5 -24 13 -23 6 2 12 -2 12 -7 0 -6 -10 -10
-21 -10 -20 0 -21 -4 -15 -47 3 -27 11 -50 16 -51 6 -2 8 -7 5 -12 -3 -4 3
-14 12 -21 12 -10 14 -10 9 -1 -5 8 0 12 16 12 20 1 19 3 -12 21 -19 11 -26
17 -15 14 34 -12 50 -11 50 4 0 8 7 16 15 18 13 4 13 3 0 -6 -13 -10 -13 -11
0 -11 12 0 12 -2 2 -9 -20 -12 -19 -21 1 -32 9 -6 17 -18 17 -27 0 -14 2 -14
9 -3 11 17 3 43 -10 35 -13 -8 -11 10 3 24 21 21 28 13 24 -28 -4 -44 0 -51
20 -43 11 4 12 8 3 19 -10 12 -9 13 5 8 9 -3 16 -10 16 -15 0 -5 9 -9 21 -9
11 0 17 -4 14 -10 -4 -6 -14 -8 -23 -6 -11 4 -23 -4 -34 -24 -16 -28 -16 -29
2 -35 20 -6 33 -31 25 -45 -3 -5 -12 -7 -20 -3 -8 3 -15 0 -15 -6 0 -6 5 -11
10 -11 6 0 10 -7 10 -15 0 -8 5 -15 10 -15 6 0 10 4 10 9 0 5 10 11 23 13 21
4 22 1 23 -65 1 -68 0 -69 -17 -46 -10 13 -20 21 -24 18 -10 -10 6 -38 25 -44
11 -4 16 -12 13 -24 -6 -25 66 -87 141 -121 118 -53 298 -70 701 -69 160 1
282 3 273 6 -10 2 -18 8 -18 12 0 9 22 31 32 31 15 0 8 -19 -9 -23 -15 -4 -15
-5 -2 -6 9 0 22 6 29 14 9 11 9 15 1 15 -7 0 -9 5 -5 11 4 8 0 9 -15 4 -12 -4
-21 -2 -21 4 0 6 6 11 13 11 6 0 4 5 -5 11 -12 7 -24 6 -38 -1 -11 -6 -20 -7
-19 -3 3 20 -2 24 -16 13 -20 -17 -19 -1 2 22 9 10 11 18 6 18 -6 0 -13 -7
-17 -15 -3 -8 -14 -15 -25 -15 -14 0 -19 5 -14 16 3 8 11 13 18 10 8 -3 16 2
19 10 6 16 -8 18 -34 4 -13 -7 -21 -7 -25 0 -3 5 -1 10 4 10 6 0 11 5 11 12 0
9 -3 9 -12 0 -17 -17 -39 -15 -32 3 4 8 10 13 14 10 5 -3 6 4 3 14 -3 11 -11
22 -18 24 -16 7 -14 -50 3 -80 17 -31 5 -29 -20 2 -19 24 -22 25 -44 10 -13
-8 -27 -15 -31 -15 -4 0 -1 5 7 10 12 7 12 12 2 22 -9 9 -12 9 -12 -1 0 -7 -5
-9 -10 -6 -14 9 -1 27 15 21 14 -5 38 16 30 28 -3 3 1 1 7 -4 10 -9 10 -13 -1
-19 -9 -6 -10 -11 -3 -15 13 -8 36 30 27 44 -9 15 -26 12 -47 -7 -17 -15 -18
-15 -18 0 0 10 5 17 11 17 8 0 8 4 0 13 -6 8 -29 13 -51 13 -25 -1 -42 4 -45
13 -3 8 -8 11 -12 8 -3 -4 1 -17 10 -30 9 -13 12 -29 7 -36 -5 -9 -10 -10 -14
-2 -4 6 -5 15 -2 20 3 4 -7 14 -22 21 -25 12 -26 13 -7 21 13 5 15 8 5 8 -24
1 -36 -12 -35 -41 1 -15 -2 -25 -6 -22 -4 2 -6 19 -5 38 2 25 -1 33 -10 29 -7
-2 -10 -12 -7 -21 4 -13 2 -12 -9 2 -13 17 -13 22 -2 34 20 19 17 24 -6 12
-16 -9 -28 -7 -52 4 -38 19 -41 20 -33 4 4 -7 -1 -4 -10 7 -14 18 -14 20 2 27
17 6 17 7 1 7 -12 1 -16 6 -11 19 5 14 3 13 -10 -3 -13 -17 -18 -18 -29 -6 -8
8 -8 11 -1 7 14 -8 27 10 13 19 -5 3 -17 -3 -27 -14 -16 -19 -19 -19 -40 -6
-12 8 -30 16 -40 18 -19 3 -23 8 -23 33 0 12 7 14 33 10 17 -3 26 -3 20 0 -9
4 -10 11 -4 23 8 14 5 17 -17 18 -15 0 -19 -1 -9 -4 23 -6 22 -23 -3 -23 -11
0 -20 5 -20 10 0 6 -5 10 -11 10 -8 0 -8 -4 0 -14 8 -10 9 -16 1 -21 -5 -3
-10 -3 -10 1 0 3 -11 -1 -25 -10 -14 -9 -25 -12 -25 -6 0 6 10 15 23 20 12 5
20 9 17 10 -30 9 -45 5 -60 -12 -15 -19 -17 -19 -23 -4 -4 11 -3 15 4 10 7 -4
9 0 5 14 -5 14 -1 24 11 31 10 5 14 13 10 18 -5 4 -13 1 -17 -7 -27 -44 -27
-44 -45 -27 -21 22 -24 21 -18 -3 3 -11 0 -20 -6 -20 -6 0 -11 -9 -11 -21 0
-11 -5 -17 -10 -14 -7 4 -6 13 1 27 9 17 7 25 -15 47 -14 14 -26 23 -26 19 0
-4 7 -13 15 -22 14 -13 13 -15 -3 -13 -15 1 -18 8 -15 31 1 16 -2 35 -8 43 -6
7 -8 13 -3 13 5 0 10 17 11 38 2 33 1 34 -8 13 l-9 -24 -23 22 c-13 11 -26 19
-29 16 -3 -3 -8 1 -12 10 -3 9 -2 13 4 10 17 -11 11 11 -8 28 -12 11 -22 13
-32 7 -22 -14 -33 -12 -18 4 7 8 17 11 22 8 5 -3 6 3 2 13 -5 15 -4 16 9 5 13
-11 15 -7 14 34 -2 36 -6 46 -18 44 -11 -2 -17 6 -19 25 -2 15 1 27 7 27 6 0
8 -6 5 -14 -3 -8 -1 -17 5 -21 6 -3 11 1 11 11 0 12 6 15 23 11 19 -5 18 -3
-8 18 -22 18 -32 21 -38 12 -6 -9 -7 -8 -4 3 2 8 12 14 23 13 13 -2 28 11 47
43 35 59 30 67 -7 11 -15 -23 -26 -33 -24 -23 2 12 -5 24 -17 30 -11 6 -21 22
-23 36 -2 24 -2 24 12 5 8 -11 18 -17 22 -13 4 4 1 14 -6 23 -8 10 -9 15 -1
15 6 0 10 11 9 25 -1 14 -8 25 -15 25 -6 0 -16 8 -21 17 -9 16 -12 16 -37 -1
-15 -10 -29 -16 -31 -13 -3 2 10 14 28 26 29 18 34 19 44 6 6 -8 17 -15 25
-15 10 1 9 4 -3 14 -27 20 -22 33 17 52 19 9 32 21 29 26 -4 7 -9 7 -13 0 -3
-6 -18 -9 -34 -9 -28 2 -36 12 -14 20 9 4 8 8 -3 16 -8 5 -11 14 -6 18 5 4 11
2 13 -5 3 -6 8 -10 13 -7 4 3 6 -4 3 -15 -3 -11 -1 -20 5 -20 5 0 9 8 8 18 0
9 5 16 12 14 8 -1 12 3 9 10 -2 7 -11 12 -21 10 -9 -2 -16 2 -16 8 0 6 -5 8
-12 4 -6 -4 -8 -3 -4 4 7 12 46 12 63 0 7 -6 14 -4 19 3 5 8 3 9 -6 4 -10 -6
-12 -4 -7 7 8 21 -3 30 -20 17 -9 -9 -13 -8 -13 0 0 21 5 26 27 26 12 0 25 4
30 8 4 5 2 7 -6 5 -7 -1 -16 3 -19 11 -2 8 0 11 5 8 5 -3 15 -2 22 2 7 5 0 8
-19 9 -26 1 -30 -3 -25 -16 3 -9 3 -13 -1 -9 -4 4 -13 2 -21 -4 -17 -15 -18 7
0 25 13 13 48 30 58 28 4 -1 5 7 2 17 -3 12 -18 22 -40 26 -19 3 -32 9 -29 12
3 3 2 13 -3 22 -6 11 -2 22 11 36 16 17 18 17 13 2 -4 -9 -3 -17 3 -17 6 0 14
9 17 20 4 11 10 18 15 15 4 -3 7 12 7 34 l-2 38 -22 -24 c-13 -13 -23 -28 -23
-33 0 -5 -10 -15 -22 -21 -22 -12 -22 -11 -5 8 9 11 17 28 17 37 0 12 5 16 15
12 18 -6 19 -1 5 24 -9 16 -8 18 6 13 12 -4 15 -3 10 5 -4 7 -14 12 -22 12 -8
0 -12 5 -9 10 4 6 11 8 16 5 13 -8 11 9 -2 22 -7 7 -7 13 -1 17 5 3 15 -1 22
-9 14 -17 40 -20 40 -6 0 6 -4 13 -10 16 -5 3 -10 0 -10 -7 0 -10 -3 -9 -10 2
-5 8 -5 17 -1 20 14 10 21 41 8 39 -37 -5 -47 10 -27 41 9 13 11 13 20 0 8
-13 10 -12 10 3 0 9 5 17 10 17 6 0 8 -11 4 -25 -4 -16 -2 -25 6 -25 7 0 10 7
7 15 -4 8 -1 17 4 21 6 3 1 13 -12 22 -17 12 -26 13 -41 3 -17 -11 -18 -10 -8
9 6 11 16 20 22 20 17 0 4 10 -19 14 -11 3 -25 1 -32 -3z m21 -28 c-5 -10 -7
-24 -4 -32 2 -8 -1 -19 -9 -25 -18 -14 -22 -36 -8 -36 8 0 8 -5 -1 -15 -7 -8
-18 -15 -24 -14 -7 0 -6 2 2 6 21 8 13 25 -10 18 -21 -5 -21 -5 2 9 24 15 24
17 -2 20 -6 0 -13 8 -15 16 -4 12 -2 12 5 2 7 -10 13 -7 25 12 10 14 17 32 17
41 0 8 7 15 15 15 12 0 13 -5 7 -17z m18 -108 c-1 -6 -10 -13 -20 -17 -18 -6
-18 -5 -7 12 12 20 30 23 27 5z m-90 -14 c0 -5 -7 -12 -16 -15 -14 -5 -15 -4
-4 9 14 17 20 19 20 6z m40 -41 c-13 -24 -26 -26 -33 -6 -4 10 -1 13 7 10 8
-3 17 -1 21 5 11 19 16 12 5 -9z m7 -46 c-3 -3 -12 -4 -19 -1 -8 3 -5 6 6 6
11 1 17 -2 13 -5z m-47 -39 c0 -2 -6 -5 -13 -8 -8 -3 -14 1 -14 8 0 7 6 11 14
8 7 -3 13 -6 13 -8z m27 -131 c-3 -3 -12 -4 -19 -1 -8 3 -5 6 6 6 11 1 17 -2
13 -5z m9 -30 c-5 -12 -2 -15 11 -9 35 14 52 14 47 1 -3 -8 -19 -13 -37 -12
-18 1 -38 -4 -45 -11 -7 -7 -19 -13 -25 -13 -7 0 -4 5 6 11 9 5 17 17 17 25 0
8 5 12 10 9 6 -3 10 -1 10 4 0 6 3 11 6 11 3 0 3 -7 0 -16z m-69 -53 c0 -11
-5 -18 -9 -15 -4 3 -5 11 -1 19 7 21 12 19 10 -4z m84 -62 c7 -15 6 -17 -6
-13 -8 4 -15 11 -15 16 0 7 -4 7 -13 0 -10 -8 -13 -6 -13 7 0 23 33 16 47 -10z
m-75 -71 c-9 -12 -16 -17 -16 -10 0 7 -4 10 -10 7 -6 -3 -7 1 -3 10 4 13 8 14
14 4 6 -10 9 -9 15 4 3 10 9 16 11 13 3 -3 -2 -15 -11 -28z m-21 -38 c3 -5 2
-10 -4 -10 -5 0 -13 5 -16 10 -3 6 -2 10 4 10 5 0 13 -4 16 -10z m-25 -20 c0
-5 -5 -10 -11 -10 -5 0 -7 5 -4 10 3 6 8 10 11 10 2 0 4 -4 4 -10z m45 -29
c-6 -5 -25 10 -25 20 0 5 6 4 14 -3 8 -7 12 -15 11 -17z m-45 -45 c0 -2 -8
-10 -17 -17 -16 -13 -17 -12 -4 4 13 16 21 21 21 13z m49 -22 c-11 -14 -10
-16 11 -13 14 2 25 -1 25 -6 0 -6 -9 -9 -20 -8 -11 2 -30 4 -42 5 -23 3 -21
18 3 18 8 0 17 7 21 15 3 9 8 14 11 11 3 -3 -1 -13 -9 -22z m-79 -49 c-7 -8
-17 -12 -23 -8 -6 4 -8 0 -4 -10 6 -17 -4 -23 -16 -11 -10 11 17 44 37 44 15
0 16 -3 6 -15z m90 -78 c0 -4 4 -6 9 -2 5 3 12 1 16 -5 3 -5 -1 -10 -9 -10 -9
0 -16 -5 -16 -12 0 -22 -12 1 -20 39 -8 34 -7 36 6 19 8 -11 14 -24 14 -29z
m-89 -60 c-10 -9 -11 -8 -5 6 3 10 9 15 12 12 3 -3 0 -11 -7 -18z m94 3 c3 -5
1 -10 -4 -10 -6 0 -11 5 -11 10 0 6 2 10 4 10 3 0 8 -4 11 -10z m-95 -84 c0
-2 -9 -6 -20 -9 -11 -3 -18 -1 -14 4 5 9 34 13 34 5z m120 -11 c20 -24 4 -29
-19 -6 -14 14 -17 21 -7 21 7 0 19 -7 26 -15z m-77 -70 c-3 -9 -8 -14 -10 -11
-3 3 -2 9 2 15 9 16 15 13 8 -4z m95 -22 c-4 -14 13 -53 23 -53 14 0 11 -17
-5 -23 -10 -4 -13 -1 -9 9 5 13 -14 20 -41 15 -10 -2 -35 30 -35 44 0 6 4 2
10 -7 5 -10 16 -15 24 -12 8 4 15 1 15 -5 0 -6 5 -11 10 -11 7 0 7 6 0 19 -13
25 -13 31 0 31 6 0 9 -3 8 -7z m-138 -39 c0 -2 -9 0 -20 6 -11 6 -20 13 -20
16 0 2 9 0 20 -6 11 -6 20 -13 20 -16z m-120 -15 c0 -5 -4 -9 -10 -9 -5 0 -10
7 -10 16 0 8 5 12 10 9 6 -3 10 -10 10 -16z m24 -15 c3 -8 2 -12 -4 -9 -6 3
-10 10 -10 16 0 14 7 11 14 -7z m146 0 c0 -8 -19 -13 -24 -6 -3 5 1 9 9 9 8 0
15 -2 15 -3z m51 -12 c-19 -35 -37 -44 -52 -25 -13 15 -12 16 9 11 16 -4 25
-1 32 13 6 10 13 19 16 19 2 0 0 -8 -5 -18z m103 -11 c6 -10 -10 -25 -37 -34
-13 -5 -17 -3 -14 5 2 7 9 12 15 11 6 -2 9 4 6 12 -7 16 21 22 30 6z m-98 -37
c-4 -11 -2 -15 8 -11 11 4 13 1 9 -11 -10 -27 -43 -44 -43 -21 0 5 4 8 9 4 5
-3 12 -1 16 5 3 5 2 10 -4 10 -5 0 -9 9 -8 20 1 11 5 20 10 20 5 0 6 -7 3 -16z
m111 -39 c1 -15 0 -15 -3 -3 -3 9 -13 19 -22 22 -12 3 -12 4 3 3 12 -1 21 -10
22 -22z m-32 -15 c3 -5 1 -10 -4 -10 -6 0 -11 -6 -11 -14 0 -8 -13 -16 -30
-18 -32 -5 -36 -1 -19 22 8 11 12 12 16 3 7 -18 26 -16 20 1 -9 23 15 37 28
16z m-131 -22 c-5 -8 -2 -9 10 -5 14 6 17 3 12 -9 -3 -8 -6 -18 -6 -20 0 -2
-4 -4 -10 -4 -5 0 -10 7 -10 15 0 8 -8 15 -17 15 -15 0 -16 2 -3 10 21 13 33
12 24 -2z m154 -8 c-7 -10 -14 -18 -15 -16 -6 6 9 36 18 36 5 0 4 -9 -3 -20z
m62 -7 c0 -3 -7 -3 -15 1 -15 5 -40 -13 -48 -36 -2 -7 -7 -10 -11 -7 -11 11
42 59 58 53 9 -3 16 -8 16 -11z m75 -14 c11 -17 2 -18 -19 -3 -17 12 -17 14
-4 14 9 0 20 -5 23 -11z m-248 -14 c0 -8 -4 -12 -8 -9 -4 2 -12 -4 -18 -13 -8
-15 -10 -15 -11 -2 0 15 18 39 30 39 4 0 7 -7 7 -15z m206 -20 c-11 -8 -22
-10 -29 -4 -6 5 -15 5 -19 1 -5 -4 -5 -1 -1 6 6 10 11 10 22 1 11 -9 15 -8 20
5 3 9 10 13 16 10 5 -3 1 -12 -9 -19z m307 -49 c0 -2 -7 -6 -15 -10 -8 -3 -15
-1 -15 4 0 6 7 10 15 10 8 0 15 -2 15 -4z m100 -113 c-11 -17 -11 -17 -6 0 3
10 6 24 7 30 0 9 2 9 5 0 3 -7 0 -20 -6 -30z m180 7 c0 -5 -4 -10 -10 -10 -5
0 -10 5 -10 10 0 6 5 10 10 10 6 0 10 -4 10 -10z m-70 -21 c0 -14 -17 -10 -23
5 -4 10 -1 13 9 9 7 -3 14 -9 14 -14z m105 11 c-3 -5 -10 -10 -16 -10 -5 0 -9
5 -9 10 0 6 7 10 16 10 8 0 12 -4 9 -10z m-25 -30 c0 -10 -31 -22 -38 -15 -3
3 0 5 7 5 7 0 11 7 8 14 -4 10 -1 13 9 9 7 -3 14 -9 14 -13z m-373 -36 c-3 -3
-12 -4 -19 -1 -8 3 -5 6 6 6 11 1 17 -2 13 -5z m377 -13 c3 -5 -3 -11 -15 -14
-16 -4 -18 -3 -8 9 13 16 16 17 23 5z m86 -31 c0 -11 -4 -20 -9 -20 -5 0 -7 9
-4 20 3 11 7 20 9 20 2 0 4 -9 4 -20z m-20 6 c0 -2 -7 -9 -15 -16 -13 -11 -14
-10 -9 4 5 14 24 23 24 12z m60 -35 c0 -17 -18 -21 -24 -6 -3 9 0 15 9 15 8 0
15 -4 15 -9z m153 -18 c-9 -27 -50 -63 -70 -62 -14 0 -13 2 5 9 12 5 22 14 22
20 0 10 36 50 45 50 2 0 2 -8 -2 -17z m-70 -35 c-10 -18 -20 -6 -15 19 5 24 6
25 12 8 4 -11 6 -23 3 -27z m22 32 c3 -5 1 -10 -4 -10 -6 0 -11 5 -11 10 0 6
2 10 4 10 3 0 8 -4 11 -10z m-70 -10 c3 -6 -1 -7 -9 -4 -18 7 -21 14 -7 14 6
0 13 -4 16 -10z m15 -40 c0 -5 -5 -10 -11 -10 -5 0 -7 5 -4 10 3 6 8 10 11 10
2 0 4 -4 4 -10z"/>
<path d="M2525 4100 c-3 -5 -1 -10 4 -10 6 0 11 5 11 10 0 6 -2 10 -4 10 -3 0
-8 -4 -11 -10z"/>
<path d="M829 4020 c-9 -5 -22 -23 -29 -39 -14 -35 -1 -68 32 -80 19 -7 20
-16 22 -187 1 -98 5 -185 9 -191 6 -9 41 -13 116 -13 166 0 502 13 496 18 -3
3 -138 5 -299 3 l-294 -3 -7 67 c-4 36 -6 118 -3 180 4 110 5 115 31 135 32
26 35 58 6 94 -21 27 -51 33 -80 16z"/>
<path d="M9339 3997 c-53 -27 -56 -88 -5 -117 23 -13 29 -13 53 0 16 9 29 24
31 34 11 55 -36 104 -79 83z"/>
<path d="M2533 3988 c3 -9 1 -18 -6 -21 -6 -2 -4 -6 5 -10 13 -4 16 -1 13 15
-3 11 -7 23 -11 27 -4 3 -4 -2 -1 -11z"/>
<path d="M2547 3926 c-4 -10 -1 -13 9 -9 15 6 19 23 5 23 -5 0 -11 -7 -14 -14z"/>
<path d="M2601 3914 c0 -11 3 -14 6 -6 3 7 2 16 -1 19 -3 4 -6 -2 -5 -13z"/>
<path d="M2500 3886 c4 -4 16 -4 26 2 16 9 14 10 -8 9 -15 -1 -23 -6 -18 -11z"/>
<path d="M3541 3874 c0 -11 3 -14 6 -6 3 7 2 16 -1 19 -3 4 -6 -2 -5 -13z"/>
<path d="M9357 3843 c-12 -11 -8 -713 3 -713 6 0 10 127 10 360 0 198 -1 360
-3 360 -2 0 -7 -3 -10 -7z"/>
<path d="M2540 3831 c0 -6 4 -13 10 -16 6 -3 7 1 4 9 -7 18 -14 21 -14 7z"/>
<path d="M2523 3802 c1 -14 5 -18 11 -12 7 7 6 14 -1 21 -9 9 -12 7 -10 -9z"/>
<path d="M3521 3804 c0 -11 3 -14 6 -6 3 7 2 16 -1 19 -3 4 -6 -2 -5 -13z"/>
<path d="M2450 3732 c0 -7 5 -10 10 -7 6 3 10 2 10 -3 0 -6 7 -13 16 -16 9 -3
12 -2 9 5 -4 5 -2 15 4 22 8 10 3 13 -20 12 -17 0 -29 -5 -29 -13z"/>
<path d="M3481 3664 c0 -11 3 -14 6 -6 3 7 2 16 -1 19 -3 4 -6 -2 -5 -13z"/>
<path d="M3440 3522 c-38 -136 -45 -168 -30 -132 16 37 72 241 67 246 -2 2
-18 -49 -37 -114z"/>
<path d="M200 3598 c-53 -28 -98 -82 -111 -134 -4 -22 -9 -73 -9 -114 0 -79
-4 -93 -33 -103 -15 -6 -17 -24 -19 -149 -4 -251 -6 -237 30 -269 l32 -29 198
1 c200 1 249 6 244 27 -1 7 3 11 10 10 35 -8 60 123 41 213 l-8 34 -6 -45 c-6
-43 -6 -42 -7 18 -1 40 2 61 8 57 6 -3 10 0 10 9 0 8 -6 17 -12 20 -10 5 -10
7 0 12 13 6 16 51 6 78 -3 9 -16 16 -29 16 -22 0 -23 4 -27 108 -5 111 -17
151 -62 200 -58 64 -173 82 -256 40z m178 -92 c51 -33 73 -90 70 -178 l-3 -73
-142 -3 -143 -3 0 87 c0 96 16 142 57 170 58 37 104 38 161 0z m-63 -366 c3
-6 -4 -10 -17 -10 -18 0 -20 2 -8 10 19 12 18 12 25 0z m-5 -151 c0 -33 -4
-59 -10 -59 -6 0 -10 29 -10 66 0 41 4 63 10 59 6 -3 10 -33 10 -66z m263 -97
c-3 -14 -11 -18 -29 -14 -30 6 -31 19 -1 25 12 2 25 5 29 6 3 0 4 -7 1 -17z
m-106 -68 c-3 -3 -12 -4 -19 -1 -8 3 -5 6 6 6 11 1 17 -2 13 -5z"/>
<path d="M1520 3446 c0 -51 3 -108 7 -127 12 -62 21 -1 15 104 l-5 97 229 1
c126 1 283 5 349 8 84 5 13 8 -237 9 l-358 2 0 -94z"/>
<path d="M8743 3533 c26 -2 68 -2 95 0 26 2 4 3 -48 3 -52 0 -74 -1 -47 -3z"/>
<path d="M9158 3523 c18 -2 45 -2 60 0 15 2 0 4 -33 4 -33 0 -45 -2 -27 -4z"/>
<path d="M2447 3404 c6 -15 23 -19 23 -5 0 5 -7 11 -14 14 -10 4 -13 1 -9 -9z"/>
<path d="M3346 3335 c-9 -26 -7 -32 5 -12 6 10 9 21 6 23 -2 3 -7 -2 -11 -11z"/>
<path d="M9640 3306 c0 -2 7 -7 16 -10 8 -3 12 -2 9 4 -6 10 -25 14 -25 6z"/>
<path d="M3331 3274 c0 -11 3 -14 6 -6 3 7 2 16 -1 19 -3 4 -6 -2 -5 -13z"/>
<path d="M1508 3264 c-51 -27 -46 -101 7 -126 23 -10 29 -8 60 22 39 38 44 59
18 82 -37 32 -57 37 -85 22z"/>
<path d="M3312 3213 c-15 -48 -8 -55 8 -8 7 20 10 38 8 41 -3 2 -10 -13 -16
-33z"/>
<path d="M3026 3129 c-52 -12 -166 -67 -166 -81 0 -6 7 -7 18 -3 140 57 151
59 327 59 159 1 175 -1 248 -26 52 -19 115 -30 194 -37 114 -10 156 -9 91 2
-273 47 -340 59 -380 72 -27 8 -48 11 -48 8 0 -4 -5 -2 -12 5 -14 14 -212 15
-272 1z"/>
<path d="M9306 3079 c-14 -17 -26 -39 -26 -49 0 -19 46 -80 60 -80 5 0 22 12
39 26 37 31 41 69 10 108 -27 34 -51 33 -83 -5z"/>
<path d="M2475 3080 c4 -6 11 -8 16 -5 14 9 11 15 -7 15 -8 0 -12 -5 -9 -10z"/>
<path d="M2450 3066 c0 -2 7 -7 16 -10 8 -3 12 -2 9 4 -6 10 -25 14 -25 6z"/>
<path d="M2496 3038 c-15 -18 -16 -20 -2 -15 9 4 16 2 16 -3 0 -6 5 -10 11
-10 8 0 7 5 -2 16 -10 13 -10 17 2 25 8 5 9 9 4 9 -6 0 -19 -10 -29 -22z"/>
<path d="M2457 3007 c-8 -20 1 -27 35 -27 17 0 27 4 23 10 -4 6 -11 8 -16 4
-6 -3 -16 2 -23 11 -11 16 -14 16 -19 2z"/>
<path d="M6540 2997 c0 -4 11 -30 25 -57 14 -28 29 -67 34 -87 l8 -38 8 28 c5
19 2 40 -9 66 -18 38 -65 102 -66 88z"/>
<path d="M4043 2973 c9 -2 23 -2 30 0 6 3 -1 5 -18 5 -16 0 -22 -2 -12 -5z"/>
<path d="M2484 2958 c-6 -9 12 -28 26 -28 12 0 31 18 24 22 -25 14 -44 16 -50
6z"/>
<path d="M6417 2949 c32 -35 70 -124 90 -209 17 -71 18 -73 21 -34 2 23 -6 64
-17 95 -26 70 -82 161 -101 167 -10 3 -8 -3 7 -19z"/>
<path d="M2610 2950 c0 -5 5 -10 11 -10 5 0 7 5 4 10 -3 6 -8 10 -11 10 -2 0
-4 -4 -4 -10z"/>
<path d="M2581 2934 c0 -11 3 -14 6 -6 3 7 2 16 -1 19 -3 4 -6 -2 -5 -13z"/>
<path d="M2550 2901 c0 -6 5 -11 10 -11 6 0 10 -5 10 -11 0 -6 -6 -9 -13 -6
-7 3 -13 -3 -14 -14 -2 -16 1 -17 18 -6 23 14 24 30 4 47 -10 9 -15 9 -15 1z"/>
<path d="M6137 2903 c-2 -5 0 -21 4 -38 11 -37 109 -147 109 -123 0 34 81 52
109 26 8 -7 3 7 -10 31 -34 61 -68 82 -145 89 -35 2 -61 9 -58 13 3 5 3 9 0 9
-3 0 -7 -3 -9 -7z"/>
<path d="M4516 2837 c-47 -101 -57 -152 -63 -319 -5 -135 -4 -158 9 -158 12 0
16 27 21 148 4 81 13 176 22 211 18 75 62 161 82 161 8 0 11 5 8 10 -3 6 -16
10 -28 10 -17 0 -28 -14 -51 -63z"/>
<path d="M4671 2849 c-17 -17 -31 -35 -31 -41 0 -6 1 -9 3 -7 1 2 18 21 36 42
42 45 35 50 -8 6z"/>
<path d="M2660 2860 c-9 -6 -10 -10 -3 -10 6 0 15 5 18 10 8 12 4 12 -15 0z"/>
<path d="M2573 2835 c-6 -6 -8 -18 -3 -24 5 -9 9 -5 13 10 7 28 6 31 -10 14z"/>
<path d="M2620 2800 c0 -5 7 -7 15 -4 8 4 15 8 15 10 0 2 -7 4 -15 4 -8 0 -15
-4 -15 -10z"/>
<path d="M2180 2794 c0 -3 13 -23 29 -43 15 -20 45 -63 66 -96 37 -60 60 -85
78 -85 5 0 7 6 4 14 -3 8 -1 17 6 20 9 3 9 5 0 5 -6 1 -15 -3 -18 -9 -8 -13
-25 -13 -25 0 0 5 11 12 25 16 14 3 25 10 25 15 0 6 -10 5 -21 -2 -18 -9 -25
-7 -43 13 -26 30 -31 49 -14 60 8 6 2 7 -17 3 -16 -4 -27 -4 -23 0 4 4 -4 19
-18 34 -13 14 -27 34 -30 44 -5 16 -24 25 -24 11z"/>
<path d="M1452 2749 c-165 -27 -295 -159 -323 -327 -5 -31 -9 -108 -9 -169 l0
-113 -31 0 c-22 0 -41 -10 -66 -35 l-35 -35 4 -333 3 -334 30 -48 c53 -86 37
-83 485 -87 448 -3 430 -6 470 77 21 43 21 55 18 383 -3 381 -3 378 -77 401
l-41 12 6 97 c8 127 -8 247 -42 313 -76 150 -224 225 -392 198z m152 -143 c47
-19 104 -72 129 -120 19 -36 22 -60 25 -193 l4 -153 -258 0 -257 0 6 128 c4
95 10 141 26 182 23 62 86 130 141 154 44 19 140 20 184 2z"/>
<path d="M5312 2755 c4 -5 46 -20 93 -36 114 -36 167 -73 282 -192 67 -71 87
-87 63 -54 -96 136 -214 233 -315 262 -68 19 -132 29 -123 20z"/>
<path d="M2787 2709 c7 -7 15 -10 18 -7 3 3 -2 9 -12 12 -14 6 -15 5 -6 -5z"/>
<path d="M2830 2700 c0 -4 7 -13 15 -20 12 -10 15 -10 15 3 0 8 6 17 13 20 6
2 0 4 -15 4 -16 0 -28 -3 -28 -7z"/>
<path d="M2970 2695 c-7 -9 -11 -17 -9 -20 3 -2 10 5 17 15 14 24 10 26 -8 5z"/>
<path d="M5220 2674 c0 -5 28 -15 62 -21 124 -24 277 -121 354 -225 71 -97
113 -118 56 -27 -59 91 -234 224 -336 254 -68 21 -136 30 -136 19z"/>
<path d="M2988 2653 c-25 -6 -22 -18 7 -31 15 -7 25 -8 25 -2 0 6 -5 10 -11
10 -6 0 -9 7 -5 15 3 8 4 14 3 14 -1 -1 -10 -3 -19 -6z"/>
<path d="M3261 2574 c0 -11 3 -14 6 -6 3 7 2 16 -1 19 -3 4 -6 -2 -5 -13z"/>
<path d="M3380 2530 c0 -6 7 -10 15 -10 8 0 15 2 15 4 0 2 -7 6 -15 10 -8 3
-15 1 -15 -4z"/>
<path d="M3560 2450 c0 -5 5 -10 11 -10 5 0 7 5 4 10 -3 6 -8 10 -11 10 -2 0
-4 -4 -4 -10z"/>
<path d="M3450 2426 c0 -9 5 -16 10 -16 6 0 10 4 10 9 0 6 -4 13 -10 16 -5 3
-10 -1 -10 -9z"/>
<path d="M3508 2433 c7 -3 16 -2 19 1 4 3 -2 6 -13 5 -11 0 -14 -3 -6 -6z"/>
<path d="M3545 2419 c-4 -6 -5 -12 -2 -15 2 -3 7 2 10 11 7 17 1 20 -8 4z"/>
<path d="M3787 2399 c12 -12 24 -21 27 -18 2 2 -8 13 -22 23 l-27 19 22 -24z"/>
<path d="M3567 2395 c-4 -9 1 -11 14 -8 26 7 32 19 9 20 -10 1 -21 -4 -23 -12z"/>
<path d="M4015 2400 c-3 -6 1 -7 9 -4 18 7 21 14 7 14 -6 0 -13 -4 -16 -10z"/>
<path d="M3520 2390 c0 -5 5 -10 11 -10 5 0 7 5 4 10 -3 6 -8 10 -11 10 -2 0
-4 -4 -4 -10z"/>
<path d="M3620 2396 c0 -2 7 -7 16 -10 8 -3 12 -2 9 4 -6 10 -25 14 -25 6z"/>
<path d="M3730 2390 c0 -5 5 -10 11 -10 5 0 7 5 4 10 -3 6 -8 10 -11 10 -2 0
-4 -4 -4 -10z"/>
<path d="M3722 2364 c10 -10 20 -16 22 -13 3 3 -5 11 -17 18 -21 13 -21 12 -5
-5z"/>
<path d="M3846 2368 c3 -5 10 -6 15 -3 13 9 11 12 -6 12 -8 0 -12 -4 -9 -9z"/>
<path d="M3547 2353 c5 -12 8 -13 11 -5 3 9 8 10 17 2 9 -8 14 -7 18 2 3 8 -6
14 -24 15 -22 2 -27 -1 -22 -14z"/>
<path d="M3606 2325 c-15 -23 -15 -25 -1 -25 9 0 13 5 9 11 -4 7 0 9 14 5 40
-13 62 -15 62 -5 0 5 -9 10 -20 10 -11 1 -24 3 -30 4 -5 1 -13 3 -17 4 -5 1
-1 6 7 11 8 5 10 10 4 10 -7 0 -19 -11 -28 -25z"/>
<path d="M5418 2343 c6 -2 18 -2 25 0 6 3 1 5 -13 5 -14 0 -19 -2 -12 -5z"/>
<path d="M5368 2333 c6 -2 18 -2 25 0 6 3 1 5 -13 5 -14 0 -19 -2 -12 -5z"/>
<path d="M3526 2315 c-4 -11 2 -15 23 -15 16 0 31 7 35 15 4 11 -2 15 -23 15
-16 0 -31 -7 -35 -15z"/>
<path d="M3700 2310 c0 -5 5 -10 11 -10 5 0 7 5 4 10 -3 6 -8 10 -11 10 -2 0
-4 -4 -4 -10z"/>
<path d="M3775 2310 c3 -5 20 -10 36 -10 18 0 28 4 24 10 -3 6 -20 10 -36 10
-18 0 -28 -4 -24 -10z"/>
<path d="M9788 2283 c7 -3 16 -2 19 1 4 3 -2 6 -13 5 -11 0 -14 -3 -6 -6z"/>
<path d="M8665 2170 c-176 -3 -308 -7 -292 -8 32 -4 -37 -4 800 -1 386 1 634
5 572 9 -124 8 -600 8 -1080 0z"/>
<path d="M9068 2063 c34 -2 88 -2 120 0 31 2 3 3 -63 3 -66 0 -92 -1 -57 -3z"/>
<path d="M9323 2063 c37 -2 97 -2 135 0 37 2 6 3 -68 3 -74 0 -105 -1 -67 -3z"/>
<path d="M9620 2063 c108 -7 230 -7 230 0 0 4 -62 6 -137 5 -76 -1 -118 -3
-93 -5z"/>
<path d="M8085 1952 c-1 -1 -1281 -4 -2843 -5 -1562 -1 -2844 -5 -2848 -9 -4
-5 -4 -11 0 -15 4 -5 637 -8 1407 -8 l1399 0 0 -262 c0 -151 4 -264 9 -268 6
-3 9 97 9 255 -1 143 2 264 6 268 4 4 690 9 1524 12 1140 4 1522 8 1537 17 16
9 1 12 -88 15 -60 2 -110 2 -112 0z"/>
<path d="M8530 1849 c-58 -3 216 -6 609 -7 393 -1 712 1 709 4 -8 7 -1182 11
-1318 3z"/>
<path d="M8350 1753 c0 -5 133 -9 295 -10 179 -1 295 2 295 8 0 5 -117 9 -295
9 -162 0 -295 -3 -295 -7z"/>
<path d="M9035 1750 c3 -5 38 -10 76 -10 44 0 68 4 64 10 -3 6 -38 10 -76 10
-44 0 -68 -4 -64 -10z"/>
<path d="M9491 1751 c-13 -3 64 -7 173 -8 120 -1 194 2 191 8 -7 10 -326 11
-364 0z"/>
<path d="M4287 1644 c-14 -14 -7 -25 13 -22 12 2 21 8 21 13 0 12 -24 18 -34
9z"/>
<path d="M4390 1635 c0 -8 9 -15 20 -15 11 0 20 7 20 15 0 8 -9 15 -20 15 -11
0 -20 -7 -20 -15z"/>
<path d="M4500 1635 c0 -8 7 -15 16 -15 8 0 12 5 9 10 -3 6 -2 10 4 10 5 0 12
-6 14 -12 3 -8 6 -6 6 5 1 12 -7 17 -24 17 -16 0 -25 -6 -25 -15z"/>
<path d="M4610 1636 c0 -19 45 -22 56 -4 5 8 2 9 -11 5 -9 -4 -24 -2 -31 4
-11 9 -14 8 -14 -5z"/>
<path d="M9693 1643 c26 -2 67 -2 90 0 23 2 2 3 -48 3 -49 0 -68 -1 -42 -3z"/>
<path d="M4688 1633 c6 -2 18 -2 25 0 6 3 1 5 -13 5 -14 0 -19 -2 -12 -5z"/>
<path d="M8410 1529 c72 -7 1446 -12 1439 -5 -2 3 -342 6 -754 8 -413 2 -721
0 -685 -3z"/>
<path d="M6320 1468 c-69 -11 -170 -58 -228 -105 -49 -40 -120 -143 -146 -213
-63 -168 -16 -359 124 -502 92 -93 170 -129 296 -136 75 -4 105 -1 162 17 138
42 254 150 315 294 51 121 48 266 -8 392 -76 172 -310 287 -515 253z m231
-126 c99 -42 151 -88 189 -165 52 -107 56 -198 13 -337 -13 -44 -31 -69 -87
-126 -68 -68 -75 -72 -156 -94 -155 -41 -280 -9 -383 99 -95 99 -125 191 -107
321 18 130 86 238 188 297 60 35 93 42 187 39 64 -1 95 -8 156 -34z"/>
<path d="M6252 1114 c-17 -12 -22 -25 -22 -62 0 -53 11 -73 80 -147 26 -28 53
-68 60 -90 19 -59 21 -60 40 -18 9 21 39 65 66 98 62 77 84 120 84 167 0 66
-77 92 -126 43 l-25 -26 -30 26 c-36 29 -92 34 -127 9z"/>
<path d="M8556 1432 c-5 -8 195 -4 203 4 2 2 -41 4 -97 4 -55 0 -103 -4 -106
-8z"/>
<path d="M8383 1423 c26 -2 68 -2 95 0 26 2 4 3 -48 3 -52 0 -74 -1 -47 -3z"/>
<path d="M2702 1379 c-47 -14 -118 -86 -131 -134 -6 -22 -11 -76 -11 -120 l0
-81 -32 -9 -33 -10 -3 -130 c-4 -199 17 -262 101 -308 37 -19 57 -22 173 -22
128 0 132 1 180 30 32 20 58 47 74 75 23 42 24 54 25 205 l0 160 -26 3 c-26 3
-26 5 -32 99 -8 117 -32 172 -95 217 -33 23 -55 30 -100 32 -31 2 -72 -1 -90
-7z m134 -85 c55 -26 78 -75 77 -162 -1 -41 -4 -77 -7 -80 -3 -3 -64 -7 -136
-10 l-130 -5 0 87 c0 96 12 131 57 165 34 25 92 27 139 5z m-32 -405 c15 -23
12 -43 -12 -71 -15 -17 -13 -70 3 -110 6 -15 1 -18 -29 -18 -33 0 -36 2 -26
19 14 28 12 83 -5 105 -20 26 -19 55 2 78 22 24 48 23 67 -3z"/>
<path d="M8350 1320 c0 -6 42 -9 108 -9 97 2 102 3 47 9 -89 11 -155 11 -155
0z"/>
<path d="M9726 1321 c10 -11 114 -19 114 -10 0 10 -40 19 -84 19 -24 0 -36 -4
-30 -9z"/>
<path d="M8648 1313 c6 -2 18 -2 25 0 6 3 1 5 -13 5 -14 0 -19 -2 -12 -5z"/>
<path d="M8828 1313 c39 -2 105 -2 145 0 39 1 7 3 -73 3 -80 0 -112 -2 -72 -3z"/>
<path d="M9208 1313 c7 -3 16 -2 19 1 4 3 -2 6 -13 5 -11 0 -14 -3 -6 -6z"/>
<path d="M9322 1313 c48 -2 129 -2 180 0 51 1 12 3 -87 3 -99 0 -141 -2 -93
-3z"/>
<path d="M279 1208 c-25 -41 -19 -102 15 -136 l23 -24 23 32 c24 34 29 85 10
121 -26 48 -44 50 -71 7z m65 -26 c11 -38 -8 -116 -27 -109 -17 5 -37 48 -37
80 0 68 46 89 64 29z"/>
<path d="M141 1204 c-25 -32 -27 -64 -6 -104 22 -43 25 -37 7 17 -14 40 -14
49 -1 72 21 37 42 32 55 -14 9 -32 13 -36 19 -22 5 12 1 28 -12 45 -27 36 -38
37 -62 6z"/>
<path d="M45 1182 c10 -21 14 -46 11 -65 -5 -29 -5 -30 5 -10 13 25 7 59 -16
88 -14 18 -14 17 0 -13z"/>
<path d="M4073 1163 c9 -2 25 -2 35 0 9 3 1 5 -18 5 -19 0 -27 -2 -17 -5z"/>
<path d="M4816 1162 c-2 -4 11 -6 30 -4 19 2 34 6 34 8 0 8 -59 4 -64 -4z"/>
<path d="M200 1109 c0 -5 5 -7 10 -4 6 3 10 8 10 11 0 2 -4 4 -10 4 -5 0 -10
-5 -10 -11z"/>
<path d="M4183 1113 c9 -2 23 -2 30 0 6 3 -1 5 -18 5 -16 0 -22 -2 -12 -5z"/>
<path d="M4388 1113 c7 -3 16 -2 19 1 4 3 -2 6 -13 5 -11 0 -14 -3 -6 -6z"/>
<path d="M4773 1080 c0 -25 2 -35 4 -22 2 12 2 32 0 45 -2 12 -4 2 -4 -23z"/>
<path d="M4811 1104 c0 -11 3 -14 6 -6 3 7 2 16 -1 19 -3 4 -6 -2 -5 -13z"/>
<path d="M8395 1097 c-79 -44 -131 -142 -118 -222 8 -56 25 -86 73 -129 51
-46 77 -56 143 -56 91 0 181 75 208 172 22 82 -20 179 -99 229 -60 38 -146 41
-207 6z m168 -79 c50 -35 65 -51 76 -81 25 -66 5 -131 -52 -166 -40 -24 -136
-29 -177 -8 -56 28 -79 149 -40 212 39 64 134 85 193 43z"/>
<path d="M8431 971 c-10 -7 -11 -13 -1 -31 15 -27 18 -118 6 -144 -7 -15 -6
-17 4 -11 7 5 36 9 64 9 50 1 51 2 54 33 5 47 -16 111 -41 127 -31 20 -69 28
-86 17z"/>
<path d="M4339 1093 c-13 -17 -13 -17 6 -3 11 8 22 16 24 17 2 2 0 3 -6 3 -6
0 -17 -8 -24 -17z"/>
<path d="M4878 1103 c6 -2 18 -2 25 0 6 3 1 5 -13 5 -14 0 -19 -2 -12 -5z"/>
<path d="M4943 1103 c-18 -6 -16 -23 2 -23 18 0 20 -39 3 -41 -7 -1 -21 -1
-30 0 -10 1 -18 -3 -18 -9 0 -7 -7 -10 -15 -6 -8 3 -15 1 -15 -4 0 -16 53 -12
78 6 14 10 22 26 22 44 0 31 -8 40 -27 33z"/>
<path d="M4306 1065 c-9 -26 -7 -32 5 -12 6 10 9 21 6 23 -2 3 -7 -2 -11 -11z"/>
<path d="M3522 1054 c-26 -18 -27 -34 -7 -73 19 -38 44 -46 67 -24 59 60 8
145 -60 97z"/>
<path d="M9046 1050 c-20 -7 -20 -7 0 -12 10 -3 27 -9 37 -13 10 -4 17 -3 17
4 0 16 -33 29 -54 21z"/>
<path d="M4980 990 c-13 -8 -11 -13 9 -32 14 -13 19 -15 12 -6 -7 10 -11 25
-7 33 6 18 6 18 -14 5z"/>
<path d="M4093 973 c9 -2 25 -2 35 0 9 3 1 5 -18 5 -19 0 -27 -2 -17 -5z"/>
<path d="M9768 973 c18 -2 45 -2 60 0 15 2 0 4 -33 4 -33 0 -45 -2 -27 -4z"/>
<path d="M4230 953 c0 -32 10 -53 26 -53 11 0 11 5 2 28 -17 39 -28 49 -28 25z"/>
<path d="M5530 960 c-8 -5 -12 -12 -8 -15 9 -9 78 5 78 16 0 12 -51 11 -70 -1z"/>
<path d="M5630 960 c-11 -7 4 -10 48 -10 40 0 61 4 57 10 -8 13 -85 13 -105 0z"/>
<path d="M5772 958 c5 -15 52 -23 76 -13 15 6 15 8 -3 15 -32 14 -77 12 -73
-2z"/>
<path d="M4920 950 c0 -5 5 -10 11 -10 5 0 7 5 4 10 -3 6 -8 10 -11 10 -2 0
-4 -4 -4 -10z"/>
<path d="M3650 895 c-19 -20 -48 -40 -65 -44 -16 -5 -22 -10 -12 -10 28 -2 73
26 97 59 28 40 22 38 -20 -5z"/>
<path d="M9041 904 c0 -11 3 -14 6 -6 3 7 2 16 -1 19 -3 4 -6 -2 -5 -13z"/>
<path d="M4530 897 c0 -9 10 -22 23 -28 l22 -12 -20 24 c-11 13 -21 26 -22 28
-2 2 -3 -3 -3 -12z"/>
<path d="M3444 891 c7 -11 46 -35 46 -28 0 3 -12 12 -26 22 -15 9 -23 12 -20
6z"/>
<path d="M4741 877 c-13 -21 -12 -21 5 -5 10 10 16 20 13 22 -3 3 -11 -5 -18
-17z"/>
<path d="M9004 892 c-11 -7 -12 -47 -1 -58 12 -12 27 8 27 37 0 29 -6 35 -26
21z"/>
<path d="M1514 868 c3 -13 6 -52 6 -87 0 -46 3 -62 11 -54 13 13 1 163 -14
163 -5 0 -7 -10 -3 -22z"/>
<path d="M9050 868 c0 -9 5 -20 10 -23 13 -8 13 5 0 25 -8 13 -10 13 -10 -2z"/>
<path d="M4143 833 c15 -2 37 -2 50 0 12 2 0 4 -28 4 -27 0 -38 -2 -22 -4z"/>
<path d="M4368 833 c7 -3 16 -2 19 1 4 3 -2 6 -13 5 -11 0 -14 -3 -6 -6z"/>
<path d="M4418 833 c7 -3 16 -2 19 1 4 3 -2 6 -13 5 -11 0 -14 -3 -6 -6z"/>
<path d="M8876 787 c3 -10 9 -15 12 -12 3 3 0 11 -7 18 -10 9 -11 8 -5 -6z"/>
<path d="M8915 740 c3 -5 18 -10 33 -10 21 0 24 2 12 10 -20 13 -53 13 -45 0z"/>
<path d="M1493 685 c-66 -28 -46 -117 29 -123 82 -7 103 110 23 132 -11 3 -34
-1 -52 -9z"/>
<path d="M0 660 c0 -5 7 -7 15 -4 19 8 19 14 0 14 -8 0 -15 -4 -15 -10z"/>
<path d="M61 624 c0 -11 3 -14 6 -6 3 7 2 16 -1 19 -3 4 -6 -2 -5 -13z"/>
<path d="M357 571 c-4 -17 -3 -21 5 -13 5 5 8 16 6 23 -3 8 -7 3 -11 -10z"/>
<path d="M925 570 c-16 -7 -12 -9 18 -9 23 -1 36 3 32 9 -7 12 -23 12 -50 0z"/>
<path d="M1055 571 c-7 -12 31 -25 45 -16 6 4 8 11 5 16 -8 12 -42 12 -50 0z"/>
<path d="M1190 570 c0 -5 9 -10 20 -10 11 0 20 5 20 10 0 6 -9 10 -20 10 -11
0 -20 -4 -20 -10z"/>
<path d="M1353 563 c9 -2 23 -2 30 0 6 3 -1 5 -18 5 -16 0 -22 -2 -12 -5z"/>
<path d="M1923 563 c9 -2 25 -2 35 0 9 3 1 5 -18 5 -19 0 -27 -2 -17 -5z"/>
<path d="M2073 563 c9 -2 25 -2 35 0 9 3 1 5 -18 5 -19 0 -27 -2 -17 -5z"/>
</g>
</svg>
