<?xml version="1.0" standalone="no"?>
<!DOCTYPE svg PUBLIC "-//W3C//DTD SVG 20010904//EN"
 "http://www.w3.org/TR/2001/REC-SVG-20010904/DTD/svg10.dtd">
<svg version="1.0" xmlns="http://www.w3.org/2000/svg"
 width="1024.000000pt" height="1024.000000pt" viewBox="0 0 1024.000000 1024.000000"
 preserveAspectRatio="xMidYMid meet">

<g transform="translate(0.000000,1024.000000) scale(0.100000,-0.100000)"
fill="#000000" stroke="none">
<path d="M4268 8948 l-3 -683 -23 -3 c-12 -2 -20 -8 -17 -13 8 -12 1632 -12
1639 0 7 11 -28 21 -73 21 l-33 0 6 43 c7 53 8 104 7 525 l-1 343 -72 -3 -73
-3 2 -452 2 -453 -252 0 c-155 0 -246 4 -238 9 12 8 15 63 18 313 3 179 0 309
-5 317 -7 10 -24 12 -71 6 l-61 -7 -1 -206 c0 -114 0 -258 1 -319 l1 -113 -28
-1 c-66 -3 -247 2 -251 6 -3 3 17 5 45 5 35 0 53 5 56 14 3 8 9 58 13 111 l7
97 38 -4 c22 -2 39 0 39 4 0 5 -26 9 -57 9 -32 1 -50 3 -40 6 15 4 17 19 17
133 0 144 4 135 -80 165 -37 13 -41 13 -50 -5 -6 -11 -11 -126 -12 -279 l-1
-261 -79 0 -78 0 0 193 c0 105 -4 187 -8 181 -7 -11 -95 -64 -106 -64 -3 0 -7
15 -7 33 -1 23 -4 17 -11 -23 -5 -30 -7 -115 -6 -188 3 -150 6 -147 -82 -140
l-42 3 1 683 c2 610 0 682 -13 682 -14 0 -16 -74 -18 -682z m579 -474 c-3 -3
-12 -4 -19 -1 -8 3 -5 6 6 6 11 1 17 -2 13 -5z m0 -66 c-2 -13 -4 -5 -4 17 -1
22 1 32 4 23 2 -10 2 -28 0 -40z"/>
<path d="M4926 9575 c4 -8 8 -15 10 -15 2 0 4 7 4 15 0 8 -4 15 -10 15 -5 0
-7 -7 -4 -15z"/>
<path d="M5228 9538 c5 -95 9 -104 11 -25 0 42 -2 77 -6 77 -5 0 -7 -24 -5
-52z"/>
<path d="M5532 9560 c0 -19 2 -27 5 -17 2 9 2 25 0 35 -3 9 -5 1 -5 -18z"/>
<path d="M5694 9556 c-17 -8 -41 -28 -55 -46 -28 -38 -52 -62 -221 -228 -121
-119 -126 -123 -174 -127 -38 -3 -54 -10 -69 -30 -13 -15 -25 -22 -30 -16 -6
4 -47 28 -93 51 l-82 42 -24 -25 c-13 -14 -26 -32 -29 -39 -4 -11 -7 -10 -15
1 -8 11 -16 11 -46 1 -31 -10 -38 -18 -48 -56 -7 -24 -16 -44 -21 -44 -4 0 -6
-4 -2 -10 3 -5 -27 -46 -67 -91 -40 -45 -83 -94 -96 -109 -20 -26 -27 -28 -92
-27 -38 1 -72 -2 -75 -5 -3 -3 -8 -21 -12 -41 -4 -29 -2 -37 18 -50 13 -8 43
-17 66 -20 42 -5 42 -4 64 40 24 50 250 289 287 304 12 5 28 21 35 36 14 31
66 82 84 83 29 0 164 -71 191 -101 27 -30 32 -32 55 -22 15 7 35 29 46 50 11
21 91 109 179 197 l160 159 50 1 c80 3 125 55 94 109 -18 30 -32 33 -78 13z"/>
<path d="M8309 9523 c-35 -80 -78 -213 -69 -213 5 0 11 13 15 30 8 37 9 37 70
41 48 3 51 2 74 -34 13 -20 26 -36 28 -34 1 2 -15 51 -37 110 -22 58 -40 112
-40 121 0 35 -22 24 -41 -21z m46 -75 l12 -48 -44 0 c-50 0 -50 0 -10 88 16
36 22 42 25 27 3 -11 10 -41 17 -67z"/>
<path d="M9580 9461 l-35 -109 -22 76 c-12 42 -24 89 -27 105 -4 15 -10 27
-15 27 -5 0 -2 -24 5 -52 7 -29 22 -88 32 -131 21 -82 29 -99 36 -76 2 8 17
57 32 109 l28 94 17 -69 c20 -83 38 -135 48 -135 7 0 44 146 57 225 15 89 -21
-15 -56 -160 l-7 -30 -11 40 c-7 22 -17 75 -24 118 -7 42 -15 77 -18 77 -3 0
-21 -49 -40 -109z"/>
<path d="M8038 9435 l3 -125 47 0 c53 0 79 17 111 70 25 41 26 71 6 110 -25
48 -62 70 -119 70 l-51 0 3 -125z m122 76 c35 -26 45 -69 27 -113 -18 -43 -50
-66 -97 -70 l-35 -3 -3 109 -3 109 43 -7 c24 -4 54 -15 68 -25z"/>
<path d="M8420 9551 c0 -14 37 -23 60 -16 19 6 20 2 20 -104 0 -67 4 -111 10
-111 6 0 10 44 10 111 l0 111 35 -4 c24 -3 35 0 35 9 0 10 -22 13 -85 13 -47
0 -85 -4 -85 -9z"/>
<path d="M8667 9543 c-2 -10 -25 -66 -50 -125 -25 -60 -42 -108 -37 -108 5 0
16 13 25 30 15 29 23 33 92 44 29 5 33 3 44 -32 14 -46 29 -63 29 -34 0 26
-81 242 -90 242 -4 0 -10 -8 -13 -17z m53 -129 c0 -7 -19 -14 -45 -16 -25 -2
-45 0 -45 3 0 4 10 30 22 59 l22 52 22 -43 c13 -24 23 -49 24 -55z"/>
<path d="M8900 9440 c0 -73 4 -120 10 -120 6 0 10 22 10 49 l0 49 50 7 c28 4
50 10 50 14 0 5 -22 6 -50 3 l-50 -5 0 52 0 51 60 0 c33 0 60 4 60 10 0 6 -30
10 -70 10 l-70 0 0 -120z"/>
<path d="M9080 9555 c-3 -5 -4 -63 -2 -127 l3 -118 65 0 c36 0 64 4 64 10 0 6
-27 10 -60 10 l-59 0 -3 118 c-2 64 -5 113 -8 107z"/>
<path d="M9268 9520 c-39 -38 -40 -42 -36 -91 9 -88 67 -141 133 -119 86 28
112 145 49 220 -21 24 -33 30 -66 30 -34 0 -47 -7 -80 -40z m141 -6 c25 -32
28 -101 7 -142 -32 -62 -106 -69 -143 -13 -54 80 -12 181 76 181 31 0 44 -6
60 -26z"/>
<path d="M949 9453 c-65 -55 -77 -132 -28 -188 37 -42 66 -45 104 -9 34 31 27
41 -14 20 -39 -21 -47 -20 -71 4 -34 34 -21 122 24 159 13 11 20 9 43 -9 26
-20 28 -21 32 -4 3 17 -31 54 -49 54 -5 0 -23 -12 -41 -27z"/>
<path d="M1216 9465 c-3 -9 -6 -50 -6 -91 0 -86 -11 -114 -43 -114 -38 0 -47
19 -47 95 0 76 -7 115 -21 115 -5 0 -9 -42 -9 -93 0 -90 1 -94 29 -121 35 -34
66 -32 94 6 16 21 22 48 25 113 4 83 -7 129 -22 90z"/>
<path d="M6953 9469 c-38 -11 -69 -48 -83 -100 -12 -44 -43 -75 -262 -263 -81
-69 -150 -131 -154 -137 -4 -6 -19 3 -38 24 -77 84 -198 43 -213 -73 -10 -75
38 -140 104 -140 61 0 129 51 139 106 5 25 24 48 82 96 42 35 140 120 219 189
l142 126 75 -5 c74 -4 75 -4 108 28 l32 33 146 -37 c80 -19 164 -39 186 -42
39 -6 42 -9 48 -45 13 -81 94 -130 170 -104 49 17 75 41 97 90 23 49 23 68 3
111 -21 44 -70 74 -123 74 -52 0 -78 -12 -116 -57 l-31 -35 -187 45 c-176 43
-189 48 -221 81 -18 20 -40 36 -49 36 -8 0 -21 2 -29 4 -7 2 -27 0 -45 -5z"/>
<path d="M574 9444 c-27 -40 -9 -73 53 -104 52 -25 64 -45 41 -68 -16 -16 -43
-15 -58 3 -16 19 -40 20 -40 1 0 -18 18 -32 53 -40 21 -5 33 -1 52 18 43 43
33 70 -45 119 -23 15 -36 32 -38 50 -3 25 0 27 30 27 19 0 39 -5 46 -12 9 -9
12 -9 12 0 0 15 -33 32 -64 32 -16 0 -32 -9 -42 -26z"/>
<path d="M1274 9433 c3 -21 6 -75 6 -121 0 -91 14 -103 25 -21 6 44 10 50 28
47 19 -3 35 -21 73 -84 7 -11 15 -16 18 -13 4 4 -7 29 -23 57 -17 27 -31 52
-31 55 0 3 10 7 23 9 17 2 23 10 25 40 4 48 -24 68 -97 68 l-54 0 7 -37z m104
-2 c8 -4 12 -19 10 -32 -2 -20 -9 -24 -45 -27 -42 -3 -43 -2 -43 27 0 16 6 32
13 34 19 8 51 7 65 -2z"/>
<path d="M740 9366 c0 -52 -3 -101 -6 -110 -5 -14 4 -16 60 -16 50 0 66 3 66
14 0 10 -10 14 -37 11 -53 -4 -63 3 -63 41 0 32 1 33 47 36 66 4 70 28 4 28
-50 0 -51 1 -51 30 0 30 1 30 55 30 42 0 55 3 55 15 0 12 -14 15 -65 15 l-65
0 0 -94z"/>
<path d="M1458 9363 c6 -117 10 -123 77 -123 67 0 73 18 8 22 l-48 3 -3 43 -3
42 53 2 53 1 -55 6 c-53 6 -55 7 -58 39 l-3 32 60 0 c33 0 63 5 66 10 4 6 -23
10 -73 10 l-78 0 4 -87z"/>
<path d="M10078 9423 c28 -4 32 -8 32 -33 0 -31 -23 -60 -47 -60 -9 0 -14 -3
-10 -6 3 -3 19 -3 36 1 29 6 31 9 31 56 l0 49 -37 -2 c-37 -1 -37 -1 -5 -5z"/>
<path d="M9950 9384 c0 -17 51 -64 68 -63 13 0 12 2 -4 9 -12 4 -31 21 -43 36
-11 14 -21 23 -21 18z"/>
<path d="M4918 9322 c-4 -12 -2 -24 2 -27 13 -8 18 8 10 29 -6 19 -7 19 -12
-2z"/>
<path d="M230 9320 c0 -5 5 -10 10 -10 6 0 10 5 10 10 0 6 -4 10 -10 10 -5 0
-10 -4 -10 -10z"/>
<path d="M420 9315 c0 -8 4 -15 9 -15 5 0 11 7 15 15 3 9 0 15 -9 15 -8 0 -15
-7 -15 -15z"/>
<path d="M4490 9310 l-135 -5 136 -5 c75 -3 149 -3 165 1 l29 5 -30 5 c-16 2
-91 2 -165 -1z"/>
<path d="M328 9303 c7 -3 16 -2 19 1 4 3 -2 6 -13 5 -11 0 -14 -3 -6 -6z"/>
<path d="M4743 9303 c15 -2 39 -2 55 0 15 2 2 4 -28 4 -30 0 -43 -2 -27 -4z"/>
<path d="M5827 9303 c-4 -3 -7 -11 -7 -17 0 -6 5 -5 12 2 6 6 9 14 7 17 -3 3
-9 2 -12 -2z"/>
<path d="M2369 9285 c-77 -21 -137 -56 -190 -112 -68 -72 -100 -144 -106 -244
-5 -69 -2 -91 22 -164 47 -146 104 -203 250 -250 78 -26 89 -27 142 -16 130
26 249 106 298 201 56 110 69 221 36 314 -50 144 -163 241 -319 275 -63 13
-73 13 -133 -4z m156 -30 c77 -20 135 -54 135 -78 0 -14 5 -17 20 -12 13 4 20
2 20 -7 0 -7 12 -24 26 -37 14 -14 36 -45 48 -70 25 -50 53 -147 44 -156 -2
-3 -19 -2 -35 1 -27 5 -33 13 -44 53 -24 91 -78 178 -110 178 -9 0 -53 17 -97
39 -77 37 -81 41 -82 72 0 37 -2 37 75 17z m-95 -23 c0 -23 -6 -30 -36 -41
-20 -7 -57 -23 -83 -34 -25 -12 -50 -20 -54 -19 -10 3 -40 -65 -61 -138 -19
-63 -7 -56 18 12 28 75 91 134 181 168 24 9 25 8 25 -33 l0 -43 -52 -15 c-29
-8 -60 -14 -68 -14 -31 -1 -58 -35 -27 -35 7 0 23 -7 35 -16 22 -15 22 -17 8
-40 -9 -13 -16 -39 -16 -59 l0 -35 -60 2 c-57 2 -60 3 -61 27 0 26 0 26 -11 4
-8 -17 -20 -23 -45 -23 -39 0 -41 13 -19 95 20 75 38 104 109 171 66 63 123
92 185 93 29 1 32 -2 32 -27z m118 -88 c50 -30 61 -49 39 -72 -15 -15 -20 -14
-54 5 -21 11 -50 23 -65 27 -28 6 -35 26 -22 61 8 21 42 14 102 -21z m109 -77
c24 -36 53 -117 53 -147 0 -15 -7 -20 -28 -20 -24 0 -29 7 -50 63 -33 88 -36
105 -22 122 17 21 22 19 47 -18z m-243 10 c-11 -29 15 -66 59 -85 34 -15 45
-26 50 -49 8 -42 -14 -130 -37 -145 -23 -16 -38 -8 -34 17 l5 25 -23 -25 c-13
-14 -29 -25 -37 -25 -8 0 -19 -6 -25 -13 -8 -10 -5 -13 16 -12 21 0 28 -5 30
-22 3 -20 -1 -23 -27 -23 -34 0 -51 22 -51 67 0 16 -7 38 -15 49 -17 22 -20
106 -5 135 8 14 21 19 55 19 73 0 55 23 -25 32 -40 5 -29 31 20 49 25 9 46 17
47 18 1 1 0 -5 -3 -12z m99 -13 c45 -23 66 -44 88 -86 34 -67 35 -110 3 -173
-37 -73 -49 -82 -112 -91 l-54 -7 4 29 c3 25 8 29 36 32 24 2 38 -2 48 -15 7
-10 14 -13 14 -6 0 6 -6 18 -14 25 -12 12 -12 18 0 39 7 13 13 34 14 47 0 19
5 22 36 22 21 0 33 4 29 10 -3 6 -17 10 -31 10 -22 0 -24 4 -24 43 0 55 -6 62
-65 79 -39 10 -51 19 -53 36 -3 18 1 22 23 22 14 0 40 -7 58 -16z m-355 -196
c5 -7 15 -33 22 -58 6 -25 23 -65 37 -89 26 -45 22 -60 -18 -61 -34 0 -84 91
-95 174 -6 44 -6 46 18 46 14 0 30 -6 36 -12z m78 -9 c3 -5 16 -6 29 -3 19 5
27 0 40 -26 19 -36 14 -58 -20 -90 l-25 -23 -25 23 c-25 23 -45 75 -45 117 0
16 5 20 20 16 11 -3 23 -9 26 -14z m474 -3 c0 -30 -35 -111 -69 -156 -14 -19
-27 -37 -28 -39 -2 -3 -14 6 -28 19 -25 24 -27 42 -2 22 10 -9 14 -9 15 1 0 6
13 49 29 94 26 76 30 82 56 83 22 0 27 -4 27 -24z m97 -15 c-6 -48 -53 -154
-78 -177 -10 -9 -16 -21 -13 -26 3 -4 2 -7 -3 -6 -4 2 -24 -9 -43 -24 -42 -32
-131 -73 -177 -83 -32 -6 -33 -6 -33 29 0 28 4 36 18 36 9 0 41 11 70 25 30
14 62 25 72 25 10 0 20 6 23 13 4 10 7 10 18 0 7 -7 17 -13 23 -13 5 0 2 6 -8
13 -18 13 -18 16 6 58 22 37 49 104 64 157 2 6 18 12 35 12 31 0 32 -1 26 -39z
m-452 -127 c13 -8 32 -15 42 -14 40 5 43 0 43 -50 0 -27 -4 -50 -8 -50 -17 0
-125 40 -138 51 -21 17 -17 46 8 63 27 19 24 19 53 0z m215 -31 l22 -28 -39
-17 c-50 -23 -108 -24 -99 -2 3 9 6 22 6 30 0 13 50 41 77 43 6 1 21 -11 33
-26z m-205 -79 c63 -18 65 -20 65 -51 0 -26 -4 -33 -20 -33 -34 0 -144 49
-184 82 l-38 31 33 16 c32 15 35 15 56 -5 13 -12 53 -30 88 -40z"/>
<path d="M2412 8930 c-16 -52 -15 -67 4 -74 49 -19 64 14 34 73 -11 23 -21 41
-23 41 -1 0 -8 -18 -15 -40z"/>
<path d="M3217 9276 c-124 -51 -179 -110 -216 -231 -31 -101 -34 -139 -16
-202 39 -134 101 -215 197 -258 107 -48 148 -55 222 -38 63 14 159 64 204 106
35 33 80 134 93 209 11 69 1 155 -22 188 -9 12 -9 11 -4 -5 4 -11 10 -41 12
-67 l6 -48 -65 0 -65 0 6 -32 c3 -20 6 -26 9 -15 2 9 10 17 18 18 49 4 94 3
94 -1 0 -3 -7 -33 -15 -68 -18 -75 -44 -128 -79 -161 l-26 -24 -22 20 c-21 18
-26 19 -53 6 l-30 -13 31 5 c22 4 35 1 48 -14 17 -19 17 -20 -25 -41 -23 -12
-71 -30 -106 -40 l-63 -17 0 38 c0 31 4 38 23 42 l22 4 -22 2 c-13 0 -23 7
-23 14 0 6 -3 21 -6 32 -5 18 2 21 73 33 70 11 79 11 90 -4 11 -16 14 -16 38
0 26 17 34 9 13 -12 -8 -8 -8 -12 -1 -12 15 0 55 97 50 123 -3 17 -5 16 -6 -6
-1 -28 -49 -87 -70 -87 -6 0 -20 15 -31 33 -26 43 -63 87 -73 87 -4 0 4 -20
19 -45 14 -25 24 -48 22 -50 -3 -3 -32 -8 -64 -11 l-60 -6 -11 48 -10 49 -2
-54 -1 -54 -61 7 c-89 10 -95 14 -67 43 12 13 38 33 56 45 45 28 35 33 -19 9
-24 -11 -47 -17 -51 -15 -4 3 -8 -7 -8 -21 0 -39 -30 -29 -57 20 -12 22 -23
37 -23 33 0 -15 38 -94 51 -104 8 -6 48 -16 89 -23 101 -17 100 -17 100 -45 0
-20 -6 -25 -32 -29 l-33 -4 33 -1 c30 -2 32 -4 32 -41 0 -39 0 -39 -32 -31
-80 19 -178 69 -178 90 0 14 33 28 50 22 13 -5 13 -3 1 12 -13 15 -16 15 -38
0 -24 -15 -26 -14 -55 18 -35 38 -73 117 -82 171 l-7 37 40 0 c29 0 41 -5 44
-17 4 -16 5 -16 6 -1 1 14 13 17 77 17 83 0 106 7 56 17 -26 5 -32 12 -33 33
l-1 26 -7 -25 c-5 -20 -14 -26 -44 -28 -26 -2 -37 1 -37 11 0 28 31 116 48
137 l19 23 21 -23 c16 -18 19 -27 11 -47 -14 -38 -10 -51 7 -20 18 33 21 33
53 5 14 -13 1 5 -28 40 -43 50 -51 65 -41 77 16 20 92 55 118 55 19 0 22 -6
22 -40 0 -38 -1 -40 -32 -41 -63 -1 -68 -14 -5 -15 34 0 76 -3 92 -7 25 -5 23
-3 -9 10 -36 16 -38 19 -32 51 3 19 7 36 9 38 2 2 18 -1 37 -6 19 -5 36 -8 38
-6 2 3 -14 10 -37 17 -37 11 -41 15 -41 46 0 28 3 33 24 33 32 0 146 -36 170
-53 17 -13 16 -16 -24 -62 -23 -26 -48 -58 -57 -71 -8 -13 -22 -24 -29 -24
-17 0 -18 -32 -2 -48 17 -17 28 -15 28 7 0 10 10 26 23 35 l22 17 -25 -12
c-22 -10 -20 -7 11 27 20 22 46 54 58 72 12 17 29 32 37 32 8 0 29 -22 46 -50
17 -27 33 -50 35 -50 7 0 -40 79 -58 99 -50 53 -200 111 -285 111 -22 0 -65
-11 -97 -24z m97 -12 c3 -9 6 -27 6 -40 0 -19 -5 -24 -24 -24 -13 0 -50 -14
-82 -31 -46 -24 -63 -28 -76 -20 -25 16 -30 14 -17 -7 9 -15 6 -35 -15 -98
-14 -43 -26 -87 -26 -97 0 -14 -9 -17 -45 -17 -52 0 -52 2 -29 81 42 142 98
207 215 249 66 24 85 25 93 4z"/>
<path d="M5172 9294 c8 -7 88 -8 95 0 4 3 -18 6 -47 6 -29 0 -51 -3 -48 -6z"/>
<path d="M133 9198 c-6 -13 -18 -44 -28 -71 -9 -26 -21 -45 -26 -41 -5 3 -9
30 -9 60 0 51 -19 79 -21 32 -1 -13 -3 -34 -4 -48 -2 -15 7 -34 25 -52 75 -75
184 8 134 101 -23 43 -55 52 -71 19z"/>
<path d="M9575 9160 c16 -17 31 -26 33 -21 4 13 -16 35 -43 45 -15 6 -13 0 10
-24z"/>
<path d="M9420 9160 c0 -13 11 -13 30 0 12 8 11 10 -7 10 -13 0 -23 -4 -23
-10z"/>
<path d="M3457 9149 c7 -7 15 -10 18 -7 3 3 -2 9 -12 12 -14 6 -15 5 -6 -5z"/>
<path d="M9620 9111 c0 -5 5 -13 10 -16 6 -3 10 -2 10 4 0 5 -4 13 -10 16 -5
3 -10 2 -10 -4z"/>
<path d="M3270 9046 c0 -10 28 -13 41 -5 10 6 7 9 -13 9 -16 0 -28 -2 -28 -4z"/>
<path d="M4620 9040 c0 -5 5 -10 11 -10 5 0 7 5 4 10 -3 6 -8 10 -11 10 -2 0
-4 -4 -4 -10z"/>
<path d="M9630 9020 c0 -35 4 -36 35 -11 l24 18 -25 12 c-34 15 -34 15 -34
-19z"/>
<path d="M5451 9030 c-5 -21 -7 -46 -9 -116 -2 -53 -5 -62 -23 -67 -11 -3 -23
-15 -26 -26 -8 -31 -70 -30 -76 2 -2 12 -5 -53 -6 -145 l-1 -168 -47 0 c-25 0
-43 -3 -39 -7 4 -4 24 -6 45 -4 l38 2 7 -47 c3 -26 6 -75 6 -109 l0 -62 70 -2
70 -2 0 105 0 106 52 0 c28 0 48 3 44 7 -3 4 -26 6 -51 4 l-45 -2 -3 273 c-1
150 -4 266 -6 258z"/>
<path d="M36 9012 c-8 -13 19 -57 34 -57 27 0 23 40 -4 53 -14 6 -27 8 -30 4z"/>
<path d="M3350 9000 c0 -23 -33 -60 -54 -60 -9 0 -12 9 -10 28 l4 27 -10 -29
c-5 -16 -15 -33 -22 -37 -9 -6 -6 -9 10 -9 12 0 22 -4 22 -10 0 -5 7 -10 15
-10 9 0 18 -7 22 -17 5 -14 8 -13 15 7 7 18 11 20 23 10 12 -10 15 -9 15 4 0
13 12 16 65 16 51 0 65 -3 65 -15 0 -17 19 -21 22 -5 4 31 1 35 -27 36 -16 0
-54 1 -82 2 l-53 2 0 40 c0 22 -4 40 -10 40 -5 0 -10 -9 -10 -20z"/>
<path d="M8137 9013 c-4 -3 -7 -15 -7 -25 0 -26 24 -17 28 10 3 21 -8 29 -21
15z"/>
<path d="M9733 9003 c-7 -3 -13 -8 -13 -13 0 -11 28 -21 34 -12 7 12 -8 29
-21 25z"/>
<path d="M9844 9000 c-27 -11 -51 -48 -59 -93 -9 -49 23 -120 67 -147 48 -29
118 -27 156 5 60 50 66 162 12 217 -25 25 -35 28 -92 27 -35 0 -72 -4 -84 -9z
m113 -45 c42 -30 37 -99 -10 -130 -30 -19 -53 -11 -72 26 -27 52 -14 94 35
112 23 8 24 8 47 -8z"/>
<path d="M5833 8910 c0 -30 2 -43 4 -27 2 15 2 39 0 55 -2 15 -4 2 -4 -28z"/>
<path d="M8814 8924 c-109 -15 -244 -64 -345 -124 -89 -53 -249 -210 -297
-292 -84 -142 -132 -297 -132 -424 l0 -65 53 5 c99 11 372 27 588 35 119 5
221 11 226 14 12 7 18 853 6 859 -4 3 -49 -1 -99 -8z"/>
<path d="M40 8870 c0 -13 7 -20 20 -20 13 0 20 7 20 20 0 13 -7 20 -20 20 -13
0 -20 -7 -20 -20z"/>
<path d="M3510 8803 c0 -25 2 -44 4 -42 8 10 13 89 5 89 -5 0 -9 -21 -9 -47z"/>
<path d="M5832 8800 c0 -14 2 -19 5 -12 2 6 2 18 0 25 -3 6 -5 1 -5 -13z"/>
<path d="M5528 8783 c7 -3 16 -2 19 1 4 3 -2 6 -13 5 -11 0 -14 -3 -6 -6z"/>
<path d="M7550 8770 c-24 -13 -29 -20 -17 -21 9 -1 22 -3 27 -4 6 -1 18 -3 28
-4 14 -1 18 -9 18 -36 -1 -19 -4 -35 -8 -35 -5 0 -8 -5 -8 -10 0 -6 10 -8 24
-4 13 3 27 1 30 -5 4 -6 -1 -11 -11 -12 -10 0 -13 -3 -6 -5 24 -10 53 16 53
47 0 17 4 28 9 25 5 -4 11 0 14 6 2 7 8 -7 13 -32 6 -25 15 -46 22 -46 25 -3
27 -5 12 -14 -8 -5 -23 -7 -32 -4 -32 10 -41 -7 -18 -31 17 -19 21 -33 18 -78
-1 -31 -4 -54 -6 -53 -1 2 -16 -9 -31 -23 -41 -39 -96 -54 -131 -36 -14 7 -32
21 -39 29 -14 17 -31 21 -31 8 0 -5 12 -14 26 -20 14 -7 23 -16 20 -20 -11
-18 94 -18 129 0 17 8 42 18 57 22 15 3 32 15 38 26 12 22 46 27 53 8 4 -10 6
-10 6 0 1 7 6 10 11 7 6 -3 10 -1 10 5 0 7 -7 10 -15 6 -10 -4 -15 1 -15 14 0
11 5 20 10 20 6 0 10 7 10 15 0 8 5 23 11 33 13 21 -27 118 -62 151 -26 24
-152 91 -170 91 -8 -1 -30 -9 -49 -20z"/>
<path d="M47 8755 c-3 -16 0 -24 7 -22 14 4 21 47 8 47 -5 0 -12 -11 -15 -25z"/>
<path d="M785 8745 c-152 -32 -302 -120 -396 -232 -52 -60 -115 -180 -135
-255 -7 -29 -14 -101 -15 -159 -2 -226 88 -407 265 -533 90 -65 135 -81 354
-122 20 -4 22 -10 22 -64 0 -70 -7 -68 125 -45 97 17 229 73 301 128 40 30 50
55 29 74 -4 5 -5 -2 -2 -14 3 -13 3 -23 1 -23 -3 0 -9 10 -14 23 -8 18 -9 17
-4 -10 3 -21 2 -33 -5 -33 -6 0 -11 10 -12 23 0 14 -3 17 -6 8 -7 -18 -53 -61
-64 -61 -5 0 -9 7 -9 15 0 8 4 15 8 15 12 0 52 35 52 46 0 4 -5 3 -12 -4 -16
-16 -38 -15 -38 1 1 16 82 77 104 77 11 0 15 4 10 13 -6 9 -5 9 7 0 18 -15 17
-59 0 -55 -7 1 -9 -2 -6 -8 5 -8 13 -6 26 6 21 19 25 29 8 18 -7 -4 -10 -1 -7
7 3 8 1 22 -4 32 -7 14 -5 24 7 37 9 10 30 45 46 79 27 55 58 95 42 55 -5 -14
-3 -16 13 -11 16 6 17 5 4 -5 -8 -7 -20 -26 -26 -43 -6 -16 -15 -29 -21 -28
-18 4 -9 -36 12 -51 20 -15 20 -15 -2 -10 -12 4 -24 13 -27 21 -3 8 -10 11
-16 8 -6 -4 -8 -11 -4 -16 3 -5 1 -16 -5 -23 -9 -10 -8 -21 0 -40 11 -23 9
-29 -12 -52 -20 -23 -21 -25 -4 -16 57 30 180 174 170 199 -3 9 0 11 7 7 8 -5
9 -2 5 10 -4 10 -3 15 3 11 10 -6 33 34 57 99 12 35 43 183 43 210 0 4 -33 5
-74 1 l-73 -6 -2 63 c-2 132 -44 264 -114 362 -50 71 -189 187 -270 226 -91
44 -250 65 -342 45z m210 -186 c51 -24 101 -76 122 -128 9 -20 18 -73 21 -118
4 -66 8 -84 22 -88 9 -3 27 -16 39 -29 22 -24 23 -27 19 -260 l-3 -236 -28
-27 -27 -28 -263 1 c-179 1 -270 5 -285 13 -47 25 -52 54 -52 296 0 213 1 226
20 245 12 12 32 25 45 30 23 9 25 14 25 81 0 39 5 89 11 110 39 127 208 197
334 138z m535 -539 c0 -5 -5 -10 -11 -10 -5 0 -7 5 -4 10 3 6 8 10 11 10 2 0
4 -4 4 -10z m5 -70 c-5 -8 -11 -8 -17 -2 -6 6 -7 16 -3 22 5 8 11 8 17 2 6 -6
7 -16 3 -22z m-121 -345 c-4 -8 -8 -15 -10 -15 -2 0 -4 7 -4 15 0 8 4 15 10
15 5 0 7 -7 4 -15z m-114 -129 c0 -2 -7 -6 -15 -10 -8 -3 -15 -1 -15 4 0 6 7
10 15 10 8 0 15 -2 15 -4z"/>
<path d="M836 8480 c-69 -21 -106 -85 -106 -185 l0 -65 160 0 160 0 0 65 c0
72 -13 105 -57 147 -47 45 -95 56 -157 38z"/>
<path d="M875 8061 c-31 -9 -51 -24 -64 -48 -17 -33 -14 -49 18 -86 29 -32 29
-34 16 -73 -22 -62 -20 -71 23 -77 78 -13 92 3 72 87 -8 35 -6 43 16 69 28 33
29 47 9 86 -16 31 -58 51 -90 42z"/>
<path d="M3408 8643 c7 -3 16 -2 19 1 4 3 -2 6 -13 5 -11 0 -14 -3 -6 -6z"/>
<path d="M7147 8643 c-4 -3 -7 -11 -7 -17 0 -6 5 -5 12 2 6 6 9 14 7 17 -3 3
-9 2 -12 -2z"/>
<path d="M4460 8610 c0 -5 5 -10 10 -10 6 0 10 5 10 10 0 6 -4 10 -10 10 -5 0
-10 -4 -10 -10z"/>
<path d="M1470 8557 c12 -20 27 -40 32 -44 14 -8 -23 55 -40 70 -8 6 -4 -6 8
-26z"/>
<path d="M7522 8578 c-7 -7 -12 -29 -12 -49 0 -69 89 -117 124 -67 22 31 20
91 -2 111 -22 20 -92 23 -110 5z"/>
<path d="M7451 8544 c0 -11 3 -14 6 -6 3 7 2 16 -1 19 -3 4 -6 -2 -5 -13z"/>
<path d="M7837 8533 c-4 -3 -7 -11 -7 -17 0 -6 5 -5 12 2 6 6 9 14 7 17 -3 3
-9 2 -12 -2z"/>
<path d="M5826 8505 c-3 -8 -1 -15 4 -15 6 0 10 7 10 15 0 8 -2 15 -4 15 -2 0
-6 -7 -10 -15z"/>
<path d="M7445 8497 c-4 -10 -5 -21 -1 -24 3 -3 1 -12 -4 -18 -8 -9 -4 -11 15
-7 17 3 23 8 16 16 -5 6 -11 20 -13 31 -5 19 -5 19 -13 2z"/>
<path d="M1515 8437 c2 -37 8 -73 13 -80 28 -34 50 -89 61 -152 7 -38 15 -77
19 -85 3 -8 6 -21 6 -29 1 -8 6 -16 13 -18 29 -10 -32 269 -80 363 l-35 69 3
-68z"/>
<path d="M7820 8489 c0 -5 5 -7 10 -4 6 3 10 8 10 11 0 2 -4 4 -10 4 -5 0 -10
-5 -10 -11z"/>
<path d="M10070 8431 c0 -6 5 -13 10 -16 6 -3 10 1 10 9 0 9 -4 16 -10 16 -5
0 -10 -4 -10 -9z"/>
<path d="M7391 8394 c0 -11 3 -14 6 -6 3 7 2 16 -1 19 -3 4 -6 -2 -5 -13z"/>
<path d="M2325 8340 l-40 -7 50 -3 c89 -5 185 -1 203 9 20 12 -148 13 -213 1z"/>
<path d="M7705 8310 c-4 -6 -11 -8 -16 -5 -5 4 -9 -2 -9 -11 0 -16 2 -15 23 2
12 10 24 20 26 21 2 2 -1 3 -7 3 -6 0 -14 -5 -17 -10z"/>
<path d="M7629 8260 l-24 -20 27 13 c16 6 28 15 28 20 0 11 -6 9 -31 -13z"/>
<path d="M10075 8240 c3 -5 8 -10 11 -10 2 0 4 5 4 10 0 6 -5 10 -11 10 -5 0
-7 -4 -4 -10z"/>
<path d="M3485 8176 c-43 -20 -83 -66 -86 -101 -4 -56 1 -72 34 -106 26 -27
38 -33 65 -31 18 2 32 -1 32 -7 0 -19 30 -12 31 7 0 9 3 12 5 5 3 -7 12 -9 20
-6 7 3 11 10 8 15 -4 6 1 8 13 4 23 -7 49 17 37 35 -4 8 -3 9 4 5 7 -4 12 -3
12 2 0 17 -13 22 -28 9 -13 -10 -15 -9 -9 6 5 15 4 16 -13 7 -47 -25 -120 8
-120 55 0 34 72 66 131 58 41 -6 43 -5 30 11 -33 40 -114 56 -166 32z"/>
<path d="M10075 8140 c-3 -5 -1 -10 4 -10 6 0 11 5 11 10 0 6 -2 10 -4 10 -3
0 -8 -4 -11 -10z"/>
<path d="M2153 8122 c-29 -22 -53 -81 -53 -130 0 -129 195 -167 256 -50 19 37
22 96 6 124 -10 17 -11 15 -12 -14 0 -28 -5 -35 -35 -48 -70 -29 -106 -10
-141 75 -13 30 -12 35 3 47 10 7 14 13 8 13 -5 1 -20 -7 -32 -17z"/>
<path d="M2669 8038 c-12 -37 -19 -44 -51 -52 -31 -8 -44 -5 -95 22 -42 22
-57 35 -55 49 2 17 2 17 -13 -1 -19 -24 -19 -57 -1 -99 22 -52 59 -79 114 -85
46 -4 52 -2 90 32 51 47 68 86 56 134 -13 50 -30 50 -45 0z"/>
<path d="M10065 8050 c-3 -5 1 -10 9 -10 9 0 16 5 16 10 0 6 -4 10 -9 10 -6 0
-13 -4 -16 -10z"/>
<path d="M8400 8024 c-124 -7 -252 -17 -285 -23 -33 -6 -64 -11 -69 -11 -10 0
-1 -81 21 -170 29 -119 125 -295 206 -376 39 -39 43 -41 64 -27 22 14 22 16 6
46 -14 28 -14 31 0 19 13 -11 17 -10 25 4 8 14 10 13 10 -9 0 -15 -4 -24 -9
-21 -15 9 -10 -13 6 -26 15 -13 19 -8 16 23 -1 9 3 17 9 17 7 0 10 -7 7 -15
-8 -19 13 -31 25 -14 7 10 8 6 5 -14 -2 -15 0 -30 4 -33 5 -3 9 0 9 5 0 16 26
13 40 -4 10 -12 10 -18 0 -30 -7 -9 -10 -18 -7 -22 4 -3 13 9 21 28 10 21 15
27 16 15 0 -12 5 -16 15 -12 16 6 35 -22 28 -42 -3 -7 1 -11 8 -10 7 2 14 -4
15 -12 3 -32 5 -35 14 -20 5 8 12 11 15 8 12 -12 -7 -30 -26 -25 -16 4 -17 2
-8 -14 5 -10 12 -19 15 -19 3 0 2 5 -1 10 -4 6 7 10 26 10 27 0 30 -2 19 -15
-14 -17 -24 -20 -15 -5 3 6 1 10 -4 10 -6 0 -11 -6 -11 -14 0 -17 72 -28 82
-12 5 7 8 7 8 1 0 -6 -5 -16 -11 -22 -6 -6 -7 -13 -2 -16 14 -9 160 -37 192
-37 l30 0 3 240 c2 132 0 240 -4 240 -5 0 -8 7 -8 15 0 8 -4 15 -10 15 -6 0
-6 -9 0 -25 11 -28 5 -51 -16 -59 -9 -3 -14 1 -14 13 0 11 -5 21 -12 23 -9 3
-8 15 4 46 20 51 8 47 -17 -4 -12 -26 -14 -38 -6 -44 8 -5 9 -14 2 -33 -16
-40 -20 -33 -18 27 2 42 -2 57 -15 65 -12 7 -18 8 -18 1 0 -5 -4 -10 -10 -10
-24 0 -7 31 20 37 17 3 30 10 30 15 0 5 -5 6 -11 3 -6 -4 -16 0 -22 10 -13 17
-52 11 -41 -6 3 -5 0 -9 -5 -9 -6 0 -11 5 -11 11 0 8 -6 7 -17 -2 -14 -12 -16
-12 -11 1 3 8 13 14 22 14 12 -2 17 5 15 20 0 11 -1 28 0 36 1 13 3 13 10 1 5
-8 7 -20 4 -28 -8 -21 11 -15 25 8 8 12 9 18 3 14 -17 -10 -23 18 -12 48 7 17
18 27 31 27 11 0 20 7 20 16 0 9 5 12 13 8 7 -4 9 -3 4 2 -5 5 -13 9 -19 9
-15 0 -34 32 -25 42 5 4 12 1 16 -6 6 -10 10 -10 16 -2 4 7 2 18 -4 25 -16 19
-4 43 25 50 13 4 24 11 24 16 0 6 10 10 21 10 17 0 20 -5 17 -25 -3 -14 -1
-28 3 -31 5 -3 9 11 9 30 l0 36 -147 -1 c-82 -1 -249 -8 -373 -15z m384 -139
c-6 -16 -24 -21 -24 -7 0 11 11 22 21 22 5 0 6 -7 3 -15z m-167 -77 c-3 -8 -6
-5 -6 6 -1 11 2 17 5 13 3 -3 4 -12 1 -19z m101 -6 c2 -7 -1 -12 -8 -12 -6 0
-9 4 -6 9 4 5 1 12 -4 14 -6 3 -5 4 2 3 6 -1 14 -8 16 -14z m-148 -12 c0 -5
-5 -10 -11 -10 -5 0 -7 5 -4 10 3 6 8 10 11 10 2 0 4 -4 4 -10z m90 -20 c0 -5
-2 -10 -4 -10 -3 0 -8 5 -11 10 -3 6 -1 10 4 10 6 0 11 -4 11 -10z m60 6 c0
-3 -4 -8 -10 -11 -5 -3 -10 -1 -10 4 0 6 5 11 10 11 6 0 10 -2 10 -4z m60 -67
c0 -5 -4 -9 -10 -9 -5 0 -10 7 -10 16 0 8 5 12 10 9 6 -3 10 -10 10 -16z m-66
-34 c-7 -16 -24 -21 -24 -6 0 8 7 13 27 20 1 1 0 -6 -3 -14z m29 -15 c3 -11 1
-18 -4 -14 -5 3 -9 12 -9 20 0 20 7 17 13 -6z m57 -31 c0 -6 -4 -7 -10 -4 -5
3 -10 -3 -10 -14 0 -10 6 -22 13 -24 7 -3 5 -6 -5 -6 -18 -1 -24 23 -12 53 6
16 24 12 24 -5z m-245 1 c3 -5 1 -10 -4 -10 -6 0 -11 5 -11 10 0 6 2 10 4 10
3 0 8 -4 11 -10z m102 -9 c0 -11 -5 -18 -9 -15 -4 3 -5 11 -1 19 7 21 12 19
10 -4z m66 -8 c-7 -2 -13 -12 -13 -20 0 -9 -3 -14 -6 -10 -10 10 4 37 18 36
10 0 10 -2 1 -6z m-388 -53 c3 -5 1 -10 -4 -10 -6 0 -11 5 -11 10 0 6 2 10 4
10 3 0 8 -4 11 -10z m406 -13 c-10 -9 -11 -8 -5 6 3 10 9 15 12 12 3 -3 0 -11
-7 -18z m120 -20 c-8 -8 -11 -8 -11 0 0 6 -3 20 -7 30 -7 17 -6 17 11 0 14
-14 16 -21 7 -30z m-61 11 c0 -11 -12 -10 -30 2 -12 7 -10 9 8 7 12 0 22 -5
22 -9z m-147 -13 c-3 -9 -8 -14 -10 -11 -3 3 -2 9 2 15 9 16 15 13 8 -4z m24
-17 c-3 -8 -6 -5 -6 6 -1 11 2 17 5 13 3 -3 4 -12 1 -19z m203 -3 c0 -8 -4
-15 -10 -15 -5 0 -7 7 -4 15 4 8 8 15 10 15 2 0 4 -7 4 -15z m-580 -11 c0 -3
-6 -11 -13 -18 -10 -11 -15 -11 -24 0 -10 10 -10 14 0 17 17 8 37 8 37 1z
m255 -4 c-3 -5 -12 -10 -18 -10 -7 0 -6 4 3 10 19 12 23 12 15 0z m225 -4 c0
-3 -4 -8 -10 -11 -5 -3 -10 -1 -10 4 0 6 5 11 10 11 6 0 10 -2 10 -4z m53 -11
c-3 -9 -8 -14 -10 -11 -3 3 -2 9 2 15 9 16 15 13 8 -4z m-517 -12 c-2 -10 -11
-20 -22 -22 -19 -3 -19 -3 0 18 23 26 25 26 22 4z m164 13 c0 -2 -7 -9 -15
-16 -13 -11 -14 -10 -9 4 5 14 24 23 24 12z m-140 -30 c0 -2 -8 -10 -17 -17
-16 -13 -17 -12 -4 4 13 16 21 21 21 13z m220 -17 c-7 -11 -14 -18 -17 -15 -3
3 0 12 7 21 18 21 23 19 10 -6z m-61 -5 c2 -2 2 -6 0 -9 -8 -7 -49 7 -49 17 0
8 38 2 49 -8z m31 -4 c0 -5 -2 -10 -4 -10 -3 0 -8 5 -11 10 -3 6 -1 10 4 10 6
0 11 -4 11 -10z m127 -142 c-3 -8 -6 -5 -6 6 -1 11 2 17 5 13 3 -3 4 -12 1
-19z"/>
<path d="M6560 7995 c-222 -45 -401 -178 -504 -375 -58 -111 -101 -304 -75
-336 8 -10 8 -14 0 -14 -7 0 -9 -16 -5 -47 18 -141 71 -270 155 -371 60 -72
179 -172 249 -207 60 -30 172 -62 251 -71 l59 -7 0 191 c0 190 0 191 23 195
14 3 8 5 -15 6 -52 2 -138 21 -173 39 -129 65 -200 225 -165 373 31 133 104
202 259 245 l61 17 0 189 0 188 -27 -1 c-16 0 -57 -7 -93 -14z"/>
<path d="M8830 7970 c0 -5 7 -7 15 -4 8 4 15 8 15 10 0 2 -7 4 -15 4 -8 0 -15
-4 -15 -10z"/>
<path d="M10070 7956 c0 -9 7 -16 16 -16 9 0 14 5 12 12 -6 18 -28 21 -28 4z"/>
<path d="M4993 7912 c-25 -4 -31 -27 -9 -35 19 -7 54 19 41 30 -5 5 -20 7 -32
5z"/>
<path d="M5096 7913 c-3 -3 -2 -11 1 -19 7 -18 53 -18 53 0 0 13 -44 28 -54
19z"/>
<path d="M5220 7900 c0 -15 7 -20 25 -20 18 0 25 5 25 20 0 15 -7 20 -25 20
-18 0 -25 -5 -25 -20z"/>
<path d="M5357 7914 c-17 -18 -6 -35 21 -32 16 2 27 9 27 18 0 16 -36 26 -48
14z"/>
<path d="M5482 7908 c-30 -30 1 -68 42 -52 25 9 17 58 -9 62 -11 1 -26 -3 -33
-10z"/>
<path d="M4177 7904 c-9 -10 2 -24 19 -24 8 0 14 7 14 15 0 15 -21 21 -33 9z"/>
<path d="M4290 7896 c0 -7 9 -16 19 -19 24 -6 31 0 24 19 -7 18 -43 18 -43 0z"/>
<path d="M4407 7890 c4 -16 11 -19 27 -14 27 8 29 11 21 23 -3 6 -17 11 -30
11 -18 0 -22 -4 -18 -20z"/>
<path d="M4530 7895 c0 -11 11 -15 40 -15 29 0 40 4 40 15 0 11 -11 15 -40 15
-29 0 -40 -4 -40 -15z"/>
<path d="M4717 7903 c-15 -14 -6 -24 20 -21 34 4 43 28 11 28 -14 0 -28 -3
-31 -7z"/>
<path d="M4850 7894 c0 -10 7 -14 22 -12 32 5 35 28 4 28 -17 0 -26 -5 -26
-16z"/>
<path d="M7880 7880 c0 -5 5 -10 10 -10 6 0 10 5 10 10 0 6 -4 10 -10 10 -5 0
-10 -4 -10 -10z"/>
<path d="M10070 7850 c0 -5 7 -10 15 -10 8 0 15 5 15 10 0 6 -7 10 -15 10 -8
0 -15 -4 -15 -10z"/>
<path d="M8780 7826 c0 -2 11 -6 25 -8 13 -3 22 -1 19 3 -5 9 -44 13 -44 5z"/>
<path d="M7890 7765 c0 -8 5 -15 10 -15 6 0 10 7 10 15 0 8 -4 15 -10 15 -5 0
-10 -7 -10 -15z"/>
<path d="M5480 7755 c0 -8 5 -15 10 -15 6 0 10 7 10 15 0 8 -4 15 -10 15 -5 0
-10 -7 -10 -15z"/>
<path d="M10080 7740 c0 -19 3 -21 12 -12 9 9 9 15 0 24 -9 9 -12 7 -12 -12z"/>
<path d="M4495 7706 c-189 -46 -298 -183 -373 -473 l-39 -151 34 -7 c22 -4 47
0 76 13 44 19 107 82 107 107 0 8 18 33 40 56 34 35 43 40 67 34 40 -9 46 -18
51 -80 6 -74 25 -73 110 9 37 35 82 71 100 80 l33 17 108 -51 c177 -83 284
-89 379 -19 77 56 110 179 69 257 -16 30 -21 32 -71 32 -81 0 -159 19 -228 56
-238 129 -330 152 -463 120z"/>
<path d="M8810 7680 c0 -5 5 -10 10 -10 6 0 10 5 10 10 0 6 -4 10 -10 10 -5 0
-10 -4 -10 -10z"/>
<path d="M5470 7645 c0 -14 5 -25 10 -25 6 0 10 11 10 25 0 14 -4 25 -10 25
-5 0 -10 -11 -10 -25z"/>
<path d="M7902 7649 c1 -13 8 -23 13 -21 15 3 12 35 -3 40 -9 3 -13 -3 -10
-19z"/>
<path d="M5470 7531 c0 -11 5 -23 10 -26 6 -4 10 5 10 19 0 14 -4 26 -10 26
-5 0 -10 -9 -10 -19z"/>
<path d="M7902 7528 c5 -32 28 -35 28 -4 0 17 -5 26 -16 26 -10 0 -14 -7 -12
-22z"/>
<path d="M9934 7450 c-12 -4 -33 -23 -48 -42 -24 -28 -27 -30 -21 -9 5 16 4
21 -4 17 -16 -10 -14 -92 3 -124 15 -28 42 -46 85 -56 26 -5 89 22 110 48 19
23 9 111 -16 144 -21 29 -70 39 -109 22z m54 -92 c-2 -25 -8 -34 -24 -36 -28
-4 -37 20 -18 47 24 33 46 27 42 -11z"/>
<path d="M7902 7408 c2 -13 8 -23 13 -23 6 0 11 10 13 23 2 15 -2 22 -13 22
-11 0 -15 -7 -13 -22z"/>
<path d="M2352 7408 c-7 -7 -12 -28 -12 -47 0 -64 -9 -78 -62 -100 -72 -30
-92 -27 -143 20 -51 47 -47 48 -135 -30 l-45 -40 33 -59 c37 -70 40 -100 11
-159 -24 -50 -61 -73 -119 -73 l-40 0 0 -74 c0 -81 5 -90 60 -101 46 -10 97
-49 117 -91 16 -33 16 -34 -21 -88 l-38 -55 21 -30 c29 -40 79 -81 100 -81 9
0 34 18 55 39 37 38 40 39 70 26 17 -7 50 -21 74 -31 50 -21 62 -38 62 -93 0
-21 3 -46 6 -55 13 -33 125 -43 161 -14 7 5 15 36 19 68 3 32 9 62 13 67 10
16 108 63 131 63 11 0 40 -18 64 -40 24 -22 48 -40 53 -40 15 0 113 97 113
112 0 8 -13 35 -30 61 -35 56 -37 80 -10 124 23 38 43 50 100 59 64 10 80 32
80 108 l0 64 -47 7 c-87 12 -93 16 -123 69 -39 66 -38 93 5 149 19 25 35 50
35 56 0 10 -109 111 -121 111 -4 0 -29 -18 -55 -40 -54 -45 -63 -45 -143 -7
-46 22 -46 23 -49 77 -2 30 -8 60 -14 67 -14 17 -159 18 -176 1z m208 -258
c132 -68 210 -215 181 -345 -24 -107 -117 -209 -224 -247 -146 -50 -304 18
-374 161 -24 49 -28 68 -28 146 0 76 4 97 25 139 39 76 126 144 215 167 50 14
159 2 205 -21z"/>
<path d="M5477 7400 c3 -11 7 -20 9 -20 2 0 4 9 4 20 0 11 -4 20 -9 20 -5 0
-7 -9 -4 -20z"/>
<path d="M8345 7400 c-3 -5 -1 -10 4 -10 6 0 11 5 11 10 0 6 -2 10 -4 10 -3 0
-8 -4 -11 -10z"/>
<path d="M10082 7380 c0 -19 2 -27 5 -17 2 9 2 25 0 35 -3 9 -5 1 -5 -18z"/>
<path d="M8463 7378 c-23 -30 -24 -41 -2 -21 12 12 20 25 17 28 -3 3 -10 0
-15 -7z"/>
<path d="M8502 7342 c-11 -25 -11 -25 4 -10 9 9 15 21 13 27 -2 6 -10 -2 -17
-17z"/>
<path d="M8535 7360 c-8 -13 -1 -24 14 -19 6 3 7 10 2 18 -6 10 -10 10 -16 1z"/>
<path d="M8525 7320 c-3 -6 1 -7 9 -4 18 7 21 14 7 14 -6 0 -13 -4 -16 -10z"/>
<path d="M5481 7284 c0 -11 3 -14 6 -6 3 7 2 16 -1 19 -3 4 -6 -2 -5 -13z"/>
<path d="M7910 7275 c0 -14 5 -25 10 -25 6 0 10 11 10 25 0 14 -4 25 -10 25
-5 0 -10 -11 -10 -25z"/>
<path d="M61 6421 c1 -429 -2 -784 -6 -790 -8 -15 3 -51 17 -51 6 0 16 7 23
16 10 15 89 16 813 16 459 0 805 4 808 9 3 5 -7 10 -23 11 -26 1 -560 4 -1279
7 l-321 1 1 428 c1 271 5 430 11 434 6 5 5 8 -3 8 -10 0 -13 29 -12 128 3 434
0 562 -15 562 -12 0 -14 -101 -14 -779z"/>
<path d="M3325 7191 c-11 -18 5 -31 36 -31 24 0 30 4 27 18 -4 19 -52 29 -63
13z"/>
<path d="M3450 7180 c0 -16 7 -20 35 -20 28 0 35 4 35 20 0 16 -7 20 -35 20
-28 0 -35 -4 -35 -20z"/>
<path d="M3866 7192 c-3 -3 -6 -12 -6 -19 0 -17 42 -14 47 3 4 12 -32 26 -41
16z"/>
<path d="M3200 7174 c0 -10 7 -14 22 -12 32 5 35 28 4 28 -17 0 -26 -5 -26
-16z"/>
<path d="M3590 7175 c0 -10 10 -15 30 -15 20 0 30 5 30 15 0 10 -10 15 -30 15
-20 0 -30 -5 -30 -15z"/>
<path d="M3726 7175 c-4 -11 2 -15 24 -15 20 0 30 5 30 15 0 9 -9 15 -24 15
-13 0 -26 -7 -30 -15z"/>
<path d="M7906 7154 c-10 -25 -7 -34 9 -34 9 0 15 9 15 25 0 28 -15 34 -24 9z"/>
<path d="M10111 7154 c0 -11 3 -14 6 -6 3 7 2 16 -1 19 -3 4 -6 -2 -5 -13z"/>
<path d="M8150 6629 c0 -304 -4 -497 -10 -509 -7 -13 -6 -28 4 -52 l14 -33 7
28 c7 25 11 27 54 27 25 0 432 1 903 1 524 0 860 4 863 10 4 5 -48 9 -132 9
-76 0 -419 2 -763 4 -344 2 -691 5 -772 5 l-147 1 2 500 c2 394 -1 500 -10
500 -10 0 -13 -105 -13 -491z"/>
<path d="M10112 7040 c0 -14 2 -19 5 -12 2 6 2 18 0 25 -3 6 -5 1 -5 -13z"/>
<path d="M705 7030 c-3 -5 -1 -10 4 -10 6 0 11 5 11 10 0 6 -2 10 -4 10 -3 0
-8 -4 -11 -10z"/>
<path d="M7910 7009 c0 -11 5 -17 10 -14 6 3 10 13 10 21 0 8 -4 14 -10 14 -5
0 -10 -9 -10 -21z"/>
<path d="M713 6955 c0 -33 2 -45 4 -27 2 18 2 45 0 60 -2 15 -4 0 -4 -33z"/>
<path d="M533 6933 l-62 -4 -3 -102 c-2 -56 -2 -343 0 -637 l3 -535 84 3 85 3
0 127 c0 70 3 358 6 640 l6 512 -28 -2 c-16 -1 -57 -3 -91 -5z"/>
<path d="M10110 6913 c0 -13 5 -23 10 -23 13 0 13 11 0 30 -8 12 -10 11 -10
-7z"/>
<path d="M7910 6900 c0 -19 3 -21 12 -12 9 9 9 15 0 24 -9 9 -12 7 -12 -12z"/>
<path d="M1342 6818 c-2 -64 -1 -66 21 -60 17 5 18 7 5 10 -13 2 -18 16 -21
60 l-3 57 -2 -67z"/>
<path d="M9683 6845 c-20 -28 -268 -255 -279 -255 -3 0 -3 20 0 45 4 25 4 45
-1 45 -13 -1 -48 -30 -35 -30 7 0 12 -16 12 -39 0 -34 -6 -45 -44 -78 -24 -21
-68 -56 -99 -78 -31 -22 -56 -46 -57 -54 0 -11 -4 -11 -18 2 -50 45 -131 23
-117 -33 10 -39 24 -50 67 -50 33 0 42 5 56 29 9 16 30 36 47 44 16 8 59 38
95 66 53 41 67 48 75 37 9 -12 15 -9 30 15 11 16 76 82 145 147 108 102 130
118 161 120 38 3 36 4 197 -128 66 -53 96 -60 116 -27 9 15 7 22 -13 38 -13
10 -35 19 -49 19 -15 0 -43 16 -72 43 -25 23 -60 54 -76 68 -16 14 -37 38 -47
53 -24 35 -69 36 -94 1z"/>
<path d="M1026 6771 c-4 -5 -2 -12 3 -15 5 -4 12 -2 15 3 4 5 2 12 -3 15 -5 4
-12 2 -15 -3z"/>
<path d="M401 6754 c0 -11 3 -14 6 -6 3 7 2 16 -1 19 -3 4 -6 -2 -5 -13z"/>
<path d="M3650 6750 c-9 -6 -10 -10 -3 -10 6 0 15 5 18 10 8 12 4 12 -15 0z"/>
<path d="M3597 6723 c-16 -8 -27 -17 -24 -19 7 -7 57 18 57 28 0 4 -1 8 -2 7
-2 -1 -16 -8 -31 -16z"/>
<path d="M784 6213 c3 -274 6 -512 6 -530 l0 -32 81 1 c51 0 82 4 84 12 2 6 6
243 7 526 l3 515 -94 3 -93 4 6 -499z"/>
<path d="M402 6675 c0 -16 2 -22 5 -12 2 9 2 23 0 30 -3 6 -5 -1 -5 -18z"/>
<path d="M1033 6655 c0 -27 2 -38 4 -22 2 15 2 37 0 50 -2 12 -4 0 -4 -28z"/>
<path d="M7910 6676 c0 -22 3 -27 11 -19 8 8 8 16 0 30 -9 16 -10 14 -11 -11z"/>
<path d="M8746 6654 c-22 -25 -62 -60 -87 -78 -25 -19 -69 -54 -97 -80 -29
-25 -61 -46 -70 -46 -10 0 -35 -21 -56 -46 -21 -25 -83 -75 -137 -111 -90 -60
-121 -93 -86 -93 16 0 90 46 180 112 37 28 74 48 81 45 19 -7 66 29 67 51 0 9
52 59 114 109 108 87 115 91 128 73 9 -13 17 -16 27 -9 31 19 52 6 135 -80 54
-56 92 -88 101 -84 27 10 14 31 -75 116 -49 47 -92 95 -96 106 -7 24 -51 61
-73 61 -8 0 -33 -21 -56 -46z"/>
<path d="M1410 6558 c-2 -428 2 -881 6 -893 5 -12 24 -15 90 -15 l84 0 0 429
c0 334 3 430 13 434 10 4 10 6 0 6 -9 1 -13 18 -13 51 l0 50 -90 0 -90 0 0
-62z"/>
<path d="M7900 6555 c0 -9 5 -15 11 -13 6 2 11 8 11 13 0 5 -5 11 -11 13 -6 2
-11 -4 -11 -13z"/>
<path d="M8793 6490 c0 -30 2 -43 4 -27 2 15 2 39 0 55 -2 15 -4 2 -4 -28z"/>
<path d="M133 6503 c9 -2 25 -2 35 0 9 3 1 5 -18 5 -19 0 -27 -2 -17 -5z"/>
<path d="M10110 6475 c0 -8 5 -15 10 -15 6 0 10 7 10 15 0 8 -4 15 -10 15 -5
0 -10 -7 -10 -15z"/>
<path d="M713 6375 c0 -44 2 -61 4 -37 2 23 2 59 0 80 -2 20 -4 1 -4 -43z"/>
<path d="M1033 6390 c0 -30 2 -43 4 -27 2 15 2 39 0 55 -2 15 -4 2 -4 -28z"/>
<path d="M1233 6408 l28 -10 -2 -105 c-2 -150 2 -143 -80 -140 -50 1 -69 6
-69 16 0 8 6 11 15 7 21 -8 19 10 -4 33 -18 18 -19 18 -24 -17 -8 -43 3 -123
14 -116 5 3 9 -2 9 -11 0 -9 -4 -13 -10 -10 -7 4 -10 -63 -10 -194 l0 -201 85
0 85 0 0 380 0 380 -32 -1 -33 -1 28 -10z"/>
<path d="M7873 6403 c-7 -2 -13 -18 -13 -34 0 -25 4 -29 29 -29 35 0 45 12 37
46 -6 23 -24 29 -53 17z"/>
<path d="M7513 6389 c-33 -12 -28 -29 7 -29 19 0 30 5 30 14 0 21 -11 25 -37
15z"/>
<path d="M7380 6375 c0 -9 9 -15 25 -15 16 0 25 6 25 15 0 9 -9 15 -25 15 -16
0 -25 -6 -25 -15z"/>
<path d="M7610 6376 c0 -20 38 -30 55 -16 21 17 9 30 -26 30 -18 0 -29 -5 -29
-14z"/>
<path d="M7742 6373 c2 -12 12 -18 28 -18 16 0 26 6 28 18 3 13 -3 17 -28 17
-25 0 -31 -4 -28 -17z"/>
<path d="M10117 6370 c-3 -11 -1 -20 4 -20 5 0 9 9 9 20 0 11 -2 20 -4 20 -2
0 -6 -9 -9 -20z"/>
<path d="M173 6344 c-3 -9 -7 -166 -7 -348 l-1 -331 83 -3 82 -3 0 351 c0 273
-3 350 -12 350 -7 0 -30 -4 -50 -9 -22 -5 -38 -5 -38 0 0 16 -50 10 -57 -7z"/>
<path d="M4950 6320 c8 -5 20 -10 25 -10 6 0 3 5 -5 10 -8 5 -19 10 -25 10 -5
0 -3 -5 5 -10z"/>
<path d="M6667 6273 c-10 -9 -9 -51 2 -57 11 -7 21 39 11 54 -3 5 -9 7 -13 3z"/>
<path d="M10111 6254 c0 -11 3 -14 6 -6 3 7 2 16 -1 19 -3 4 -6 -2 -5 -13z"/>
<path d="M7890 6231 c0 -12 5 -21 10 -21 6 0 10 6 10 14 0 8 -4 18 -10 21 -5
3 -10 -3 -10 -14z"/>
<path d="M1025 6210 c-3 -5 -1 -10 4 -10 6 0 11 5 11 10 0 6 -2 10 -4 10 -3 0
-8 -4 -11 -10z"/>
<path d="M1648 6213 c6 -2 18 -2 25 0 6 3 1 5 -13 5 -14 0 -19 -2 -12 -5z"/>
<path d="M711 6194 c0 -11 3 -14 6 -6 3 7 2 16 -1 19 -3 4 -6 -2 -5 -13z"/>
<path d="M1343 6160 c0 -30 2 -43 4 -27 2 15 2 39 0 55 -2 15 -4 2 -4 -28z"/>
<path d="M2416 6193 c-12 -12 -6 -33 9 -33 8 0 15 6 15 14 0 17 -14 28 -24 19z"/>
<path d="M10112 6145 c0 -16 2 -22 5 -12 2 9 2 23 0 30 -3 6 -5 -1 -5 -18z"/>
<path d="M6665 6150 c-9 -15 3 -80 15 -80 12 0 13 60 1 79 -6 10 -10 10 -16 1z"/>
<path d="M7890 6123 c0 -5 5 -15 10 -23 8 -12 10 -11 10 8 0 12 -4 22 -10 22
-5 0 -10 -3 -10 -7z"/>
<path d="M1033 6050 c0 -41 2 -58 4 -37 2 20 2 54 0 75 -2 20 -4 3 -4 -38z"/>
<path d="M1341 6074 c0 -11 3 -14 6 -6 3 7 2 16 -1 19 -3 4 -6 -2 -5 -13z"/>
<path d="M2410 6065 c0 -16 6 -25 15 -25 9 0 15 9 15 25 0 16 -6 25 -15 25 -9
0 -15 -9 -15 -25z"/>
<path d="M713 5995 c0 -27 2 -38 4 -22 2 15 2 37 0 50 -2 12 -4 0 -4 -28z"/>
<path d="M6671 6000 c1 -42 1 -43 9 -16 6 17 5 36 0 45 -7 11 -9 3 -9 -29z"/>
<path d="M3253 5980 c0 -25 2 -35 4 -22 2 12 2 32 0 45 -2 12 -4 2 -4 -23z"/>
<path d="M2420 5967 c0 -23 4 -36 10 -32 13 8 13 35 0 55 -7 11 -10 5 -10 -23z"/>
<path d="M398 5923 c-2 -5 -1 -37 3 -73 l6 -65 1 73 c2 65 -1 85 -10 65z"/>
<path d="M6673 5890 c0 -25 2 -35 4 -22 2 12 2 32 0 45 -2 12 -4 2 -4 -23z"/>
<path d="M4286 5878 c-2 -7 -14 -49 -26 -93 -12 -44 -59 -186 -105 -315 -113
-323 -111 -292 -28 -333 130 -66 292 -116 638 -197 110 -26 208 -50 218 -55
10 -4 17 -3 17 4 0 6 -7 11 -15 11 -9 0 -4 10 15 30 16 17 36 30 45 30 8 0 15
4 15 9 0 15 71 22 122 13 43 -8 82 -1 62 11 -5 2 -79 17 -164 31 -85 15 -186
34 -225 43 -38 8 -95 17 -126 19 -52 2 -56 1 -52 -17 4 -14 0 -19 -16 -19 -12
0 -21 6 -21 15 0 8 -5 15 -11 15 -20 0 2 20 24 21 16 1 12 4 -13 11 -19 6 -42
13 -50 16 -8 3 -17 6 -20 7 -9 3 -85 36 -135 58 -27 12 -53 26 -57 32 -5 7 -8
7 -8 0 0 -5 -5 -2 -11 7 -12 21 -25 164 -35 376 -4 83 -10 152 -14 152 -4 0
-12 12 -18 26 -8 16 -8 23 -2 19 7 -5 10 9 9 39 -3 46 -7 56 -13 34z"/>
<path d="M2420 5835 c0 -19 5 -35 10 -35 6 0 10 16 10 35 0 19 -4 35 -10 35
-5 0 -10 -16 -10 -35z"/>
<path d="M3252 5830 c0 -19 2 -27 5 -17 2 9 2 25 0 35 -3 9 -5 1 -5 -18z"/>
<path d="M1342 5820 c0 -14 2 -19 5 -12 2 6 2 18 0 25 -3 6 -5 1 -5 -13z"/>
<path d="M6672 5780 c0 -14 2 -19 5 -12 2 6 2 18 0 25 -3 6 -5 1 -5 -13z"/>
<path d="M1343 5735 c0 -27 2 -38 4 -22 2 15 2 37 0 50 -2 12 -4 0 -4 -28z"/>
<path d="M2420 5711 c0 -11 5 -23 10 -26 6 -4 10 5 10 19 0 14 -4 26 -10 26
-5 0 -10 -9 -10 -19z"/>
<path d="M7843 5693 c-3 -10 -12 -34 -20 -53 -8 -19 -23 -65 -33 -102 -15 -54
-16 -68 -5 -68 7 0 18 14 24 30 9 27 14 30 51 30 34 0 42 -4 50 -25 5 -14 17
-25 26 -25 21 0 14 27 -33 138 -38 89 -50 103 -60 75z m27 -92 c8 -28 6 -33
-13 -40 -12 -5 -23 -7 -25 -6 -2 2 2 22 9 44 14 46 16 47 29 2z"/>
<path d="M8118 5601 c-21 -60 -38 -114 -38 -120 0 -19 20 -2 30 25 8 20 16 24
51 24 36 0 42 -3 52 -30 6 -16 18 -30 25 -30 19 0 9 50 -28 142 -46 114 -49
114 -92 -11z m53 -43 c-9 -4 -19 -7 -23 -7 -12 -1 -10 34 3 66 l12 28 12 -40
c10 -35 10 -41 -4 -47z"/>
<path d="M7988 5693 c-45 -3 -56 -7 -51 -18 3 -8 18 -15 34 -15 l28 0 3 -87
c2 -58 7 -88 16 -91 9 -3 12 19 12 87 l0 90 27 3 c36 4 46 39 11 36 -13 -1
-49 -3 -80 -5z"/>
<path d="M8744 5686 c-67 -29 -84 -102 -39 -169 22 -32 31 -37 63 -37 29 0 45
7 66 29 26 27 28 35 24 87 -4 47 -10 62 -32 81 -31 26 -39 27 -82 9z m68 -43
c26 -23 24 -90 -4 -120 -27 -29 -53 -29 -73 0 -27 41 -29 80 -5 110 24 31 55
35 82 10z"/>
<path d="M8936 5679 c-61 -48 -73 -123 -27 -169 36 -36 72 -46 107 -28 48 23
42 38 -13 32 -59 -8 -85 15 -87 74 -1 59 18 75 76 68 51 -7 59 1 30 27 -25 23
-54 21 -86 -4z"/>
<path d="M9255 5675 c-14 -13 -25 -33 -25 -44 0 -20 38 -56 71 -66 27 -9 24
-43 -6 -57 -19 -8 -28 -8 -40 2 -13 10 -15 9 -15 -8 0 -39 59 -44 95 -7 39 38
33 71 -20 103 -46 28 -59 57 -29 69 9 3 25 1 35 -5 23 -14 29 -15 29 -3 0 17
-31 41 -51 41 -11 0 -31 -11 -44 -25z"/>
<path d="M9405 5674 c-14 -15 -25 -35 -25 -45 0 -20 43 -57 77 -65 16 -5 23
-13 23 -31 0 -24 -2 -25 -45 -21 -31 4 -45 2 -45 -6 0 -40 74 -49 108 -13 37
39 29 68 -28 102 -53 31 -64 57 -30 75 16 8 23 7 37 -10 22 -25 33 -26 33 0 0
44 -69 53 -105 14z"/>
<path d="M9556 5678 c-3 -13 -6 -65 -6 -115 0 -76 3 -93 15 -93 12 0 15 19 15
115 0 107 -10 145 -24 93z"/>
<path d="M9630 5590 c0 -91 3 -110 15 -110 12 0 15 15 15 78 l0 77 25 -44 c36
-63 85 -122 96 -115 10 6 13 183 3 208 -3 9 -12 16 -20 16 -11 0 -12 -15 -7
-75 7 -88 -4 -96 -36 -26 -24 50 -65 101 -81 101 -6 0 -10 -46 -10 -110z"/>
<path d="M9868 5680 c-14 -10 -31 -33 -38 -49 -28 -69 24 -161 92 -161 49 0
61 13 68 70 l7 51 -40 -3 c-47 -4 -58 -20 -23 -36 18 -8 23 -16 19 -31 -8 -30
-47 -27 -72 5 -31 39 -28 97 6 123 24 20 28 20 49 6 47 -31 72 -13 34 25 -25
25 -70 26 -102 0z"/>
<path d="M7595 5580 l0 -110 25 0 c41 0 92 18 117 42 18 17 23 32 23 71 0 40
-5 53 -29 78 -25 25 -37 29 -83 29 l-53 0 0 -110z m105 60 c29 -29 27 -94 -2
-114 -12 -9 -33 -16 -45 -16 -22 0 -23 4 -23 75 0 73 1 75 25 75 14 0 34 -9
45 -20z"/>
<path d="M8350 5603 c0 -93 7 -133 21 -133 5 0 9 10 9 23 0 48 11 67 39 67 40
0 71 26 71 61 0 45 -31 69 -90 69 l-50 0 0 -87z m104 35 c13 -22 1 -35 -42
-47 l-32 -10 0 40 c0 39 1 40 31 37 18 -2 37 -11 43 -20z"/>
<path d="M8520 5585 c0 -87 3 -105 15 -105 9 0 15 9 15 24 0 30 9 56 20 56 5
0 23 -20 41 -45 18 -25 38 -45 46 -45 21 0 15 17 -18 54 l-31 36 28 23 c27 24
27 25 13 63 -15 38 -16 39 -72 42 l-57 3 0 -106z m107 58 c7 -19 -29 -53 -58
-53 -14 0 -19 7 -19 28 0 36 6 42 42 42 17 0 31 -6 35 -17z"/>
<path d="M9080 5579 l0 -111 63 7 c68 8 80 12 72 25 -3 5 -29 6 -57 3 -46 -6
-51 -4 -45 11 4 10 7 26 7 37 0 15 7 19 35 19 24 0 35 5 35 15 0 11 -11 15
-40 15 -38 0 -40 2 -40 30 0 29 1 30 50 30 38 0 50 4 50 15 0 12 -14 15 -65
15 l-65 0 0 -111z"/>
<path d="M2420 5596 c0 -14 5 -28 10 -31 6 -4 10 7 10 24 0 17 -4 31 -10 31
-5 0 -10 -11 -10 -24z"/>
<path d="M10142 5575 c0 -16 2 -22 5 -12 2 9 2 23 0 30 -3 6 -5 -1 -5 -18z"/>
<path d="M6604 5513 c-61 -3 -75 -7 -97 -31 -33 -35 -125 -219 -220 -442 -42
-96 -111 -249 -155 -340 -43 -91 -101 -211 -128 -268 l-49 -103 -551 3 c-526
3 -551 4 -570 22 -41 41 -190 86 -419 126 -66 11 -127 23 -135 25 -19 5 -316
35 -352 35 -24 0 -29 -6 -41 -47 -13 -44 -16 -47 -48 -49 -69 -3 -404 -69
-533 -104 -123 -35 -271 -45 -466 -32 -96 6 -176 9 -178 8 -2 -2 6 -41 18 -86
78 -305 299 -524 575 -571 42 -7 138 -10 240 -8 94 2 278 4 410 4 213 -1 246
-3 294 -20 30 -11 56 -25 58 -32 8 -23 -138 -26 -859 -20 l-728 6 0 -64 0 -64
83 -3 82 -3 5 -920 5 -920 35 0 35 0 8 820 c4 451 6 864 5 918 -2 59 1 97 7
97 6 0 292 2 637 3 l628 2 2 -925 3 -925 35 0 35 0 5 925 5 925 22 3 c29 4 37
-13 62 -133 33 -150 154 -660 220 -920 l57 -230 213 1 c117 1 215 4 218 8 6 5
-16 329 -42 616 -8 85 -21 238 -30 340 -21 245 -51 476 -76 579 -23 100 -80
247 -120 314 l-29 47 23 0 c19 0 31 -16 69 -92 98 -195 116 -294 178 -933 l19
-200 84 -175 c46 -96 105 -222 130 -280 25 -58 61 -139 80 -181 l35 -76 123
18 c180 25 310 47 316 53 3 3 -41 189 -97 413 -210 832 -288 1095 -396 1333
-29 63 -51 116 -50 117 1 2 376 3 832 3 l829 1 3 -523 c1 -288 0 -533 -3 -544
-4 -19 -116 -118 -235 -207 -33 -25 -40 -27 -58 -16 -32 20 -93 1 -110 -34
-12 -24 -11 -31 2 -53 18 -27 37 -30 85 -13 24 8 34 19 38 41 4 20 19 38 47
55 23 15 82 59 132 100 50 40 94 73 98 73 3 0 6 -304 6 -676 l0 -675 43 3 42
3 3 1237 2 1237 88 3 87 3 3 39 c2 22 1 50 -2 62 l-6 24 -306 2 -306 3 22 27
c12 16 33 56 46 90 42 105 227 500 421 900 68 138 113 243 110 252 -6 14 -34
16 -204 16 -109 0 -227 2 -263 4 -36 2 -97 1 -136 -1z m71 -589 c-26 -99 -53
-144 -86 -144 -41 0 -29 51 34 141 17 26 40 61 50 79 29 54 30 28 2 -76z
m-2138 -673 c174 -39 193 -60 32 -35 -57 8 -146 22 -198 29 -52 8 -99 19 -105
26 -17 17 160 4 271 -20z"/>
<path d="M2420 5493 c0 -5 5 -15 10 -23 8 -12 10 -11 10 8 0 12 -4 22 -10 22
-5 0 -10 -3 -10 -7z"/>
<path d="M2432 5350 c0 -14 2 -19 5 -12 2 6 2 18 0 25 -3 6 -5 1 -5 -13z"/>
<path d="M2054 5331 c-114 -29 -170 -176 -113 -297 26 -55 62 -75 144 -81 120
-10 172 23 211 133 15 44 16 58 6 91 -16 53 -64 119 -102 138 -37 19 -105 27
-146 16z m122 -40 c85 -39 123 -131 87 -212 -40 -89 -92 -116 -189 -98 -66 12
-95 36 -117 95 -21 55 -18 86 15 152 35 74 121 100 204 63z"/>
<path d="M2049 5103 c6 -24 13 -29 45 -31 22 -2 44 2 50 9 8 9 7 10 -6 6 -11
-4 -25 1 -35 12 -10 10 -28 22 -40 25 -20 6 -21 4 -14 -21z"/>
<path d="M755 5304 c-57 -8 -165 -36 -170 -44 -3 -4 26 -1 63 6 95 20 306 28
372 16 71 -13 226 -70 245 -89 8 -8 15 -11 15 -8 0 4 23 -14 51 -39 46 -42 69
-55 69 -41 0 8 -69 68 -98 85 -15 8 -35 23 -46 33 -11 9 -56 31 -100 49 -76
29 -90 31 -226 34 -80 1 -158 0 -175 -2z"/>
<path d="M535 5230 c3 -5 8 -10 11 -10 2 0 4 5 4 10 0 6 -5 10 -11 10 -5 0 -7
-4 -4 -10z"/>
<path d="M2422 5220 c0 -14 2 -19 5 -12 2 6 2 18 0 25 -3 6 -5 1 -5 -13z"/>
<path d="M449 5192 c-57 -29 -125 -91 -149 -136 l-22 -41 55 57 c30 31 80 73
111 94 31 20 56 38 56 40 0 8 -17 3 -51 -14z"/>
<path d="M7745 5156 c-17 -7 -43 -27 -57 -44 -76 -91 -54 -217 46 -263 54 -24
90 -24 143 2 63 30 93 79 93 150 0 123 -116 203 -225 155z m123 -36 c117 -72
83 -243 -52 -257 -83 -8 -142 58 -134 153 5 59 25 89 73 110 42 19 75 17 113
-6z"/>
<path d="M7776 5041 c3 -9 10 -34 15 -56 17 -71 18 -73 40 -46 11 13 19 39 19
60 0 35 -2 38 -41 48 -36 9 -39 9 -33 -6z"/>
<path d="M790 5066 c-157 -42 -227 -161 -230 -386 -1 -51 -3 -57 -33 -75 -52
-33 -59 -73 -55 -280 5 -202 11 -227 74 -287 62 -59 105 -70 300 -76 239 -6
308 17 376 126 22 36 23 45 23 255 l0 219 -33 29 c-18 16 -38 29 -46 29 -10 0
-15 27 -18 118 -3 99 -8 125 -30 172 -14 30 -40 69 -57 87 -59 59 -189 92
-271 69z m173 -142 c66 -47 81 -82 86 -203 l3 -104 -92 6 c-51 4 -137 7 -192
7 l-98 0 0 78 c0 43 7 102 15 130 34 113 176 157 278 86z m-32 -533 c38 -39
37 -66 -6 -107 -34 -32 -35 -34 -25 -76 5 -24 10 -55 10 -70 0 -27 -2 -28 -50
-28 l-50 0 0 38 c0 20 4 53 10 72 9 31 7 37 -20 63 -39 38 -40 79 -4 112 39
36 96 34 135 -4z"/>
<path d="M1440 5056 c0 -2 8 -10 18 -17 15 -13 16 -12 3 4 -13 16 -21 21 -21
13z"/>
<path d="M1510 4924 c22 -55 42 -108 45 -118 3 -10 7 -17 10 -15 8 9 -26 120
-52 167 -42 78 -43 69 -3 -34z"/>
<path d="M8628 4993 c6 -2 18 -2 25 0 6 3 1 5 -13 5 -14 0 -19 -2 -12 -5z"/>
<path d="M8686 4991 c-4 -7 -5 -15 -2 -18 9 -9 19 4 14 18 -4 11 -6 11 -12 0z"/>
<path d="M8081 4986 c2 -2 104 -7 226 -11 152 -4 223 -3 228 4 4 8 -65 11
-226 11 -128 0 -230 -2 -228 -4z"/>
<path d="M9399 4881 c-80 -26 -118 -87 -122 -191 -2 -63 -4 -71 -24 -76 -46
-12 -51 -30 -53 -184 -1 -80 -2 -150 -1 -157 0 -6 27 -21 59 -33 100 -39 358
-29 430 16 21 14 22 20 22 160 0 141 -1 146 -25 169 -13 14 -33 25 -45 25 -19
0 -20 6 -20 84 0 90 -16 127 -72 169 -29 22 -108 31 -149 18z m103 -81 c32
-25 46 -60 51 -132 l4 -58 -91 0 c-50 0 -98 4 -106 10 -10 6 -14 28 -15 70 0
58 2 63 37 96 44 39 82 44 120 14z m-28 -326 c10 -25 7 -62 -4 -66 -7 -2 -5
-17 5 -42 21 -50 14 -66 -30 -66 -30 0 -35 3 -31 18 17 56 17 72 1 96 -16 24
-16 28 -1 51 19 28 51 33 60 9z"/>
<path d="M8168 4873 c34 -2 90 -2 125 0 34 2 6 3 -63 3 -69 0 -97 -1 -62 -3z"/>
<path d="M1986 4840 c-54 -48 -69 -84 -69 -163 0 -59 4 -74 29 -109 58 -82
174 -108 264 -58 62 35 106 118 96 183 -8 55 -47 115 -94 147 -28 20 -51 26
-112 28 -75 4 -78 3 -114 -28z m215 -25 c40 -26 79 -95 79 -139 0 -37 -33 -98
-70 -129 -77 -65 -204 -36 -249 57 -26 52 -26 89 -2 141 47 101 150 131 242
70z"/>
<path d="M2073 4733 c-7 -2 -13 -17 -13 -32 0 -15 6 -33 13 -40 10 -11 10 -13
0 -7 -7 4 -13 2 -13 -3 0 -6 5 -11 10 -11 6 0 9 -6 8 -12 -4 -16 51 -22 71 -9
17 11 16 87 -1 108 -10 13 -51 16 -75 6z"/>
<path d="M136 4768 c-15 -53 -31 -153 -21 -132 3 6 16 50 29 98 24 92 18 122
-8 34z"/>
<path d="M1575 4755 c15 -94 26 -280 20 -340 -20 -223 -110 -403 -260 -524
-42 -33 -70 -61 -62 -61 25 0 131 85 176 141 45 56 101 162 101 191 0 9 4 19
9 23 6 3 18 40 28 83 23 101 23 378 -1 462 -8 30 -13 42 -11 25z"/>
<path d="M5400 4748 c115 -67 196 -182 209 -296 6 -50 8 -54 14 -28 11 38 1
78 -36 151 -47 94 -82 132 -158 170 -86 44 -102 45 -29 3z"/>
<path d="M5785 4760 c10 -11 20 -20 23 -20 3 0 -3 9 -13 20 -10 11 -20 20 -23
20 -3 0 3 -9 13 -20z"/>
<path d="M5599 4710 c134 -35 146 -46 201 -183 21 -55 42 -77 72 -77 7 0 2 6
-11 13 -16 8 -34 36 -52 82 -36 89 -55 113 -113 149 -37 23 -62 31 -109 33
l-62 3 74 -20z"/>
<path d="M5830 4700 c6 -11 13 -20 16 -20 2 0 0 9 -6 20 -6 11 -13 20 -16 20
-2 0 0 -9 6 -20z"/>
<path d="M7726 4677 c-55 -31 -81 -78 -81 -149 0 -61 17 -94 67 -131 64 -47
178 -24 233 47 21 28 27 47 27 85 0 134 -132 213 -246 148z m143 -25 c87 -47
94 -174 14 -230 -60 -41 -123 -33 -172 23 -55 63 -53 135 4 192 27 27 41 33
77 33 24 0 59 -8 77 -18z"/>
<path d="M7754 4574 c15 -62 40 -99 69 -102 18 -2 29 2 33 12 9 25 -4 63 -23
69 -10 3 -33 16 -52 28 l-34 23 7 -30z"/>
<path d="M5871 4609 c10 -33 20 -80 21 -104 2 -24 7 -41 12 -38 11 7 0 84 -20
145 -23 71 -35 68 -13 -3z"/>
<path d="M102 4600 c0 -14 2 -19 5 -12 2 6 2 18 0 25 -3 6 -5 1 -5 -13z"/>
<path d="M8113 4613 c26 -2 68 -2 95 0 26 2 4 3 -48 3 -52 0 -74 -1 -47 -3z"/>
<path d="M5240 4581 c-28 -7 -19 -9 45 -10 106 -2 156 -29 229 -126 47 -64 81
-88 81 -58 0 17 -141 160 -175 178 -35 18 -131 27 -180 16z"/>
<path d="M102 4455 c-4 -105 35 -252 99 -376 51 -99 95 -149 193 -221 101 -75
144 -97 203 -104 l48 -5 -60 25 c-185 79 -309 188 -380 333 -53 108 -91 246
-98 353 l-4 45 -1 -50z"/>
<path d="M8123 4413 c9 -2 25 -2 35 0 9 3 1 5 -18 5 -19 0 -27 -2 -17 -5z"/>
<path d="M2651 4398 c0 -7 4 -22 9 -33 7 -16 8 -14 7 12 -1 18 -5 33 -9 33 -5
0 -8 -6 -7 -12z"/>
<path d="M2075 4326 c-72 -23 -104 -45 -132 -94 -51 -86 -33 -202 44 -274 139
-131 378 23 329 212 -17 64 -53 110 -107 137 -61 30 -88 34 -134 19z m102 -27
c15 -5 41 -22 56 -37 75 -71 83 -171 19 -248 -43 -52 -81 -74 -129 -74 -78 0
-131 34 -164 105 -23 49 -24 94 -3 143 40 96 135 144 221 111z"/>
<path d="M2113 4193 c9 -2 23 -2 30 0 6 3 -1 5 -18 5 -16 0 -22 -2 -12 -5z"/>
<path d="M2160 4180 c0 -5 5 -10 11 -10 5 0 7 5 4 10 -3 6 -8 10 -11 10 -2 0
-4 -4 -4 -10z"/>
<path d="M2178 4150 c-4 -8 -11 -28 -16 -45 -7 -26 -14 -30 -43 -31 -19 0 -41
4 -49 10 -8 6 -6 0 4 -12 29 -33 86 -27 104 11 7 15 12 40 10 55 -3 18 -6 22
-10 12z"/>
<path d="M2060 4130 c0 -19 3 -21 12 -12 9 9 9 15 0 24 -9 9 -12 7 -12 -12z"/>
<path d="M7745 4224 c-67 -35 -95 -82 -95 -161 0 -90 63 -153 153 -153 55 0
90 16 132 59 25 27 30 41 33 94 4 74 -16 120 -67 154 -41 27 -111 31 -156 7z
m128 -23 c15 -6 34 -28 47 -56 41 -85 13 -167 -68 -202 -51 -21 -122 3 -152
52 -36 59 -20 150 35 193 30 24 94 29 138 13z"/>
<path d="M7831 4113 c-44 -51 -48 -84 -14 -110 37 -28 58 -11 41 33 -9 25 -7
36 11 71 11 23 21 45 21 48 0 16 -23 -1 -59 -42z"/>
<path d="M8115 4150 c-55 -10 317 -10 380 0 33 5 -16 7 -145 7 -107 0 -213 -3
-235 -7z"/>
<path d="M8188 4073 c39 -2 105 -2 145 0 39 1 7 3 -73 3 -80 0 -112 -2 -72 -3z"/>
<path d="M8228 4053 c61 -2 163 -2 225 0 61 1 11 3 -113 3 -124 0 -174 -2
-112 -3z"/>
<path d="M1540 3459 c-76 -10 -158 -43 -227 -89 -73 -48 -102 -79 -148 -155
-62 -104 -69 -143 -70 -387 0 -120 3 -218 6 -218 3 0 26 7 51 15 l45 16 8 197
c8 223 21 281 79 360 79 109 218 163 362 143 83 -12 145 -44 210 -106 81 -80
106 -138 115 -275 4 -63 8 -163 8 -222 l1 -107 48 -14 c26 -7 48 -13 50 -11 2
1 3 105 3 231 0 248 -8 300 -64 395 -90 153 -295 251 -477 227z"/>
<path d="M320 3435 c0 -8 2 -15 4 -15 2 0 6 7 10 15 3 8 1 15 -4 15 -6 0 -10
-7 -10 -15z"/>
<path d="M7640 3328 l0 -118 51 0 c45 0 55 4 85 34 28 28 34 42 34 76 0 50
-32 108 -63 115 -12 2 -41 6 -64 7 l-43 4 0 -118z m103 86 c22 -7 47 -55 47
-91 0 -41 -25 -71 -68 -83 -63 -17 -62 -19 -62 91 l0 101 33 -7 c17 -4 40 -9
50 -11z"/>
<path d="M7886 3361 c-47 -114 -59 -154 -43 -148 6 2 16 18 21 35 9 31 11 32
61 32 49 0 52 -1 70 -37 10 -21 20 -33 22 -27 4 13 -74 221 -86 229 -5 2 -25
-35 -45 -84z m62 4 c17 -63 16 -65 -23 -65 -24 0 -35 5 -35 15 0 20 31 95 39
95 4 0 12 -20 19 -45z"/>
<path d="M8098 3443 c-40 -2 -68 -8 -68 -15 0 -7 13 -9 35 -5 l35 6 0 -105 c0
-63 4 -104 10 -104 6 0 10 42 10 105 l0 106 35 -7 c28 -5 35 -3 35 10 0 9 -6
15 -12 14 -7 -1 -43 -3 -80 -5z"/>
<path d="M8255 3403 c-10 -26 -31 -74 -46 -105 -29 -57 -36 -88 -21 -88 4 0
12 15 17 33 10 31 12 32 68 35 l58 3 16 -38 c12 -26 18 -33 20 -21 4 16 -69
203 -86 221 -5 4 -16 -14 -26 -40z m55 -60 c0 -6 3 -18 6 -27 8 -20 -17 -30
-51 -22 -30 8 -32 33 -9 78 l16 31 19 -24 c10 -13 19 -29 19 -36z"/>
<path d="M9493 3430 c-18 -11 -33 -28 -33 -38 0 -27 27 -60 65 -78 42 -20 53
-48 29 -75 -22 -24 -36 -24 -59 1 -10 11 -20 18 -23 15 -3 -3 3 -14 13 -25 23
-25 67 -26 88 -2 33 37 17 70 -56 116 -37 23 -43 42 -22 66 22 24 43 25 67 3
22 -20 24 -1 2 21 -20 21 -32 20 -71 -4z"/>
<path d="M9651 3424 c-17 -14 -31 -31 -31 -37 0 -15 51 -67 65 -67 14 0 55
-42 55 -57 0 -12 -33 -43 -47 -43 -5 0 -20 9 -33 20 -29 25 -40 17 -15 -10 23
-26 55 -25 89 1 45 35 34 57 -58 122 -34 23 -33 54 0 69 23 11 28 9 45 -12 14
-20 19 -21 19 -8 0 20 -26 48 -45 48 -7 0 -27 -12 -44 -26z"/>
<path d="M10146 3435 c-36 -27 -56 -69 -56 -116 0 -41 4 -51 36 -79 29 -25 43
-30 72 -28 19 2 37 8 39 13 2 6 -14 9 -41 7 -37 -3 -46 0 -65 23 -31 40 -29
113 4 149 25 27 54 33 86 16 21 -12 26 -1 7 18 -16 16 -59 15 -82 -3z"/>
<path d="M8501 3323 c1 -103 3 -113 12 -76 8 37 15 44 45 52 49 14 72 38 72
77 0 42 -30 64 -87 64 l-43 0 1 -117z m97 85 c30 -30 4 -80 -50 -93 l-28 -7 0
56 0 56 33 0 c18 0 38 -5 45 -12z"/>
<path d="M8673 3426 c4 -10 8 -63 8 -119 1 -56 3 -91 6 -77 10 63 13 70 37 70
23 0 77 -50 88 -82 3 -7 9 -10 13 -5 5 4 -7 26 -25 49 l-33 41 26 21 c30 24
35 60 12 89 -9 13 -32 20 -76 24 -56 6 -62 4 -56 -11z m122 -40 c8 -24 6 -31
-14 -47 -13 -10 -37 -19 -55 -19 l-31 0 4 51 3 50 41 -3 c36 -3 43 -7 52 -32z"/>
<path d="M8889 3412 c-28 -25 -32 -35 -32 -76 0 -52 22 -91 66 -116 35 -20 75
-5 104 39 30 44 30 98 0 142 -19 28 -30 35 -64 37 -34 3 -47 -2 -74 -26z m124
-14 c36 -42 12 -149 -39 -168 -48 -18 -89 17 -100 87 -5 30 -1 44 16 66 40 50
87 56 123 15z"/>
<path d="M9118 3413 c-41 -43 -51 -77 -33 -118 32 -79 94 -106 145 -64 20 17
21 19 5 13 -55 -20 -81 -17 -108 16 -38 45 -37 101 2 141 33 33 56 36 89 13
28 -20 43 -10 16 11 -32 24 -87 19 -116 -12z"/>
<path d="M9291 3330 l-1 -110 70 0 c39 0 70 4 70 9 0 5 -27 7 -60 4 l-60 -6 0
36 c0 57 8 67 52 67 24 0 37 4 33 10 -4 6 -23 7 -46 4 l-39 -7 0 42 0 41 60 0
c33 0 60 4 60 10 0 6 -30 10 -69 10 l-70 0 0 -110z"/>
<path d="M9801 3328 c1 -72 4 -104 9 -88 12 37 12 200 0 200 -6 0 -10 -44 -9
-112z"/>
<path d="M9878 3329 c2 -61 6 -109 9 -106 3 3 5 44 4 91 -1 47 2 86 7 86 4 0
22 -24 40 -52 18 -29 48 -71 67 -93 l34 -40 1 113 c0 78 -4 112 -11 112 -9 0
-10 -27 -6 -95 3 -56 2 -93 -4 -90 -5 3 -27 38 -50 78 -83 143 -95 143 -91 -4z"/>
<path d="M410 3386 c-3 -2 -28 -6 -55 -7 -27 -2 -79 -11 -115 -21 -74 -20 -83
-22 -76 -9 4 5 -2 8 -11 6 -10 -2 -21 -4 -25 -4 -5 -1 -8 -15 -8 -32 0 -17 4
-28 10 -24 5 3 10 0 10 -8 0 -18 31 -32 40 -18 11 18 79 41 140 48 59 6 65 4
164 -43 38 -18 36 -19 36 22 0 19 -4 33 -9 30 -5 -3 -11 1 -14 9 -3 7 -22 17
-41 20 -19 4 -36 14 -38 22 -2 8 -5 12 -8 9z"/>
<path d="M646 3255 c4 -8 10 -12 15 -9 14 8 10 24 -6 24 -9 0 -12 -6 -9 -15z"/>
<path d="M633 3203 c-7 -3 -13 -21 -14 -41 0 -34 -1 -35 -10 -13 -15 37 -20
20 -8 -25 7 -22 9 -67 5 -103 -3 -35 -3 -61 1 -57 12 12 22 119 12 138 -6 12
-6 18 1 18 5 0 10 6 10 14 0 7 9 20 20 27 16 11 17 17 7 30 -7 9 -18 14 -24
12z"/>
<path d="M300 3088 c0 -39 -5 -57 -22 -75 -18 -19 -20 -28 -12 -51 6 -15 16
-26 23 -24 7 1 32 5 56 9 41 5 44 4 59 -26 10 -19 24 -31 37 -31 11 0 18 4 15
8 -2 4 -1 14 4 21 12 21 -18 113 -47 140 -19 18 -24 30 -19 52 5 29 5 29 -44
29 l-50 0 0 -52z m70 -73 c0 -23 -2 -24 -20 -15 -21 11 -25 22 -13 33 15 16
33 6 33 -18z"/>
<path d="M7536 2859 c-39 -11 -75 -46 -97 -94 -15 -33 -19 -65 -19 -186 l0
-146 128 -6 c70 -3 659 -3 1310 0 l1182 6 0 146 c0 169 -12 209 -76 257 l-37
29 -1181 1 c-650 1 -1194 -2 -1210 -7z m223 -125 c38 -27 53 -76 38 -121 -22
-69 -91 -82 -143 -26 -28 30 -32 79 -9 123 22 43 71 53 114 24z m352 -13 c24
-25 29 -38 29 -78 0 -40 -5 -54 -25 -73 -60 -57 -155 -7 -155 81 0 52 42 99
90 99 22 0 41 -9 61 -29z"/>
<path d="M256 2778 c5 -7 3 -8 -6 -3 -7 4 -15 2 -20 -4 -4 -7 -16 -13 -28 -14
-16 -1 -18 -4 -10 -14 6 -7 19 -13 29 -13 11 0 19 -4 19 -9 0 -5 13 -11 29
-14 26 -6 30 -12 36 -51 8 -49 21 -56 85 -46 30 4 35 9 38 35 3 19 -2 33 -13
41 -15 11 -14 14 16 23 19 5 26 10 17 10 -10 1 -18 8 -18 16 0 8 -3 15 -7 16
-5 0 -29 2 -55 4 -26 2 -61 11 -77 20 -36 18 -45 19 -35 3z m144 -115 c0 -15
2 -16 10 -3 8 12 10 10 10 -8 0 -13 -4 -20 -10 -17 -5 3 -10 1 -10 -4 0 -6 -7
-11 -16 -11 -8 0 -12 5 -9 10 3 6 1 10 -4 10 -6 0 -11 9 -11 20 0 13 7 20 20
20 12 0 20 -7 20 -17z"/>
<path d="M6447 2631 c-43 -32 -114 -93 -159 -135 -71 -68 -82 -74 -93 -60 -14
20 -68 13 -97 -13 -42 -37 -6 -103 56 -103 36 0 66 27 66 60 0 17 102 120 225
225 44 38 82 71 84 72 2 2 2 5 0 7 -2 3 -39 -21 -82 -53z"/>
<path d="M1568 2673 c-2 -5 -2 -104 0 -220 l3 -213 30 0 c100 0 198 -102 199
-207 0 -47 -13 -83 -49 -131 l-24 -33 37 -107 c21 -59 40 -120 42 -137 8 -54
-4 -60 -126 -63 l-110 -4 0 -263 c0 -304 10 -284 -107 -220 -35 19 -62 31 -59
26 4 -5 44 -30 91 -56 l84 -46 53 27 c264 134 485 398 596 714 56 160 90 347
107 592 l6 87 -38 6 c-299 49 -499 116 -659 221 -51 34 -70 41 -76 27z"/>
<path d="M1415 2590 c-147 -73 -318 -128 -463 -149 l-117 -16 3 -100 c7 -262
79 -569 177 -766 37 -74 126 -205 172 -255 21 -22 33 -33 28 -25 -6 9 -17 28
-25 43 -7 15 -21 36 -31 47 -25 27 -119 171 -119 183 0 11 -35 92 -56 130 -17
32 -89 309 -103 399 -6 35 -11 118 -12 184 l-3 120 40 8 c21 4 64 13 94 19 30
6 65 17 77 24 12 8 30 11 39 7 12 -4 15 -3 10 5 -5 8 1 11 16 11 34 -2 188 57
288 111 48 26 106 68 99 73 -2 1 -54 -23 -114 -53z"/>
<path d="M3545 2640 c28 -12 55 -12 55 0 0 6 -17 10 -37 9 -31 0 -34 -2 -18
-9z"/>
<path d="M50 2419 c0 -25 33 -22 38 4 2 12 -3 17 -17 17 -15 0 -21 -6 -21 -21z"/>
<path d="M57 2243 c-12 -11 -8 -23 8 -23 8 0 15 7 15 15 0 16 -12 20 -23 8z"/>
<path d="M155 2220 c3 -5 15 -10 26 -10 10 0 19 5 19 10 0 6 -12 10 -26 10
-14 0 -23 -4 -19 -10z"/>
<path d="M270 2215 c0 -9 9 -15 25 -15 18 0 23 4 19 15 -4 8 -15 15 -25 15
-10 0 -19 -7 -19 -15z"/>
<path d="M384 2219 c-3 -6 -2 -14 4 -18 6 -4 13 -46 15 -96 l3 -90 2 108 c2
99 -5 126 -24 96z"/>
<path d="M1563 2121 c-11 -19 -26 -31 -39 -31 -27 0 -42 -18 -50 -58 -9 -42 1
-74 33 -112 31 -38 32 -61 4 -186 -11 -49 -18 -90 -16 -93 9 -8 195 -13 195
-5 0 5 -12 64 -27 131 l-27 122 28 42 c16 23 32 56 37 73 18 61 -24 124 -94
141 -23 6 -29 2 -44 -24z"/>
<path d="M7935 2131 c-116 -29 -175 -118 -175 -266 l0 -85 -34 -14 c-56 -23
-59 -37 -51 -245 3 -102 11 -197 16 -211 19 -50 37 -54 284 -58 351 -6 345
-11 345 270 0 97 -4 188 -9 201 -5 13 -26 34 -45 45 l-36 21 0 83 c0 66 -5 93
-24 134 -47 102 -157 152 -271 125z m123 -112 c65 -32 82 -67 82 -167 l0 -83
-137 4 -138 4 -7 39 c-13 71 -9 118 13 154 42 69 108 87 187 49z m-30 -411
c17 -17 15 -38 -4 -60 -16 -16 -15 -19 5 -35 14 -11 24 -34 28 -59 4 -34 1
-46 -16 -63 -13 -13 -32 -21 -44 -19 -20 3 -22 9 -23 77 -1 57 -5 76 -18 83
-23 13 -20 35 9 63 27 28 45 31 63 13z"/>
<path d="M8846 2070 c-71 -5 -134 -11 -140 -14 -6 -2 242 -5 552 -5 368 -1
562 2 562 9 0 6 -48 10 -123 10 -68 0 -258 2 -423 4 -164 3 -357 1 -428 -4z"/>
<path d="M5840 1969 c-25 -4 -120 -8 -211 -8 l-166 -1 -7 -31 c-12 -61 -7 -89
17 -99 16 -7 18 -9 5 -9 -10 -1 -57 17 -105 40 -49 23 -124 55 -168 71 -78 29
-85 30 -250 29 -93 -1 -191 -4 -217 -7 l-47 -6 -10 -67 c-6 -36 -10 -113 -8
-171 l2 -105 295 -5 c162 -3 562 -3 888 0 l594 5 19 24 c11 14 19 36 17 50 -4
31 -40 53 -198 117 -63 26 -169 75 -235 109 -136 70 -153 75 -215 64z"/>
<path d="M390 1919 c-9 -5 -10 -9 -3 -9 6 0 13 -8 15 -17 3 -15 5 -14 10 4 7
27 -2 36 -22 22z"/>
<path d="M8 1913 c7 -3 16 -2 19 1 4 3 -2 6 -13 5 -11 0 -14 -3 -6 -6z"/>
<path d="M100 1911 c0 -5 9 -7 20 -4 11 3 20 7 20 9 0 2 -9 4 -20 4 -11 0 -20
-4 -20 -9z"/>
<path d="M1390 1912 c0 -6 5 -14 10 -17 6 -3 10 -21 11 -38 0 -30 1 -31 10 -9
7 18 4 30 -11 49 -11 14 -20 21 -20 15z"/>
<path d="M400 1742 c0 -116 -2 -131 -17 -135 -17 -4 -17 -5 0 -6 15 -1 17 -15
17 -155 0 -139 -2 -155 -17 -159 -17 -4 -17 -5 0 -6 15 -1 17 -15 19 -118 l2
-118 3 115 c3 76 8 117 16 122 9 6 9 8 0 8 -10 0 -13 65 -13 286 0 158 -2 289
-5 292 -3 3 -5 -54 -5 -126z"/>
<path d="M713 1720 c0 -36 2 -50 4 -32 2 17 2 47 0 65 -2 17 -4 3 -4 -33z"/>
<path d="M9108 1743 c-275 -2 -478 -7 -478 -12 0 -11 672 -15 968 -5 117 4
211 8 210 9 -9 8 -283 10 -700 8z"/>
<path d="M18 1603 c12 -2 32 -2 45 0 12 2 2 4 -23 4 -25 0 -35 -2 -22 -4z"/>
<path d="M98 1588 c5 -18 7 -19 10 -6 2 10 15 18 35 21 28 3 26 4 -10 5 -38 2
-41 0 -35 -20z"/>
<path d="M706 1585 c4 -8 7 -15 9 -15 2 0 5 7 9 15 3 9 0 15 -9 15 -9 0 -12
-6 -9 -15z"/>
<path d="M1408 1553 c23 -2 61 -2 85 0 23 2 4 4 -43 4 -47 0 -66 -2 -42 -4z"/>
<path d="M102 1485 c0 -16 2 -22 5 -12 2 9 2 23 0 30 -3 6 -5 -1 -5 -18z"/>
<path d="M713 1435 c0 -33 2 -45 4 -27 2 18 2 45 0 60 -2 15 -4 0 -4 -33z"/>
<path d="M8637 1418 c9 -74 11 -78 47 -78 27 0 46 -12 106 -70 l73 -69 -13
-41 c-11 -32 -11 -46 -2 -60 9 -14 8 -20 -1 -23 -7 -2 -2 -2 10 0 16 2 43 -18
106 -79 79 -78 270 -259 301 -285 11 -10 15 -9 20 3 3 8 2 12 -3 9 -5 -3 -12
-1 -15 4 -3 5 16 9 44 9 28 1 50 -3 50 -9 0 -5 9 -9 20 -9 28 0 25 -25 -7 -55
l-28 -25 31 0 c66 0 136 82 120 143 -3 13 -89 104 -193 203 -103 98 -217 207
-252 242 -35 34 -70 62 -78 62 -7 0 -18 -9 -25 -20 -7 -11 -16 -20 -19 -20 -7
0 -131 102 -197 161 -28 26 -52 39 -71 39 -25 0 -27 -3 -24 -32z m812 -660 c0
-18 -3 -26 -6 -18 -3 8 -11 18 -17 23 -8 5 -6 10 4 17 21 13 20 14 19 -22z
m-29 -88 c0 -5 -5 -10 -11 -10 -5 0 -7 5 -4 10 3 6 8 10 11 10 2 0 4 -4 4 -10z"/>
<path d="M6478 1429 c-14 -7 -18 -23 -18 -62 0 -29 -6 -59 -12 -66 -11 -10
-10 -11 5 -6 10 4 17 2 17 -4 0 -6 -7 -12 -15 -12 -30 -3 -34 -4 -46 -16 -7
-7 -18 -13 -25 -13 -6 0 -31 -19 -55 -42 -47 -44 -41 -43 31 8 39 27 126 64
152 64 5 0 8 -16 6 -36 -3 -33 -7 -37 -54 -53 -28 -9 -63 -25 -78 -34 -30 -20
-60 -76 -71 -132 -4 -22 -12 -43 -18 -47 -9 -6 -9 -8 1 -8 6 0 12 -10 12 -22
1 -53 61 -143 115 -170 11 -6 1 6 -21 25 -43 38 -67 79 -79 135 l-7 32 80 0
80 0 26 -44 c20 -35 26 -58 26 -105 0 -56 -2 -61 -22 -62 -17 -1 -19 -2 -5 -6
9 -2 17 -14 17 -25 l0 -20 18 20 c9 11 41 28 70 37 73 23 116 69 141 149 16
52 18 71 9 103 -16 59 -44 108 -78 137 -45 37 -58 32 -17 -6 40 -39 77 -107
77 -143 0 -24 -3 -25 -52 -25 -49 0 -53 2 -97 50 -25 28 -51 50 -58 50 -6 0
-20 -18 -30 -40 -19 -42 -25 -44 -125 -56 -65 -7 -65 -6 -46 57 21 73 107 149
167 149 15 0 21 -6 21 -21 0 -12 4 -18 11 -13 7 4 9 23 5 50 -9 66 -2 75 56
73 28 -2 56 -8 63 -15 7 -7 28 -16 48 -19 30 -6 38 -3 49 14 15 25 38 28 38 5
0 -9 10 -24 23 -34 21 -17 23 -17 42 -2 20 17 20 17 1 -6 -27 -31 -15 -37 28
-11 36 21 37 22 20 48 -26 41 -66 81 -82 81 -7 0 -25 -13 -39 -30 -13 -16 -31
-30 -39 -30 -7 0 -43 14 -78 32 -65 32 -65 32 -68 77 l-3 46 -50 2 c-27 2 -58
-2 -67 -8z m257 -491 c-9 -42 -32 -87 -58 -115 -17 -19 -111 -63 -134 -63 -3
0 -3 26 -1 59 3 50 9 64 44 104 38 45 41 46 97 47 l59 0 -7 -32z"/>
<path d="M9608 1403 c23 -2 59 -2 80 0 20 2 1 4 -43 4 -44 0 -61 -2 -37 -4z"/>
<path d="M9168 1383 c45 -2 119 -2 165 0 45 1 8 3 -83 3 -91 0 -128 -2 -82 -3z"/>
<path d="M92 1360 c0 -14 2 -19 5 -12 2 6 2 18 0 25 -3 6 -5 1 -5 -13z"/>
<path d="M6234 1326 c-21 -16 -15 -20 39 -29 31 -5 32 9 1 30 -17 11 -23 11
-40 -1z"/>
<path d="M45 1290 l-50 -7 58 -1 c32 -1 57 2 57 8 0 6 -3 9 -7 8 -5 0 -30 -4
-58 -8z"/>
<path d="M458 1283 c12 -2 32 -2 45 0 12 2 2 4 -23 4 -25 0 -35 -2 -22 -4z"/>
<path d="M712 1220 c0 -14 2 -19 5 -12 2 6 2 18 0 25 -3 6 -5 1 -5 -13z"/>
<path d="M712 1078 l-2 -98 -32 -1 -33 -2 30 -4 c16 -3 33 -9 36 -15 12 -18
14 16 8 117 l-5 100 -2 -97z"/>
<path d="M1330 1156 c0 -2 8 -10 18 -17 15 -13 16 -12 3 4 -13 16 -21 21 -21
13z"/>
<path d="M2775 1130 c-43 -34 -46 -35 -64 -17 -10 9 -15 9 -18 0 -2 -7 -14
-24 -25 -38 -15 -19 -23 -23 -28 -14 -6 9 -12 6 -21 -9 -7 -11 -19 -18 -28
-15 -13 4 -13 3 -2 -5 11 -8 10 -13 -3 -33 -18 -29 -26 -166 -9 -177 5 -4 13
-17 17 -29 4 -13 12 -23 18 -23 7 0 8 -16 4 -44 -7 -46 0 -61 23 -47 9 6 10
11 2 15 -6 4 -11 14 -11 23 0 11 9 7 34 -14 27 -23 31 -32 23 -48 -8 -16 -7
-18 4 -7 22 20 37 14 49 -23 21 -62 73 -74 95 -21 8 19 19 38 25 41 15 9 71
-5 64 -16 -3 -5 -1 -9 4 -9 15 0 25 31 23 73 -2 35 -1 37 28 37 37 0 51 22 51
84 l0 46 103 0 104 0 18 -41 c10 -22 26 -44 36 -50 23 -12 89 -12 89 1 0 5 10
9 22 7 18 -1 27 7 43 40 l20 43 91 0 c76 0 94 -3 107 -18 10 -10 17 -23 17
-29 0 -6 9 -22 21 -37 17 -22 28 -26 69 -26 70 0 95 15 115 66 l17 44 104 0
104 0 24 -48 c35 -68 75 -86 164 -71 36 7 71 17 77 23 5 6 10 28 11 48 1 45
27 78 63 78 20 0 23 2 11 10 -8 5 -29 10 -47 10 -23 0 -36 6 -44 22 -6 12 -22
33 -35 47 -13 14 -24 31 -24 37 0 25 -100 39 -108 15 -2 -6 -10 -11 -18 -11
-8 0 -14 -4 -14 -10 0 -5 -5 -9 -12 -7 -7 1 -24 -19 -38 -45 l-25 -48 -97 0
-98 0 -14 34 c-16 38 -76 76 -119 76 -28 0 -63 -30 -96 -82 l-23 -38 -71 0
c-83 0 -117 7 -117 24 0 7 -16 27 -35 46 -64 62 -138 42 -180 -47 l-17 -35
-106 7 c-59 4 -110 9 -114 12 -10 5 -4 54 11 81 10 19 9 22 -5 22 -14 0 -14 2
-3 16 11 14 8 21 -23 50 -30 27 -42 32 -70 28 -29 -5 -35 -2 -50 25 -22 39
-45 39 -93 1z m92 -110 c52 -31 68 -65 69 -145 2 -66 0 -72 -28 -98 -16 -15
-49 -33 -73 -39 -39 -10 -48 -9 -96 15 -64 31 -91 70 -91 132 0 122 120 196
219 135z m1274 -53 c-10 -9 -11 -8 -5 6 3 10 9 15 12 12 3 -3 0 -11 -7 -18z
m176 -184 c-3 -3 -11 -2 -17 2 -9 6 -9 10 1 16 14 8 27 -7 16 -18z"/>
<path d="M1023 1080 c0 -25 2 -35 4 -22 2 12 2 32 0 45 -2 12 -4 2 -4 -23z"/>
<path d="M9410 1100 l-45 -6 40 -5 c72 -8 310 1 295 11 -17 11 -220 11 -290 0z"/>
<path d="M6197 1026 c7 -34 24 -56 44 -56 7 0 2 10 -10 21 -21 19 -21 23 -7
31 23 13 20 25 -8 30 -23 5 -24 3 -19 -26z"/>
<path d="M401 1014 c0 -11 3 -14 6 -6 3 7 2 16 -1 19 -3 4 -6 -2 -5 -13z"/>
<path d="M6098 1023 c-36 -4 -38 -6 -38 -39 0 -19 5 -34 10 -34 6 0 10 8 10
18 0 19 52 44 74 36 7 -3 18 1 24 8 12 15 -10 18 -80 11z"/>
<path d="M2556 1003 c-6 -14 -5 -15 5 -6 7 7 10 15 7 18 -3 3 -9 -2 -12 -12z"/>
<path d="M4873 1003 c-23 -9 -15 -35 10 -31 12 2 22 9 22 17 0 16 -14 22 -32
14z"/>
<path d="M5003 1003 c-13 -2 -23 -11 -23 -19 0 -16 37 -19 59 -5 13 8 7 32 -7
30 -4 -1 -17 -4 -29 -6z"/>
<path d="M5921 997 c-14 -18 -4 -27 30 -27 30 0 47 25 23 34 -25 9 -41 7 -53
-7z"/>
<path d="M1955 990 c-3 -5 -2 -16 2 -24 6 -11 11 -11 19 -2 8 8 7 15 -2 24 -8
7 -15 8 -19 2z"/>
<path d="M4730 985 c0 -9 9 -15 25 -15 16 0 25 6 25 15 0 9 -9 15 -25 15 -16
0 -25 -6 -25 -15z"/>
<path d="M5120 985 c0 -12 7 -15 25 -13 14 2 26 8 26 13 0 6 -12 11 -26 13
-18 2 -25 -1 -25 -13z"/>
<path d="M5262 983 c2 -10 13 -19 26 -21 17 -3 22 2 22 17 0 16 -6 21 -26 21
-19 0 -25 -5 -22 -17z"/>
<path d="M5380 987 c0 -20 9 -25 31 -20 28 8 24 33 -6 33 -14 0 -25 -6 -25
-13z"/>
<path d="M5520 985 c0 -10 10 -15 30 -15 20 0 30 5 30 15 0 10 -10 15 -30 15
-20 0 -30 -5 -30 -15z"/>
<path d="M5670 980 c0 -15 5 -20 18 -18 9 2 17 10 17 18 0 8 -8 16 -17 18 -13
2 -18 -3 -18 -18z"/>
<path d="M5780 984 c0 -11 8 -14 27 -12 39 4 42 28 4 28 -21 0 -31 -5 -31 -16z"/>
<path d="M355 979 l-50 -6 47 -1 48 -2 0 -241 c-1 -133 2 -244 5 -247 3 -3 5
38 5 91 l0 96 58 4 57 3 -57 2 -58 2 0 145 0 144 58 3 57 3 -60 5 c-33 3 -82
2 -110 -1z"/>
<path d="M1878 983 c7 -3 16 -2 19 1 4 3 -2 6 -13 5 -11 0 -14 -3 -6 -6z"/>
<path d="M4590 976 c0 -18 37 -27 50 -12 13 16 3 26 -27 26 -13 0 -23 -6 -23
-14z"/>
<path d="M5 975 c26 -9 105 -12 105 -4 0 5 -26 9 -57 8 -32 0 -54 -2 -48 -4z"/>
<path d="M133 973 c9 -2 25 -2 35 0 9 3 1 5 -18 5 -19 0 -27 -2 -17 -5z"/>
<path d="M1008 973 c7 -3 16 -2 19 1 4 3 -2 6 -13 5 -11 0 -14 -3 -6 -6z"/>
<path d="M1341 944 c0 -11 3 -14 6 -6 3 7 2 16 -1 19 -3 4 -6 -2 -5 -13z"/>
<path d="M714 825 c0 -60 1 -84 3 -52 2 32 2 81 0 110 -2 29 -3 3 -3 -58z"/>
<path d="M90 791 l0 -120 -47 -4 -48 -3 47 -2 47 -2 4 -107 3 -108 2 108 2
107 33 1 c30 2 30 2 5 6 l-28 4 0 114 c0 65 -4 116 -10 120 -6 4 -10 -36 -10
-114z"/>
<path d="M1640 843 c0 -24 2 -43 4 -43 8 0 12 60 4 72 -4 8 -8 -4 -8 -29z"/>
<path d="M5567 794 c-9 -104 -9 -130 2 -118 11 11 20 169 11 184 -4 6 -10 -23
-13 -66z"/>
<path d="M5652 750 c1 -63 3 -93 5 -67 3 39 7 47 19 43 9 -3 23 -6 31 -6 8 0
36 -21 61 -47 45 -48 40 -32 -7 20 l-25 27 22 16 c42 29 46 52 18 89 -22 28
-33 34 -76 37 l-50 3 2 -115z m109 79 c42 -42 -5 -106 -69 -93 -29 6 -32 10
-32 44 0 21 3 45 6 54 9 24 69 21 95 -5z"/>
<path d="M4822 844 c-46 -32 -16 -85 63 -111 23 -7 31 -16 33 -40 3 -26 -2
-32 -28 -43 -27 -11 -37 -11 -66 3 -19 9 -34 13 -34 8 0 -11 47 -31 74 -31 37
0 78 38 74 69 -2 21 -14 31 -61 54 -52 24 -58 30 -55 54 4 36 30 50 67 36 24
-9 29 -8 24 3 -7 19 -63 18 -91 -2z"/>
<path d="M5000 745 l0 -115 66 0 c41 0 63 4 59 10 -3 6 -31 10 -61 10 l-55 0
3 43 3 42 55 6 55 6 -57 1 -58 2 0 45 0 45 60 0 c33 0 60 4 60 10 0 6 -28 10
-65 10 l-65 0 0 -115z"/>
<path d="M5209 821 c-43 -42 -48 -70 -25 -125 19 -45 52 -66 102 -66 30 0 46
6 60 23 10 12 12 16 4 10 -8 -7 -35 -13 -60 -13 -57 0 -86 26 -96 87 -6 38 -3
45 25 74 27 26 37 30 69 27 20 -3 45 -8 55 -12 9 -5 17 -4 17 1 0 14 -47 33
-82 33 -22 0 -41 -11 -69 -39z"/>
<path d="M5854 843 c3 -8 6 -59 6 -114 0 -54 3 -99 8 -99 4 0 7 46 7 102 l0
103 50 3 c82 5 79 23 -3 21 -60 -1 -72 -4 -68 -16z"/>
<path d="M5418 760 c3 -82 5 -91 29 -110 14 -11 34 -20 45 -20 26 0 58 18 58
32 0 9 -3 9 -12 0 -17 -17 -74 -15 -92 4 -12 12 -16 36 -16 100 0 46 -3 84 -7
84 -5 0 -7 -40 -5 -90z"/>
<path d="M1653 755 c0 -22 2 -30 4 -17 2 12 2 30 0 40 -3 9 -5 -1 -4 -23z"/>
<path d="M6825 780 c-8 -14 8 -33 31 -36 13 -2 13 1 -3 19 -10 12 -19 23 -19
25 -1 2 -5 -2 -9 -8z"/>
<path d="M5913 743 c15 -2 39 -2 55 0 15 2 2 4 -28 4 -30 0 -43 -2 -27 -4z"/>
<path d="M6830 720 c-8 -4 -27 -13 -42 -18 -26 -11 -28 -18 -14 -59 9 -29 40
-30 83 -4 40 25 52 59 27 78 -20 15 -32 16 -54 3z"/>
<path d="M711 698 c-1 -9 -6 -18 -13 -20 -8 -3 -6 -7 5 -11 21 -8 27 2 16 28
-6 16 -8 16 -8 3z"/>
<path d="M1333 605 c1 -103 1 -104 4 -22 l4 87 149 0 c127 0 150 -2 150 -15 0
-8 5 -15 11 -15 5 0 8 4 4 9 -3 6 3 14 12 20 13 7 -31 10 -154 11 -155 0 -172
2 -176 18 -3 9 -4 -32 -4 -93z"/>
<path d="M1020 575 c0 -65 2 -116 4 -114 7 7 9 219 2 226 -3 4 -6 -47 -6 -112z"/>
<path d="M6461 672 c-1 -13 3 -20 9 -17 11 7 14 -18 3 -29 -4 -4 -6 -28 -4
-54 3 -58 21 -74 81 -70 45 3 45 3 48 42 4 43 -7 56 -50 56 -23 0 -28 4 -28
25 0 18 -7 28 -24 35 -13 5 -26 15 -29 22 -3 7 -6 3 -6 -10z"/>
<path d="M1837 673 c18 -2 50 -2 70 0 21 2 7 4 -32 4 -38 0 -55 -2 -38 -4z"/>
<path d="M1960 558 l5 -123 3 115 c2 76 7 117 15 122 8 5 5 8 -8 8 -19 0 -20
-5 -15 -122z"/>
<path d="M9310 668 c0 -4 7 -8 15 -8 8 0 15 4 15 8 0 5 -7 9 -15 9 -8 0 -15
-4 -15 -9z"/>
<path d="M6538 663 c7 -3 16 -2 19 1 4 3 -2 6 -13 5 -11 0 -14 -3 -6 -6z"/>
<path d="M5923 633 c15 -2 37 -2 50 0 12 2 0 4 -28 4 -27 0 -38 -2 -22 -4z"/>
<path d="M6240 620 c0 -5 5 -10 10 -10 6 0 10 5 10 10 0 6 -4 10 -10 10 -5 0
-10 -4 -10 -10z"/>
<path d="M1654 530 c0 -52 1 -74 3 -47 2 26 2 68 0 95 -2 26 -3 4 -3 -48z"/>
</g>
</svg>
