<?xml version="1.0" standalone="no"?>
<!DOCTYPE svg PUBLIC "-//W3C//DTD SVG 20010904//EN"
 "http://www.w3.org/TR/2001/REC-SVG-20010904/DTD/svg10.dtd">
<svg version="1.0" xmlns="http://www.w3.org/2000/svg"
 width="221.000000pt" height="88.000000pt" viewBox="0 0 221.000000 88.000000"
 preserveAspectRatio="xMidYMid meet">

<g transform="translate(0.000000,88.000000) scale(0.100000,-0.100000)"
fill="#000000" stroke="none">
<path d="M64 846 c-3 -8 -4 -27 -2 -43 l3 -28 217 -3 217 -2 3 -118 3 -117 35
0 35 0 3 149 c2 101 -1 153 -9 162 -17 21 -497 21 -505 0z"/>
<path d="M780 856 c0 -3 -18 -72 -40 -155 -22 -82 -40 -152 -40 -155 0 -4 17
-6 38 -6 l38 0 29 110 28 110 112 0 112 0 29 -110 29 -110 37 0 c24 0 38 5 38
13 0 25 -71 282 -82 294 -8 10 -52 13 -169 13 -88 0 -159 -2 -159 -4z"/>
<path d="M1997 842 c-13 -14 -17 -37 -17 -89 0 -90 12 -103 99 -103 96 0 101
5 101 105 0 100 -5 105 -103 105 -49 0 -68 -4 -80 -18z m161 -4 c7 -7 12 -41
12 -83 0 -42 -5 -76 -12 -83 -7 -7 -39 -12 -74 -12 -82 0 -94 12 -94 95 0 83
12 95 94 95 35 0 67 -5 74 -12z"/>
<path d="M2037 794 c-4 -4 -7 -26 -6 -48 0 -35 2 -38 9 -18 5 12 18 22 29 22
12 0 21 -8 24 -22 3 -13 4 -3 3 22 -1 40 -4 45 -26 48 -14 2 -29 0 -33 -4z
m51 -21 c2 -8 -5 -13 -17 -13 -21 0 -35 13 -24 24 10 10 36 3 41 -11z"/>
<path d="M2123 755 c0 -27 2 -38 4 -22 2 15 2 37 0 50 -2 12 -4 0 -4 -28z"/>
<path d="M1356 725 c-34 -33 -56 -86 -56 -132 0 -19 6 -23 29 -23 26 0 29 4
34 42 7 49 43 88 83 88 15 0 38 -12 55 -29 24 -25 29 -38 29 -78 0 -59 -18
-98 -138 -306 -51 -87 -92 -160 -92 -163 0 -2 70 -4 155 -4 l155 0 0 30 0 29
-104 3 -104 3 79 140 c111 195 129 265 90 351 -26 58 -67 84 -130 84 -44 0
-55 -4 -85 -35z"/>
<path d="M1702 581 c-73 -140 -92 -187 -92 -220 l0 -41 125 0 125 0 0 -100 0
-100 30 0 30 0 0 100 0 100 30 0 c28 0 30 3 30 35 0 32 -2 35 -30 35 l-30 0 0
185 0 185 -30 0 -30 0 0 -185 0 -185 -96 0 -95 0 90 174 c50 95 91 179 91 185
0 6 -13 11 -28 11 -26 0 -34 -12 -120 -179z"/>
<path d="M280 570 l0 -79 -127 -3 -128 -3 -3 -42 -3 -43 301 0 301 0 -3 43 -3
42 -127 3 -128 3 0 79 0 80 -40 0 -40 0 0 -80z"/>
<path d="M910 570 l0 -80 -130 0 -130 0 0 -45 0 -45 301 0 300 0 -3 43 -3 42
-132 3 -133 3 0 79 0 80 -35 0 -35 0 0 -80z"/>
<path d="M118 350 c-39 -30 -58 -80 -58 -150 0 -70 19 -120 58 -150 22 -18 41
-20 204 -20 l180 0 33 33 c66 66 67 202 0 272 l-32 35 -180 0 c-164 0 -183 -2
-205 -20z m376 -92 c20 -29 20 -87 0 -116 -15 -21 -21 -22 -174 -22 -153 0
-159 1 -174 22 -9 12 -16 38 -16 58 0 20 7 46 16 58 15 21 21 22 174 22 153 0
159 -1 174 -22z"/>
<path d="M697 353 c-9 -8 -9 -286 -1 -307 5 -14 37 -16 256 -16 l249 0 -3 43
-3 42 -212 3 -213 2 0 120 0 120 -33 0 c-19 0 -37 -3 -40 -7z"/>
</g>
</svg>
